<?xml version="1.0" encoding="utf-8"?>
<!DOCTYPE svg PUBLIC "-//W3C//DTD SVG 1.1//EN" "http://www.w3.org/Graphics/SVG/1.1/DTD/svg11.dtd">
<svg version="1.1" id="Layer_1" xmlns="http://www.w3.org/2000/svg" xmlns:xlink="http://www.w3.org/1999/xlink" x="0px" y="0px"
	 viewBox="0 0 244 244" enable-background="new 0 0 244 244" xml:space="preserve">
<g>
	<path fill="none" d="M122,242C55.8,242,2,188.2,2,122S55.8,2,122,2c66.2,0,120,53.8,120,120S188.2,242,122,242z M122,21.7
		c-55.3,0-100.3,45-100.3,100.3s45,100.3,100.3,100.3s100.3-45,100.3-100.3S177.3,21.7,122,21.7z"/>
	<path fill="#000" d="M122,21.7c-55.3,0-100.3,45-100.3,100.3s45,100.3,100.3,100.3s100.3-45,100.3-100.3S177.3,21.7,122,21.7z"
		/>
	<g>
		<polyline fill="#fff" points="139.4,184.3 112.3,131.1 128.4,131.1 139.4,152.6 150.2,131.1 166.3,131.1 139.4,184.3 		"/>
		<polygon fill="#fff" points="113.9,102.2 128.6,131.2 150.1,131.2 113.7,59.7 77.7,131.2 99.3,131.2 113.9,102.2 		"/>
	</g>
</g>
</svg>
