<svg id="canvas" height="100%" xmlns="http://www.w3.org/2000/svg" version="1.1"
    xmlns:xlink="http://www.w3.org/1999/xlink" xmlns:svgjs="http://svgjs.dev/svgjs"
    viewBox="0 0 600 600">
    <rect width="600" height="600" fill="transparent"></rect>
    <mask id="mask" mask-type="alpha" maskUnits="userSpaceOnUse">
        <rect transform="translate(0, 0)" width="600" height="600" fill="white"></rect>
    </mask>
    <svg>
        <path transform="translate(0, 0) translate(30,30) rotate(90) translate(-30,-30)"
            fill="#0096c7" fill-rule="evenodd"
            d="M5.072.5H.83L.5.83v4.242L5.072.5zM.5 19.214v-4.242L14.972.5h4.242L.5 19.214zm0 14.142v-4.242L29.114.5h4.242L.5 33.356zM.5 47.5v-4.243L43.256.5H47.5L.5 47.499zM2.64 59.5H.5v-2.102L57.398.5H59.5v2.14L2.64 59.5zm14.143 0H12.54L59.5 12.54v4.243L16.783 59.5zm14.142 0h-4.242L59.5 26.683v4.242L30.925 59.5zm14.142 0h-4.242L59.5 40.825v4.242L45.067 59.5zm14.143 0h-4.243l4.533-4.533v4.243l-.29.29z"
            clip-rule="evenodd"></path>
    </svg>
    <svg>
        <path transform="translate(0, 60) translate(30,30) rotate(0) translate(-30,-30)"
            fill="#0096c7" fill-rule="evenodd"
            d="M5.072.5H.83L.5.83v4.242L5.072.5zM.5 19.214v-4.242L14.972.5h4.242L.5 19.214zm0 14.142v-4.242L29.114.5h4.242L.5 33.356zM.5 47.5v-4.243L43.256.5H47.5L.5 47.499zM2.64 59.5H.5v-2.102L57.398.5H59.5v2.14L2.64 59.5zm14.143 0H12.54L59.5 12.54v4.243L16.783 59.5zm14.142 0h-4.242L59.5 26.683v4.242L30.925 59.5zm14.142 0h-4.242L59.5 40.825v4.242L45.067 59.5zm14.143 0h-4.243l4.533-4.533v4.243l-.29.29z"
            clip-rule="evenodd"></path>
    </svg>
    <svg>
        <path transform="translate(0, 120) translate(30,30) rotate(180) translate(-30,-30)"
            fill="#48cae4" fill-rule="evenodd"
            d="M8.5.5h3v59h-3V.5zM18.5.5h3v59h-3V.5zM31.5.5h-3v59h3V.5zM38.5.5h3v59h-3V.5zM51.5.5h-3v59h3V.5z"
            clip-rule="evenodd"></path>
    </svg>
    <svg>
        <path transform="translate(0, 180) translate(30,30) rotate(0) translate(-30,-30)"
            fill="#0096c7"
            d="M11.122.5h-4.6A80.499 80.499 0 00.5 6.522v4.6A77.464 77.464 0 0111.122.5zM.5 29.168v-6.061A70.364 70.364 0 0123.107.5h6.06A67.297 67.297 0 00.5 29.168z"></path>
        <path transform="translate(0, 180) translate(30,30) rotate(0) translate(-30,-30)"
            fill="#0096c7"
            d="M3.002 59.5H.5v-7.282C3.985 25.305 25.305 3.985 52.218.5H59.5v2.502C28.416 3.27 3.27 28.417 3.002 59.5z"></path>
        <path transform="translate(0, 180) translate(30,30) rotate(0) translate(-30,-30)"
            fill="#0096c7"
            d="M13.003 59.5h-3c.266-27.218 22.28-49.23 49.497-49.498v3C33.94 13.27 13.269 33.94 13.003 59.5z"></path>
        <path transform="translate(0, 180) translate(30,30) rotate(0) translate(-30,-30)"
            fill="#0096c7"
            d="M23.003 59.5h-3C20.27 37.805 37.805 20.269 59.5 20.003v3c-20.038.266-36.231 16.46-36.497 36.497z"></path>
        <path transform="translate(0, 180) translate(30,30) rotate(0) translate(-30,-30)"
            fill="#0096c7"
            d="M33.005 59.5h-3c.263-16.172 13.323-29.232 29.495-29.496v3c-14.515.264-26.232 11.981-26.495 26.496z"></path>
        <path transform="translate(0, 180) translate(30,30) rotate(0) translate(-30,-30)"
            fill="#0096c7"
            d="M43.007 59.5h-3c.26-10.648 8.845-19.233 19.493-19.494v3.001c-8.992.26-16.233 7.502-16.493 16.493zM53.018 59.5h-3.006a10 10 0 019.488-9.488v3.006a7.001 7.001 0 00-6.482 6.482z"></path>
    </svg>
    <svg>
        <path transform="translate(0, 240) translate(30,30) rotate(180) translate(-30,-30)"
            fill="#03045e"
            d="M11.122.5h-4.6A80.499 80.499 0 00.5 6.522v4.6A77.464 77.464 0 0111.122.5zM.5 29.168v-6.061A70.364 70.364 0 0123.107.5h6.06A67.297 67.297 0 00.5 29.168z"></path>
        <path transform="translate(0, 240) translate(30,30) rotate(180) translate(-30,-30)"
            fill="#03045e"
            d="M3.002 59.5H.5v-7.282C3.985 25.305 25.305 3.985 52.218.5H59.5v2.502C28.416 3.27 3.27 28.417 3.002 59.5z"></path>
        <path transform="translate(0, 240) translate(30,30) rotate(180) translate(-30,-30)"
            fill="#03045e"
            d="M13.003 59.5h-3c.266-27.218 22.28-49.23 49.497-49.498v3C33.94 13.27 13.269 33.94 13.003 59.5z"></path>
        <path transform="translate(0, 240) translate(30,30) rotate(180) translate(-30,-30)"
            fill="#03045e"
            d="M23.003 59.5h-3C20.27 37.805 37.805 20.269 59.5 20.003v3c-20.038.266-36.231 16.46-36.497 36.497z"></path>
        <path transform="translate(0, 240) translate(30,30) rotate(180) translate(-30,-30)"
            fill="#03045e"
            d="M33.005 59.5h-3c.263-16.172 13.323-29.232 29.495-29.496v3c-14.515.264-26.232 11.981-26.495 26.496z"></path>
        <path transform="translate(0, 240) translate(30,30) rotate(180) translate(-30,-30)"
            fill="#03045e"
            d="M43.007 59.5h-3c.26-10.648 8.845-19.233 19.493-19.494v3.001c-8.992.26-16.233 7.502-16.493 16.493zM53.018 59.5h-3.006a10 10 0 019.488-9.488v3.006a7.001 7.001 0 00-6.482 6.482z"></path>
    </svg>
    <svg>
        <path transform="translate(0, 300) translate(30,30) rotate(90) translate(-30,-30)"
            fill="#90e0ef" fill-rule="evenodd"
            d="M5.072.5H.83L.5.83v4.242L5.072.5zM.5 19.214v-4.242L14.972.5h4.242L.5 19.214zm0 14.142v-4.242L29.114.5h4.242L.5 33.356zM.5 47.5v-4.243L43.256.5H47.5L.5 47.499zM2.64 59.5H.5v-2.102L57.398.5H59.5v2.14L2.64 59.5zm14.143 0H12.54L59.5 12.54v4.243L16.783 59.5zm14.142 0h-4.242L59.5 26.683v4.242L30.925 59.5zm14.142 0h-4.242L59.5 40.825v4.242L45.067 59.5zm14.143 0h-4.243l4.533-4.533v4.243l-.29.29z"
            clip-rule="evenodd"></path>
    </svg>
    <svg>
        <path transform="translate(0, 360) translate(30,30) rotate(0) translate(-30,-30)"
            fill="#0077b6" fill-rule="evenodd"
            d="M59.5 11.218V7.74A59.602 59.602 0 0037.782.5H22.218A59.602 59.602 0 00.5 7.74v3.478C9.106 6.002 19.202 3 30 3c10.798 0 20.894 3.002 29.5 8.218zm0 8.408A49.775 49.775 0 0030 10 49.775 49.775 0 00.5 19.626v3.783A46.803 46.803 0 0130 13a46.803 46.803 0 0129.5 10.409v-3.783zm0 13.36C52.187 25.004 41.678 20 30 20S7.813 25.004.5 32.986v4.678C7.256 28.754 17.956 23 30 23s22.744 5.755 29.5 14.664v-4.678zm0 21.53C56.923 40.567 44.696 30 30 30S3.077 40.566.5 54.517V59.5h2.505C3.27 44.819 15.255 33 30 33c14.745 0 26.729 11.819 26.995 26.5H59.5v-4.983zM49.994 59.5C49.728 48.685 40.879 40 30 40c-10.878 0-19.729 8.685-19.994 19.5h3.001C13.272 50.342 20.778 43 30 43c9.222 0 16.728 7.342 16.993 16.5h3zm-10.006 0C39.728 54.21 35.355 50 30 50c-5.355 0-9.727 4.21-9.988 9.5h3.006a7 7 0 0113.964 0h3.006z"
            clip-rule="evenodd"></path>
    </svg>
    <svg>
        <path transform="translate(0, 420) translate(30,30) rotate(270) translate(-30,-30)"
            fill="#00b4d8" fill-rule="evenodd"
            d="M5.072.5H.83L.5.83v4.242L5.072.5zM.5 19.214v-4.242L14.972.5h4.242L.5 19.214zm0 14.142v-4.242L29.114.5h4.242L.5 33.356zM.5 47.5v-4.243L43.256.5H47.5L.5 47.499zM2.64 59.5H.5v-2.102L57.398.5H59.5v2.14L2.64 59.5zm14.143 0H12.54L59.5 12.54v4.243L16.783 59.5zm14.142 0h-4.242L59.5 26.683v4.242L30.925 59.5zm14.142 0h-4.242L59.5 40.825v4.242L45.067 59.5zm14.143 0h-4.243l4.533-4.533v4.243l-.29.29z"
            clip-rule="evenodd"></path>
    </svg>
    <svg>
        <path transform="translate(0, 480) translate(30,30) rotate(180) translate(-30,-30)"
            fill="#00b4d8" fill-rule="evenodd"
            d="M8.5.5h3v59h-3V.5zM18.5.5h3v59h-3V.5zM31.5.5h-3v59h3V.5zM38.5.5h3v59h-3V.5zM51.5.5h-3v59h3V.5z"
            clip-rule="evenodd"></path>
    </svg>
    <svg>
        <path transform="translate(0, 540) translate(30,30) rotate(90) translate(-30,-30)"
            fill="#00b4d8" fill-rule="evenodd"
            d="M8.5.5h3v59h-3V.5zM18.5.5h3v59h-3V.5zM31.5.5h-3v59h3V.5zM38.5.5h3v59h-3V.5zM51.5.5h-3v59h3V.5z"
            clip-rule="evenodd"></path>
    </svg>
    <svg>
        <path transform="translate(60, 0) translate(30,30) rotate(0) translate(-30,-30)"
            fill="#90e0ef" fill-rule="evenodd"
            d="M59.5 11.218V7.74A59.602 59.602 0 0037.782.5H22.218A59.602 59.602 0 00.5 7.74v3.478C9.106 6.002 19.202 3 30 3c10.798 0 20.894 3.002 29.5 8.218zm0 8.408A49.775 49.775 0 0030 10 49.775 49.775 0 00.5 19.626v3.783A46.803 46.803 0 0130 13a46.803 46.803 0 0129.5 10.409v-3.783zm0 13.36C52.187 25.004 41.678 20 30 20S7.813 25.004.5 32.986v4.678C7.256 28.754 17.956 23 30 23s22.744 5.755 29.5 14.664v-4.678zm0 21.53C56.923 40.567 44.696 30 30 30S3.077 40.566.5 54.517V59.5h2.505C3.27 44.819 15.255 33 30 33c14.745 0 26.729 11.819 26.995 26.5H59.5v-4.983zM49.994 59.5C49.728 48.685 40.879 40 30 40c-10.878 0-19.729 8.685-19.994 19.5h3.001C13.272 50.342 20.778 43 30 43c9.222 0 16.728 7.342 16.993 16.5h3zm-10.006 0C39.728 54.21 35.355 50 30 50c-5.355 0-9.727 4.21-9.988 9.5h3.006a7 7 0 0113.964 0h3.006z"
            clip-rule="evenodd"></path>
    </svg>
    <svg>
        <path transform="translate(60, 60) translate(30,30) rotate(180) translate(-30,-30)"
            fill="#023e8a" fill-rule="evenodd"
            d="M8.5.5h3v59h-3V.5zM18.5.5h3v59h-3V.5zM31.5.5h-3v59h3V.5zM38.5.5h3v59h-3V.5zM51.5.5h-3v59h3V.5z"
            clip-rule="evenodd"></path>
    </svg>
    <svg>
        <path transform="translate(60, 120) translate(30,30) rotate(90) translate(-30,-30)"
            fill="#03045e" fill-rule="evenodd"
            d="M5.072.5H.83L.5.83v4.242L5.072.5zM.5 19.214v-4.242L14.972.5h4.242L.5 19.214zm0 14.142v-4.242L29.114.5h4.242L.5 33.356zM.5 47.5v-4.243L43.256.5H47.5L.5 47.499zM2.64 59.5H.5v-2.102L57.398.5H59.5v2.14L2.64 59.5zm14.143 0H12.54L59.5 12.54v4.243L16.783 59.5zm14.142 0h-4.242L59.5 26.683v4.242L30.925 59.5zm14.142 0h-4.242L59.5 40.825v4.242L45.067 59.5zm14.143 0h-4.243l4.533-4.533v4.243l-.29.29z"
            clip-rule="evenodd"></path>
    </svg>
    <svg>
        <path transform="translate(60, 180) translate(30,30) rotate(180) translate(-30,-30)"
            fill="#0096c7"
            d="M11.122.5h-4.6A80.499 80.499 0 00.5 6.522v4.6A77.464 77.464 0 0111.122.5zM.5 29.168v-6.061A70.364 70.364 0 0123.107.5h6.06A67.297 67.297 0 00.5 29.168z"></path>
        <path transform="translate(60, 180) translate(30,30) rotate(180) translate(-30,-30)"
            fill="#0096c7"
            d="M3.002 59.5H.5v-7.282C3.985 25.305 25.305 3.985 52.218.5H59.5v2.502C28.416 3.27 3.27 28.417 3.002 59.5z"></path>
        <path transform="translate(60, 180) translate(30,30) rotate(180) translate(-30,-30)"
            fill="#0096c7"
            d="M13.003 59.5h-3c.266-27.218 22.28-49.23 49.497-49.498v3C33.94 13.27 13.269 33.94 13.003 59.5z"></path>
        <path transform="translate(60, 180) translate(30,30) rotate(180) translate(-30,-30)"
            fill="#0096c7"
            d="M23.003 59.5h-3C20.27 37.805 37.805 20.269 59.5 20.003v3c-20.038.266-36.231 16.46-36.497 36.497z"></path>
        <path transform="translate(60, 180) translate(30,30) rotate(180) translate(-30,-30)"
            fill="#0096c7"
            d="M33.005 59.5h-3c.263-16.172 13.323-29.232 29.495-29.496v3c-14.515.264-26.232 11.981-26.495 26.496z"></path>
        <path transform="translate(60, 180) translate(30,30) rotate(180) translate(-30,-30)"
            fill="#0096c7"
            d="M43.007 59.5h-3c.26-10.648 8.845-19.233 19.493-19.494v3.001c-8.992.26-16.233 7.502-16.493 16.493zM53.018 59.5h-3.006a10 10 0 019.488-9.488v3.006a7.001 7.001 0 00-6.482 6.482z"></path>
    </svg>
    <svg>
        <path transform="translate(60, 240) translate(30,30) rotate(270) translate(-30,-30)"
            fill="#023e8a" fill-rule="evenodd"
            d="M5.072.5H.83L.5.83v4.242L5.072.5zM.5 19.214v-4.242L14.972.5h4.242L.5 19.214zm0 14.142v-4.242L29.114.5h4.242L.5 33.356zM.5 47.5v-4.243L43.256.5H47.5L.5 47.499zM2.64 59.5H.5v-2.102L57.398.5H59.5v2.14L2.64 59.5zm14.143 0H12.54L59.5 12.54v4.243L16.783 59.5zm14.142 0h-4.242L59.5 26.683v4.242L30.925 59.5zm14.142 0h-4.242L59.5 40.825v4.242L45.067 59.5zm14.143 0h-4.243l4.533-4.533v4.243l-.29.29z"
            clip-rule="evenodd"></path>
    </svg>
    <svg>
        <path transform="translate(60, 300) translate(30,30) rotate(180) translate(-30,-30)"
            fill="#90e0ef" fill-rule="evenodd"
            d="M5.072.5H.83L.5.83v4.242L5.072.5zM.5 19.214v-4.242L14.972.5h4.242L.5 19.214zm0 14.142v-4.242L29.114.5h4.242L.5 33.356zM.5 47.5v-4.243L43.256.5H47.5L.5 47.499zM2.64 59.5H.5v-2.102L57.398.5H59.5v2.14L2.64 59.5zm14.143 0H12.54L59.5 12.54v4.243L16.783 59.5zm14.142 0h-4.242L59.5 26.683v4.242L30.925 59.5zm14.142 0h-4.242L59.5 40.825v4.242L45.067 59.5zm14.143 0h-4.243l4.533-4.533v4.243l-.29.29z"
            clip-rule="evenodd"></path>
    </svg>
    <svg>
        <path transform="translate(60, 360) translate(30,30) rotate(270) translate(-30,-30)"
            fill="#90e0ef"
            d="M11.122.5h-4.6A80.499 80.499 0 00.5 6.522v4.6A77.464 77.464 0 0111.122.5zM.5 29.168v-6.061A70.364 70.364 0 0123.107.5h6.06A67.297 67.297 0 00.5 29.168z"></path>
        <path transform="translate(60, 360) translate(30,30) rotate(270) translate(-30,-30)"
            fill="#90e0ef"
            d="M3.002 59.5H.5v-7.282C3.985 25.305 25.305 3.985 52.218.5H59.5v2.502C28.416 3.27 3.27 28.417 3.002 59.5z"></path>
        <path transform="translate(60, 360) translate(30,30) rotate(270) translate(-30,-30)"
            fill="#90e0ef"
            d="M13.003 59.5h-3c.266-27.218 22.28-49.23 49.497-49.498v3C33.94 13.27 13.269 33.94 13.003 59.5z"></path>
        <path transform="translate(60, 360) translate(30,30) rotate(270) translate(-30,-30)"
            fill="#90e0ef"
            d="M23.003 59.5h-3C20.27 37.805 37.805 20.269 59.5 20.003v3c-20.038.266-36.231 16.46-36.497 36.497z"></path>
        <path transform="translate(60, 360) translate(30,30) rotate(270) translate(-30,-30)"
            fill="#90e0ef"
            d="M33.005 59.5h-3c.263-16.172 13.323-29.232 29.495-29.496v3c-14.515.264-26.232 11.981-26.495 26.496z"></path>
        <path transform="translate(60, 360) translate(30,30) rotate(270) translate(-30,-30)"
            fill="#90e0ef"
            d="M43.007 59.5h-3c.26-10.648 8.845-19.233 19.493-19.494v3.001c-8.992.26-16.233 7.502-16.493 16.493zM53.018 59.5h-3.006a10 10 0 019.488-9.488v3.006a7.001 7.001 0 00-6.482 6.482z"></path>
    </svg>
    <svg>
        <path transform="translate(60, 420) translate(30,30) rotate(0) translate(-30,-30)"
            fill="#00b4d8" fill-rule="evenodd"
            d="M8.5.5h3v59h-3V.5zM18.5.5h3v59h-3V.5zM31.5.5h-3v59h3V.5zM38.5.5h3v59h-3V.5zM51.5.5h-3v59h3V.5z"
            clip-rule="evenodd"></path>
    </svg>
    <svg>
        <path transform="translate(60, 480) translate(30,30) rotate(180) translate(-30,-30)"
            fill="#0096c7" fill-rule="evenodd"
            d="M5.072.5H.83L.5.83v4.242L5.072.5zM.5 19.214v-4.242L14.972.5h4.242L.5 19.214zm0 14.142v-4.242L29.114.5h4.242L.5 33.356zM.5 47.5v-4.243L43.256.5H47.5L.5 47.499zM2.64 59.5H.5v-2.102L57.398.5H59.5v2.14L2.64 59.5zm14.143 0H12.54L59.5 12.54v4.243L16.783 59.5zm14.142 0h-4.242L59.5 26.683v4.242L30.925 59.5zm14.142 0h-4.242L59.5 40.825v4.242L45.067 59.5zm14.143 0h-4.243l4.533-4.533v4.243l-.29.29z"
            clip-rule="evenodd"></path>
    </svg>
    <svg>
        <path transform="translate(60, 540) translate(30,30) rotate(90) translate(-30,-30)"
            fill="#ade8f4" fill-rule="evenodd"
            d="M59.5 11.218V7.74A59.602 59.602 0 0037.782.5H22.218A59.602 59.602 0 00.5 7.74v3.478C9.106 6.002 19.202 3 30 3c10.798 0 20.894 3.002 29.5 8.218zm0 8.408A49.775 49.775 0 0030 10 49.775 49.775 0 00.5 19.626v3.783A46.803 46.803 0 0130 13a46.803 46.803 0 0129.5 10.409v-3.783zm0 13.36C52.187 25.004 41.678 20 30 20S7.813 25.004.5 32.986v4.678C7.256 28.754 17.956 23 30 23s22.744 5.755 29.5 14.664v-4.678zm0 21.53C56.923 40.567 44.696 30 30 30S3.077 40.566.5 54.517V59.5h2.505C3.27 44.819 15.255 33 30 33c14.745 0 26.729 11.819 26.995 26.5H59.5v-4.983zM49.994 59.5C49.728 48.685 40.879 40 30 40c-10.878 0-19.729 8.685-19.994 19.5h3.001C13.272 50.342 20.778 43 30 43c9.222 0 16.728 7.342 16.993 16.5h3zm-10.006 0C39.728 54.21 35.355 50 30 50c-5.355 0-9.727 4.21-9.988 9.5h3.006a7 7 0 0113.964 0h3.006z"
            clip-rule="evenodd"></path>
    </svg>
    <svg>
        <path transform="translate(120, 0) translate(30,30) rotate(0) translate(-30,-30)"
            fill="#023e8a"
            d="M11.122.5h-4.6A80.499 80.499 0 00.5 6.522v4.6A77.464 77.464 0 0111.122.5zM.5 29.168v-6.061A70.364 70.364 0 0123.107.5h6.06A67.297 67.297 0 00.5 29.168z"></path>
        <path transform="translate(120, 0) translate(30,30) rotate(0) translate(-30,-30)"
            fill="#023e8a"
            d="M3.002 59.5H.5v-7.282C3.985 25.305 25.305 3.985 52.218.5H59.5v2.502C28.416 3.27 3.27 28.417 3.002 59.5z"></path>
        <path transform="translate(120, 0) translate(30,30) rotate(0) translate(-30,-30)"
            fill="#023e8a"
            d="M13.003 59.5h-3c.266-27.218 22.28-49.23 49.497-49.498v3C33.94 13.27 13.269 33.94 13.003 59.5z"></path>
        <path transform="translate(120, 0) translate(30,30) rotate(0) translate(-30,-30)"
            fill="#023e8a"
            d="M23.003 59.5h-3C20.27 37.805 37.805 20.269 59.5 20.003v3c-20.038.266-36.231 16.46-36.497 36.497z"></path>
        <path transform="translate(120, 0) translate(30,30) rotate(0) translate(-30,-30)"
            fill="#023e8a"
            d="M33.005 59.5h-3c.263-16.172 13.323-29.232 29.495-29.496v3c-14.515.264-26.232 11.981-26.495 26.496z"></path>
        <path transform="translate(120, 0) translate(30,30) rotate(0) translate(-30,-30)"
            fill="#023e8a"
            d="M43.007 59.5h-3c.26-10.648 8.845-19.233 19.493-19.494v3.001c-8.992.26-16.233 7.502-16.493 16.493zM53.018 59.5h-3.006a10 10 0 019.488-9.488v3.006a7.001 7.001 0 00-6.482 6.482z"></path>
    </svg>
    <svg>
        <path transform="translate(120, 60) translate(30,30) rotate(270) translate(-30,-30)"
            fill="#03045e" fill-rule="evenodd"
            d="M5.072.5H.83L.5.83v4.242L5.072.5zM.5 19.214v-4.242L14.972.5h4.242L.5 19.214zm0 14.142v-4.242L29.114.5h4.242L.5 33.356zM.5 47.5v-4.243L43.256.5H47.5L.5 47.499zM2.64 59.5H.5v-2.102L57.398.5H59.5v2.14L2.64 59.5zm14.143 0H12.54L59.5 12.54v4.243L16.783 59.5zm14.142 0h-4.242L59.5 26.683v4.242L30.925 59.5zm14.142 0h-4.242L59.5 40.825v4.242L45.067 59.5zm14.143 0h-4.243l4.533-4.533v4.243l-.29.29z"
            clip-rule="evenodd"></path>
    </svg>
    <svg>
        <path transform="translate(120, 120) translate(30,30) rotate(0) translate(-30,-30)"
            fill="#48cae4" fill-rule="evenodd"
            d="M5.072.5H.83L.5.83v4.242L5.072.5zM.5 19.214v-4.242L14.972.5h4.242L.5 19.214zm0 14.142v-4.242L29.114.5h4.242L.5 33.356zM.5 47.5v-4.243L43.256.5H47.5L.5 47.499zM2.64 59.5H.5v-2.102L57.398.5H59.5v2.14L2.64 59.5zm14.143 0H12.54L59.5 12.54v4.243L16.783 59.5zm14.142 0h-4.242L59.5 26.683v4.242L30.925 59.5zm14.142 0h-4.242L59.5 40.825v4.242L45.067 59.5zm14.143 0h-4.243l4.533-4.533v4.243l-.29.29z"
            clip-rule="evenodd"></path>
    </svg>
    <svg>
        <path transform="translate(120, 180) translate(30,30) rotate(180) translate(-30,-30)"
            fill="#48cae4" fill-rule="evenodd"
            d="M8.5.5h3v59h-3V.5zM18.5.5h3v59h-3V.5zM31.5.5h-3v59h3V.5zM38.5.5h3v59h-3V.5zM51.5.5h-3v59h3V.5z"
            clip-rule="evenodd"></path>
    </svg>
    <svg>
        <path transform="translate(120, 240) translate(30,30) rotate(0) translate(-30,-30)"
            fill="#00b4d8" fill-rule="evenodd"
            d="M59.5 11.218V7.74A59.602 59.602 0 0037.782.5H22.218A59.602 59.602 0 00.5 7.74v3.478C9.106 6.002 19.202 3 30 3c10.798 0 20.894 3.002 29.5 8.218zm0 8.408A49.775 49.775 0 0030 10 49.775 49.775 0 00.5 19.626v3.783A46.803 46.803 0 0130 13a46.803 46.803 0 0129.5 10.409v-3.783zm0 13.36C52.187 25.004 41.678 20 30 20S7.813 25.004.5 32.986v4.678C7.256 28.754 17.956 23 30 23s22.744 5.755 29.5 14.664v-4.678zm0 21.53C56.923 40.567 44.696 30 30 30S3.077 40.566.5 54.517V59.5h2.505C3.27 44.819 15.255 33 30 33c14.745 0 26.729 11.819 26.995 26.5H59.5v-4.983zM49.994 59.5C49.728 48.685 40.879 40 30 40c-10.878 0-19.729 8.685-19.994 19.5h3.001C13.272 50.342 20.778 43 30 43c9.222 0 16.728 7.342 16.993 16.5h3zm-10.006 0C39.728 54.21 35.355 50 30 50c-5.355 0-9.727 4.21-9.988 9.5h3.006a7 7 0 0113.964 0h3.006z"
            clip-rule="evenodd"></path>
    </svg>
    <svg>
        <path transform="translate(120, 300) translate(30,30) rotate(270) translate(-30,-30)"
            fill="#ade8f4" fill-rule="evenodd"
            d="M5.072.5H.83L.5.83v4.242L5.072.5zM.5 19.214v-4.242L14.972.5h4.242L.5 19.214zm0 14.142v-4.242L29.114.5h4.242L.5 33.356zM.5 47.5v-4.243L43.256.5H47.5L.5 47.499zM2.64 59.5H.5v-2.102L57.398.5H59.5v2.14L2.64 59.5zm14.143 0H12.54L59.5 12.54v4.243L16.783 59.5zm14.142 0h-4.242L59.5 26.683v4.242L30.925 59.5zm14.142 0h-4.242L59.5 40.825v4.242L45.067 59.5zm14.143 0h-4.243l4.533-4.533v4.243l-.29.29z"
            clip-rule="evenodd"></path>
    </svg>
    <svg>
        <path transform="translate(120, 360) translate(30,30) rotate(90) translate(-30,-30)"
            fill="#48cae4" fill-rule="evenodd"
            d="M8.5.5h3v59h-3V.5zM18.5.5h3v59h-3V.5zM31.5.5h-3v59h3V.5zM38.5.5h3v59h-3V.5zM51.5.5h-3v59h3V.5z"
            clip-rule="evenodd"></path>
    </svg>
    <svg>
        <path transform="translate(120, 420) translate(30,30) rotate(180) translate(-30,-30)"
            fill="#90e0ef" fill-rule="evenodd"
            d="M59.5 11.218V7.74A59.602 59.602 0 0037.782.5H22.218A59.602 59.602 0 00.5 7.74v3.478C9.106 6.002 19.202 3 30 3c10.798 0 20.894 3.002 29.5 8.218zm0 8.408A49.775 49.775 0 0030 10 49.775 49.775 0 00.5 19.626v3.783A46.803 46.803 0 0130 13a46.803 46.803 0 0129.5 10.409v-3.783zm0 13.36C52.187 25.004 41.678 20 30 20S7.813 25.004.5 32.986v4.678C7.256 28.754 17.956 23 30 23s22.744 5.755 29.5 14.664v-4.678zm0 21.53C56.923 40.567 44.696 30 30 30S3.077 40.566.5 54.517V59.5h2.505C3.27 44.819 15.255 33 30 33c14.745 0 26.729 11.819 26.995 26.5H59.5v-4.983zM49.994 59.5C49.728 48.685 40.879 40 30 40c-10.878 0-19.729 8.685-19.994 19.5h3.001C13.272 50.342 20.778 43 30 43c9.222 0 16.728 7.342 16.993 16.5h3zm-10.006 0C39.728 54.21 35.355 50 30 50c-5.355 0-9.727 4.21-9.988 9.5h3.006a7 7 0 0113.964 0h3.006z"
            clip-rule="evenodd"></path>
    </svg>
    <svg>
        <path transform="translate(120, 480) translate(30,30) rotate(270) translate(-30,-30)"
            fill="#90e0ef" fill-rule="evenodd"
            d="M8.5.5h3v59h-3V.5zM18.5.5h3v59h-3V.5zM31.5.5h-3v59h3V.5zM38.5.5h3v59h-3V.5zM51.5.5h-3v59h3V.5z"
            clip-rule="evenodd"></path>
    </svg>
    <svg>
        <path transform="translate(120, 540) translate(30,30) rotate(270) translate(-30,-30)"
            fill="#ade8f4" fill-rule="evenodd"
            d="M8.5.5h3v59h-3V.5zM18.5.5h3v59h-3V.5zM31.5.5h-3v59h3V.5zM38.5.5h3v59h-3V.5zM51.5.5h-3v59h3V.5z"
            clip-rule="evenodd"></path>
    </svg>
    <svg>
        <path transform="translate(180, 0) translate(30,30) rotate(180) translate(-30,-30)"
            fill="#023e8a" fill-rule="evenodd"
            d="M59.5 11.218V7.74A59.602 59.602 0 0037.782.5H22.218A59.602 59.602 0 00.5 7.74v3.478C9.106 6.002 19.202 3 30 3c10.798 0 20.894 3.002 29.5 8.218zm0 8.408A49.775 49.775 0 0030 10 49.775 49.775 0 00.5 19.626v3.783A46.803 46.803 0 0130 13a46.803 46.803 0 0129.5 10.409v-3.783zm0 13.36C52.187 25.004 41.678 20 30 20S7.813 25.004.5 32.986v4.678C7.256 28.754 17.956 23 30 23s22.744 5.755 29.5 14.664v-4.678zm0 21.53C56.923 40.567 44.696 30 30 30S3.077 40.566.5 54.517V59.5h2.505C3.27 44.819 15.255 33 30 33c14.745 0 26.729 11.819 26.995 26.5H59.5v-4.983zM49.994 59.5C49.728 48.685 40.879 40 30 40c-10.878 0-19.729 8.685-19.994 19.5h3.001C13.272 50.342 20.778 43 30 43c9.222 0 16.728 7.342 16.993 16.5h3zm-10.006 0C39.728 54.21 35.355 50 30 50c-5.355 0-9.727 4.21-9.988 9.5h3.006a7 7 0 0113.964 0h3.006z"
            clip-rule="evenodd"></path>
    </svg>
    <svg>
        <path transform="translate(180, 60) translate(30,30) rotate(180) translate(-30,-30)"
            fill="#023e8a" fill-rule="evenodd"
            d="M59.5 11.218V7.74A59.602 59.602 0 0037.782.5H22.218A59.602 59.602 0 00.5 7.74v3.478C9.106 6.002 19.202 3 30 3c10.798 0 20.894 3.002 29.5 8.218zm0 8.408A49.775 49.775 0 0030 10 49.775 49.775 0 00.5 19.626v3.783A46.803 46.803 0 0130 13a46.803 46.803 0 0129.5 10.409v-3.783zm0 13.36C52.187 25.004 41.678 20 30 20S7.813 25.004.5 32.986v4.678C7.256 28.754 17.956 23 30 23s22.744 5.755 29.5 14.664v-4.678zm0 21.53C56.923 40.567 44.696 30 30 30S3.077 40.566.5 54.517V59.5h2.505C3.27 44.819 15.255 33 30 33c14.745 0 26.729 11.819 26.995 26.5H59.5v-4.983zM49.994 59.5C49.728 48.685 40.879 40 30 40c-10.878 0-19.729 8.685-19.994 19.5h3.001C13.272 50.342 20.778 43 30 43c9.222 0 16.728 7.342 16.993 16.5h3zm-10.006 0C39.728 54.21 35.355 50 30 50c-5.355 0-9.727 4.21-9.988 9.5h3.006a7 7 0 0113.964 0h3.006z"
            clip-rule="evenodd"></path>
    </svg>
    <svg>
        <path transform="translate(180, 120) translate(30,30) rotate(0) translate(-30,-30)"
            fill="#48cae4" fill-rule="evenodd"
            d="M8.5.5h3v59h-3V.5zM18.5.5h3v59h-3V.5zM31.5.5h-3v59h3V.5zM38.5.5h3v59h-3V.5zM51.5.5h-3v59h3V.5z"
            clip-rule="evenodd"></path>
    </svg>
    <svg>
        <path transform="translate(180, 180) translate(30,30) rotate(180) translate(-30,-30)"
            fill="#48cae4" fill-rule="evenodd"
            d="M5.072.5H.83L.5.83v4.242L5.072.5zM.5 19.214v-4.242L14.972.5h4.242L.5 19.214zm0 14.142v-4.242L29.114.5h4.242L.5 33.356zM.5 47.5v-4.243L43.256.5H47.5L.5 47.499zM2.64 59.5H.5v-2.102L57.398.5H59.5v2.14L2.64 59.5zm14.143 0H12.54L59.5 12.54v4.243L16.783 59.5zm14.142 0h-4.242L59.5 26.683v4.242L30.925 59.5zm14.142 0h-4.242L59.5 40.825v4.242L45.067 59.5zm14.143 0h-4.243l4.533-4.533v4.243l-.29.29z"
            clip-rule="evenodd"></path>
    </svg>
    <svg>
        <path transform="translate(180, 240) translate(30,30) rotate(180) translate(-30,-30)"
            fill="#00b4d8" fill-rule="evenodd"
            d="M8.5.5h3v59h-3V.5zM18.5.5h3v59h-3V.5zM31.5.5h-3v59h3V.5zM38.5.5h3v59h-3V.5zM51.5.5h-3v59h3V.5z"
            clip-rule="evenodd"></path>
    </svg>
    <svg>
        <path transform="translate(180, 300) translate(30,30) rotate(180) translate(-30,-30)"
            fill="#48cae4" fill-rule="evenodd"
            d="M8.5.5h3v59h-3V.5zM18.5.5h3v59h-3V.5zM31.5.5h-3v59h3V.5zM38.5.5h3v59h-3V.5zM51.5.5h-3v59h3V.5z"
            clip-rule="evenodd"></path>
    </svg>
    <svg>
        <path transform="translate(180, 360) translate(30,30) rotate(270) translate(-30,-30)"
            fill="#0077b6" fill-rule="evenodd"
            d="M59.5 11.218V7.74A59.602 59.602 0 0037.782.5H22.218A59.602 59.602 0 00.5 7.74v3.478C9.106 6.002 19.202 3 30 3c10.798 0 20.894 3.002 29.5 8.218zm0 8.408A49.775 49.775 0 0030 10 49.775 49.775 0 00.5 19.626v3.783A46.803 46.803 0 0130 13a46.803 46.803 0 0129.5 10.409v-3.783zm0 13.36C52.187 25.004 41.678 20 30 20S7.813 25.004.5 32.986v4.678C7.256 28.754 17.956 23 30 23s22.744 5.755 29.5 14.664v-4.678zm0 21.53C56.923 40.567 44.696 30 30 30S3.077 40.566.5 54.517V59.5h2.505C3.27 44.819 15.255 33 30 33c14.745 0 26.729 11.819 26.995 26.5H59.5v-4.983zM49.994 59.5C49.728 48.685 40.879 40 30 40c-10.878 0-19.729 8.685-19.994 19.5h3.001C13.272 50.342 20.778 43 30 43c9.222 0 16.728 7.342 16.993 16.5h3zm-10.006 0C39.728 54.21 35.355 50 30 50c-5.355 0-9.727 4.21-9.988 9.5h3.006a7 7 0 0113.964 0h3.006z"
            clip-rule="evenodd"></path>
    </svg>
    <svg>
        <path transform="translate(180, 420) translate(30,30) rotate(90) translate(-30,-30)"
            fill="#ade8f4" fill-rule="evenodd"
            d="M5.072.5H.83L.5.83v4.242L5.072.5zM.5 19.214v-4.242L14.972.5h4.242L.5 19.214zm0 14.142v-4.242L29.114.5h4.242L.5 33.356zM.5 47.5v-4.243L43.256.5H47.5L.5 47.499zM2.64 59.5H.5v-2.102L57.398.5H59.5v2.14L2.64 59.5zm14.143 0H12.54L59.5 12.54v4.243L16.783 59.5zm14.142 0h-4.242L59.5 26.683v4.242L30.925 59.5zm14.142 0h-4.242L59.5 40.825v4.242L45.067 59.5zm14.143 0h-4.243l4.533-4.533v4.243l-.29.29z"
            clip-rule="evenodd"></path>
    </svg>
    <svg>
        <path transform="translate(180, 480) translate(30,30) rotate(90) translate(-30,-30)"
            fill="#00b4d8" fill-rule="evenodd"
            d="M8.5.5h3v59h-3V.5zM18.5.5h3v59h-3V.5zM31.5.5h-3v59h3V.5zM38.5.5h3v59h-3V.5zM51.5.5h-3v59h3V.5z"
            clip-rule="evenodd"></path>
    </svg>
    <svg>
        <path transform="translate(180, 540) translate(30,30) rotate(0) translate(-30,-30)"
            fill="#00b4d8" fill-rule="evenodd"
            d="M59.5 11.218V7.74A59.602 59.602 0 0037.782.5H22.218A59.602 59.602 0 00.5 7.74v3.478C9.106 6.002 19.202 3 30 3c10.798 0 20.894 3.002 29.5 8.218zm0 8.408A49.775 49.775 0 0030 10 49.775 49.775 0 00.5 19.626v3.783A46.803 46.803 0 0130 13a46.803 46.803 0 0129.5 10.409v-3.783zm0 13.36C52.187 25.004 41.678 20 30 20S7.813 25.004.5 32.986v4.678C7.256 28.754 17.956 23 30 23s22.744 5.755 29.5 14.664v-4.678zm0 21.53C56.923 40.567 44.696 30 30 30S3.077 40.566.5 54.517V59.5h2.505C3.27 44.819 15.255 33 30 33c14.745 0 26.729 11.819 26.995 26.5H59.5v-4.983zM49.994 59.5C49.728 48.685 40.879 40 30 40c-10.878 0-19.729 8.685-19.994 19.5h3.001C13.272 50.342 20.778 43 30 43c9.222 0 16.728 7.342 16.993 16.5h3zm-10.006 0C39.728 54.21 35.355 50 30 50c-5.355 0-9.727 4.21-9.988 9.5h3.006a7 7 0 0113.964 0h3.006z"
            clip-rule="evenodd"></path>
    </svg>
    <svg>
        <path transform="translate(240, 0) translate(30,30) rotate(180) translate(-30,-30)"
            fill="#03045e" fill-rule="evenodd"
            d="M5.072.5H.83L.5.83v4.242L5.072.5zM.5 19.214v-4.242L14.972.5h4.242L.5 19.214zm0 14.142v-4.242L29.114.5h4.242L.5 33.356zM.5 47.5v-4.243L43.256.5H47.5L.5 47.499zM2.64 59.5H.5v-2.102L57.398.5H59.5v2.14L2.64 59.5zm14.143 0H12.54L59.5 12.54v4.243L16.783 59.5zm14.142 0h-4.242L59.5 26.683v4.242L30.925 59.5zm14.142 0h-4.242L59.5 40.825v4.242L45.067 59.5zm14.143 0h-4.243l4.533-4.533v4.243l-.29.29z"
            clip-rule="evenodd"></path>
    </svg>
    <svg>
        <path transform="translate(240, 60) translate(30,30) rotate(270) translate(-30,-30)"
            fill="#00b4d8" fill-rule="evenodd"
            d="M59.5 11.218V7.74A59.602 59.602 0 0037.782.5H22.218A59.602 59.602 0 00.5 7.74v3.478C9.106 6.002 19.202 3 30 3c10.798 0 20.894 3.002 29.5 8.218zm0 8.408A49.775 49.775 0 0030 10 49.775 49.775 0 00.5 19.626v3.783A46.803 46.803 0 0130 13a46.803 46.803 0 0129.5 10.409v-3.783zm0 13.36C52.187 25.004 41.678 20 30 20S7.813 25.004.5 32.986v4.678C7.256 28.754 17.956 23 30 23s22.744 5.755 29.5 14.664v-4.678zm0 21.53C56.923 40.567 44.696 30 30 30S3.077 40.566.5 54.517V59.5h2.505C3.27 44.819 15.255 33 30 33c14.745 0 26.729 11.819 26.995 26.5H59.5v-4.983zM49.994 59.5C49.728 48.685 40.879 40 30 40c-10.878 0-19.729 8.685-19.994 19.5h3.001C13.272 50.342 20.778 43 30 43c9.222 0 16.728 7.342 16.993 16.5h3zm-10.006 0C39.728 54.21 35.355 50 30 50c-5.355 0-9.727 4.21-9.988 9.5h3.006a7 7 0 0113.964 0h3.006z"
            clip-rule="evenodd"></path>
    </svg>
    <svg>
        <path transform="translate(240, 120) translate(30,30) rotate(180) translate(-30,-30)"
            fill="#90e0ef" fill-rule="evenodd"
            d="M59.5 11.218V7.74A59.602 59.602 0 0037.782.5H22.218A59.602 59.602 0 00.5 7.74v3.478C9.106 6.002 19.202 3 30 3c10.798 0 20.894 3.002 29.5 8.218zm0 8.408A49.775 49.775 0 0030 10 49.775 49.775 0 00.5 19.626v3.783A46.803 46.803 0 0130 13a46.803 46.803 0 0129.5 10.409v-3.783zm0 13.36C52.187 25.004 41.678 20 30 20S7.813 25.004.5 32.986v4.678C7.256 28.754 17.956 23 30 23s22.744 5.755 29.5 14.664v-4.678zm0 21.53C56.923 40.567 44.696 30 30 30S3.077 40.566.5 54.517V59.5h2.505C3.27 44.819 15.255 33 30 33c14.745 0 26.729 11.819 26.995 26.5H59.5v-4.983zM49.994 59.5C49.728 48.685 40.879 40 30 40c-10.878 0-19.729 8.685-19.994 19.5h3.001C13.272 50.342 20.778 43 30 43c9.222 0 16.728 7.342 16.993 16.5h3zm-10.006 0C39.728 54.21 35.355 50 30 50c-5.355 0-9.727 4.21-9.988 9.5h3.006a7 7 0 0113.964 0h3.006z"
            clip-rule="evenodd"></path>
    </svg>
    <svg>
        <path transform="translate(240, 180) translate(30,30) rotate(270) translate(-30,-30)"
            fill="#00b4d8" fill-rule="evenodd"
            d="M5.072.5H.83L.5.83v4.242L5.072.5zM.5 19.214v-4.242L14.972.5h4.242L.5 19.214zm0 14.142v-4.242L29.114.5h4.242L.5 33.356zM.5 47.5v-4.243L43.256.5H47.5L.5 47.499zM2.64 59.5H.5v-2.102L57.398.5H59.5v2.14L2.64 59.5zm14.143 0H12.54L59.5 12.54v4.243L16.783 59.5zm14.142 0h-4.242L59.5 26.683v4.242L30.925 59.5zm14.142 0h-4.242L59.5 40.825v4.242L45.067 59.5zm14.143 0h-4.243l4.533-4.533v4.243l-.29.29z"
            clip-rule="evenodd"></path>
    </svg>
    <svg>
        <path transform="translate(240, 240) translate(30,30) rotate(0) translate(-30,-30)"
            fill="#00b4d8"
            d="M11.122.5h-4.6A80.499 80.499 0 00.5 6.522v4.6A77.464 77.464 0 0111.122.5zM.5 29.168v-6.061A70.364 70.364 0 0123.107.5h6.06A67.297 67.297 0 00.5 29.168z"></path>
        <path transform="translate(240, 240) translate(30,30) rotate(0) translate(-30,-30)"
            fill="#00b4d8"
            d="M3.002 59.5H.5v-7.282C3.985 25.305 25.305 3.985 52.218.5H59.5v2.502C28.416 3.27 3.27 28.417 3.002 59.5z"></path>
        <path transform="translate(240, 240) translate(30,30) rotate(0) translate(-30,-30)"
            fill="#00b4d8"
            d="M13.003 59.5h-3c.266-27.218 22.28-49.23 49.497-49.498v3C33.94 13.27 13.269 33.94 13.003 59.5z"></path>
        <path transform="translate(240, 240) translate(30,30) rotate(0) translate(-30,-30)"
            fill="#00b4d8"
            d="M23.003 59.5h-3C20.27 37.805 37.805 20.269 59.5 20.003v3c-20.038.266-36.231 16.46-36.497 36.497z"></path>
        <path transform="translate(240, 240) translate(30,30) rotate(0) translate(-30,-30)"
            fill="#00b4d8"
            d="M33.005 59.5h-3c.263-16.172 13.323-29.232 29.495-29.496v3c-14.515.264-26.232 11.981-26.495 26.496z"></path>
        <path transform="translate(240, 240) translate(30,30) rotate(0) translate(-30,-30)"
            fill="#00b4d8"
            d="M43.007 59.5h-3c.26-10.648 8.845-19.233 19.493-19.494v3.001c-8.992.26-16.233 7.502-16.493 16.493zM53.018 59.5h-3.006a10 10 0 019.488-9.488v3.006a7.001 7.001 0 00-6.482 6.482z"></path>
    </svg>
    <svg>
        <path transform="translate(240, 300) translate(30,30) rotate(0) translate(-30,-30)"
            fill="#90e0ef" fill-rule="evenodd"
            d="M8.5.5h3v59h-3V.5zM18.5.5h3v59h-3V.5zM31.5.5h-3v59h3V.5zM38.5.5h3v59h-3V.5zM51.5.5h-3v59h3V.5z"
            clip-rule="evenodd"></path>
    </svg>
    <svg>
        <path transform="translate(240, 360) translate(30,30) rotate(270) translate(-30,-30)"
            fill="#ade8f4" fill-rule="evenodd"
            d="M8.5.5h3v59h-3V.5zM18.5.5h3v59h-3V.5zM31.5.5h-3v59h3V.5zM38.5.5h3v59h-3V.5zM51.5.5h-3v59h3V.5z"
            clip-rule="evenodd"></path>
    </svg>
    <svg>
        <path transform="translate(240, 420) translate(30,30) rotate(180) translate(-30,-30)"
            fill="#0096c7"
            d="M11.122.5h-4.6A80.499 80.499 0 00.5 6.522v4.6A77.464 77.464 0 0111.122.5zM.5 29.168v-6.061A70.364 70.364 0 0123.107.5h6.06A67.297 67.297 0 00.5 29.168z"></path>
        <path transform="translate(240, 420) translate(30,30) rotate(180) translate(-30,-30)"
            fill="#0096c7"
            d="M3.002 59.5H.5v-7.282C3.985 25.305 25.305 3.985 52.218.5H59.5v2.502C28.416 3.27 3.27 28.417 3.002 59.5z"></path>
        <path transform="translate(240, 420) translate(30,30) rotate(180) translate(-30,-30)"
            fill="#0096c7"
            d="M13.003 59.5h-3c.266-27.218 22.28-49.23 49.497-49.498v3C33.94 13.27 13.269 33.94 13.003 59.5z"></path>
        <path transform="translate(240, 420) translate(30,30) rotate(180) translate(-30,-30)"
            fill="#0096c7"
            d="M23.003 59.5h-3C20.27 37.805 37.805 20.269 59.5 20.003v3c-20.038.266-36.231 16.46-36.497 36.497z"></path>
        <path transform="translate(240, 420) translate(30,30) rotate(180) translate(-30,-30)"
            fill="#0096c7"
            d="M33.005 59.5h-3c.263-16.172 13.323-29.232 29.495-29.496v3c-14.515.264-26.232 11.981-26.495 26.496z"></path>
        <path transform="translate(240, 420) translate(30,30) rotate(180) translate(-30,-30)"
            fill="#0096c7"
            d="M43.007 59.5h-3c.26-10.648 8.845-19.233 19.493-19.494v3.001c-8.992.26-16.233 7.502-16.493 16.493zM53.018 59.5h-3.006a10 10 0 019.488-9.488v3.006a7.001 7.001 0 00-6.482 6.482z"></path>
    </svg>
    <svg>
        <path transform="translate(240, 480) translate(30,30) rotate(90) translate(-30,-30)"
            fill="#0077b6" fill-rule="evenodd"
            d="M59.5 11.218V7.74A59.602 59.602 0 0037.782.5H22.218A59.602 59.602 0 00.5 7.74v3.478C9.106 6.002 19.202 3 30 3c10.798 0 20.894 3.002 29.5 8.218zm0 8.408A49.775 49.775 0 0030 10 49.775 49.775 0 00.5 19.626v3.783A46.803 46.803 0 0130 13a46.803 46.803 0 0129.5 10.409v-3.783zm0 13.36C52.187 25.004 41.678 20 30 20S7.813 25.004.5 32.986v4.678C7.256 28.754 17.956 23 30 23s22.744 5.755 29.5 14.664v-4.678zm0 21.53C56.923 40.567 44.696 30 30 30S3.077 40.566.5 54.517V59.5h2.505C3.27 44.819 15.255 33 30 33c14.745 0 26.729 11.819 26.995 26.5H59.5v-4.983zM49.994 59.5C49.728 48.685 40.879 40 30 40c-10.878 0-19.729 8.685-19.994 19.5h3.001C13.272 50.342 20.778 43 30 43c9.222 0 16.728 7.342 16.993 16.5h3zm-10.006 0C39.728 54.21 35.355 50 30 50c-5.355 0-9.727 4.21-9.988 9.5h3.006a7 7 0 0113.964 0h3.006z"
            clip-rule="evenodd"></path>
    </svg>
    <svg>
        <path transform="translate(240, 540) translate(30,30) rotate(0) translate(-30,-30)"
            fill="#023e8a" fill-rule="evenodd"
            d="M59.5 11.218V7.74A59.602 59.602 0 0037.782.5H22.218A59.602 59.602 0 00.5 7.74v3.478C9.106 6.002 19.202 3 30 3c10.798 0 20.894 3.002 29.5 8.218zm0 8.408A49.775 49.775 0 0030 10 49.775 49.775 0 00.5 19.626v3.783A46.803 46.803 0 0130 13a46.803 46.803 0 0129.5 10.409v-3.783zm0 13.36C52.187 25.004 41.678 20 30 20S7.813 25.004.5 32.986v4.678C7.256 28.754 17.956 23 30 23s22.744 5.755 29.5 14.664v-4.678zm0 21.53C56.923 40.567 44.696 30 30 30S3.077 40.566.5 54.517V59.5h2.505C3.27 44.819 15.255 33 30 33c14.745 0 26.729 11.819 26.995 26.5H59.5v-4.983zM49.994 59.5C49.728 48.685 40.879 40 30 40c-10.878 0-19.729 8.685-19.994 19.5h3.001C13.272 50.342 20.778 43 30 43c9.222 0 16.728 7.342 16.993 16.5h3zm-10.006 0C39.728 54.21 35.355 50 30 50c-5.355 0-9.727 4.21-9.988 9.5h3.006a7 7 0 0113.964 0h3.006z"
            clip-rule="evenodd"></path>
    </svg>
    <svg>
        <path transform="translate(300, 0) translate(30,30) rotate(90) translate(-30,-30)"
            fill="#48cae4"
            d="M11.122.5h-4.6A80.499 80.499 0 00.5 6.522v4.6A77.464 77.464 0 0111.122.5zM.5 29.168v-6.061A70.364 70.364 0 0123.107.5h6.06A67.297 67.297 0 00.5 29.168z"></path>
        <path transform="translate(300, 0) translate(30,30) rotate(90) translate(-30,-30)"
            fill="#48cae4"
            d="M3.002 59.5H.5v-7.282C3.985 25.305 25.305 3.985 52.218.5H59.5v2.502C28.416 3.27 3.27 28.417 3.002 59.5z"></path>
        <path transform="translate(300, 0) translate(30,30) rotate(90) translate(-30,-30)"
            fill="#48cae4"
            d="M13.003 59.5h-3c.266-27.218 22.28-49.23 49.497-49.498v3C33.94 13.27 13.269 33.94 13.003 59.5z"></path>
        <path transform="translate(300, 0) translate(30,30) rotate(90) translate(-30,-30)"
            fill="#48cae4"
            d="M23.003 59.5h-3C20.27 37.805 37.805 20.269 59.5 20.003v3c-20.038.266-36.231 16.46-36.497 36.497z"></path>
        <path transform="translate(300, 0) translate(30,30) rotate(90) translate(-30,-30)"
            fill="#48cae4"
            d="M33.005 59.5h-3c.263-16.172 13.323-29.232 29.495-29.496v3c-14.515.264-26.232 11.981-26.495 26.496z"></path>
        <path transform="translate(300, 0) translate(30,30) rotate(90) translate(-30,-30)"
            fill="#48cae4"
            d="M43.007 59.5h-3c.26-10.648 8.845-19.233 19.493-19.494v3.001c-8.992.26-16.233 7.502-16.493 16.493zM53.018 59.5h-3.006a10 10 0 019.488-9.488v3.006a7.001 7.001 0 00-6.482 6.482z"></path>
    </svg>
    <svg>
        <path transform="translate(300, 60) translate(30,30) rotate(270) translate(-30,-30)"
            fill="#023e8a" fill-rule="evenodd"
            d="M59.5 11.218V7.74A59.602 59.602 0 0037.782.5H22.218A59.602 59.602 0 00.5 7.74v3.478C9.106 6.002 19.202 3 30 3c10.798 0 20.894 3.002 29.5 8.218zm0 8.408A49.775 49.775 0 0030 10 49.775 49.775 0 00.5 19.626v3.783A46.803 46.803 0 0130 13a46.803 46.803 0 0129.5 10.409v-3.783zm0 13.36C52.187 25.004 41.678 20 30 20S7.813 25.004.5 32.986v4.678C7.256 28.754 17.956 23 30 23s22.744 5.755 29.5 14.664v-4.678zm0 21.53C56.923 40.567 44.696 30 30 30S3.077 40.566.5 54.517V59.5h2.505C3.27 44.819 15.255 33 30 33c14.745 0 26.729 11.819 26.995 26.5H59.5v-4.983zM49.994 59.5C49.728 48.685 40.879 40 30 40c-10.878 0-19.729 8.685-19.994 19.5h3.001C13.272 50.342 20.778 43 30 43c9.222 0 16.728 7.342 16.993 16.5h3zm-10.006 0C39.728 54.21 35.355 50 30 50c-5.355 0-9.727 4.21-9.988 9.5h3.006a7 7 0 0113.964 0h3.006z"
            clip-rule="evenodd"></path>
    </svg>
    <svg>
        <path transform="translate(300, 120) translate(30,30) rotate(90) translate(-30,-30)"
            fill="#ade8f4" fill-rule="evenodd"
            d="M8.5.5h3v59h-3V.5zM18.5.5h3v59h-3V.5zM31.5.5h-3v59h3V.5zM38.5.5h3v59h-3V.5zM51.5.5h-3v59h3V.5z"
            clip-rule="evenodd"></path>
    </svg>
    <svg>
        <path transform="translate(300, 180) translate(30,30) rotate(180) translate(-30,-30)"
            fill="#90e0ef" fill-rule="evenodd"
            d="M59.5 11.218V7.74A59.602 59.602 0 0037.782.5H22.218A59.602 59.602 0 00.5 7.74v3.478C9.106 6.002 19.202 3 30 3c10.798 0 20.894 3.002 29.5 8.218zm0 8.408A49.775 49.775 0 0030 10 49.775 49.775 0 00.5 19.626v3.783A46.803 46.803 0 0130 13a46.803 46.803 0 0129.5 10.409v-3.783zm0 13.36C52.187 25.004 41.678 20 30 20S7.813 25.004.5 32.986v4.678C7.256 28.754 17.956 23 30 23s22.744 5.755 29.5 14.664v-4.678zm0 21.53C56.923 40.567 44.696 30 30 30S3.077 40.566.5 54.517V59.5h2.505C3.27 44.819 15.255 33 30 33c14.745 0 26.729 11.819 26.995 26.5H59.5v-4.983zM49.994 59.5C49.728 48.685 40.879 40 30 40c-10.878 0-19.729 8.685-19.994 19.5h3.001C13.272 50.342 20.778 43 30 43c9.222 0 16.728 7.342 16.993 16.5h3zm-10.006 0C39.728 54.21 35.355 50 30 50c-5.355 0-9.727 4.21-9.988 9.5h3.006a7 7 0 0113.964 0h3.006z"
            clip-rule="evenodd"></path>
    </svg>
    <svg>
        <path transform="translate(300, 240) translate(30,30) rotate(0) translate(-30,-30)"
            fill="#0077b6" fill-rule="evenodd"
            d="M5.072.5H.83L.5.83v4.242L5.072.5zM.5 19.214v-4.242L14.972.5h4.242L.5 19.214zm0 14.142v-4.242L29.114.5h4.242L.5 33.356zM.5 47.5v-4.243L43.256.5H47.5L.5 47.499zM2.64 59.5H.5v-2.102L57.398.5H59.5v2.14L2.64 59.5zm14.143 0H12.54L59.5 12.54v4.243L16.783 59.5zm14.142 0h-4.242L59.5 26.683v4.242L30.925 59.5zm14.142 0h-4.242L59.5 40.825v4.242L45.067 59.5zm14.143 0h-4.243l4.533-4.533v4.243l-.29.29z"
            clip-rule="evenodd"></path>
    </svg>
    <svg>
        <path transform="translate(300, 300) translate(30,30) rotate(180) translate(-30,-30)"
            fill="#0077b6" fill-rule="evenodd"
            d="M5.072.5H.83L.5.83v4.242L5.072.5zM.5 19.214v-4.242L14.972.5h4.242L.5 19.214zm0 14.142v-4.242L29.114.5h4.242L.5 33.356zM.5 47.5v-4.243L43.256.5H47.5L.5 47.499zM2.64 59.5H.5v-2.102L57.398.5H59.5v2.14L2.64 59.5zm14.143 0H12.54L59.5 12.54v4.243L16.783 59.5zm14.142 0h-4.242L59.5 26.683v4.242L30.925 59.5zm14.142 0h-4.242L59.5 40.825v4.242L45.067 59.5zm14.143 0h-4.243l4.533-4.533v4.243l-.29.29z"
            clip-rule="evenodd"></path>
    </svg>
    <svg>
        <path transform="translate(300, 360) translate(30,30) rotate(0) translate(-30,-30)"
            fill="#48cae4" fill-rule="evenodd"
            d="M5.072.5H.83L.5.83v4.242L5.072.5zM.5 19.214v-4.242L14.972.5h4.242L.5 19.214zm0 14.142v-4.242L29.114.5h4.242L.5 33.356zM.5 47.5v-4.243L43.256.5H47.5L.5 47.499zM2.64 59.5H.5v-2.102L57.398.5H59.5v2.14L2.64 59.5zm14.143 0H12.54L59.5 12.54v4.243L16.783 59.5zm14.142 0h-4.242L59.5 26.683v4.242L30.925 59.5zm14.142 0h-4.242L59.5 40.825v4.242L45.067 59.5zm14.143 0h-4.243l4.533-4.533v4.243l-.29.29z"
            clip-rule="evenodd"></path>
    </svg>
    <svg>
        <path transform="translate(300, 420) translate(30,30) rotate(0) translate(-30,-30)"
            fill="#0077b6" fill-rule="evenodd"
            d="M8.5.5h3v59h-3V.5zM18.5.5h3v59h-3V.5zM31.5.5h-3v59h3V.5zM38.5.5h3v59h-3V.5zM51.5.5h-3v59h3V.5z"
            clip-rule="evenodd"></path>
    </svg>
    <svg>
        <path transform="translate(300, 480) translate(30,30) rotate(90) translate(-30,-30)"
            fill="#caf0f8" fill-rule="evenodd"
            d="M8.5.5h3v59h-3V.5zM18.5.5h3v59h-3V.5zM31.5.5h-3v59h3V.5zM38.5.5h3v59h-3V.5zM51.5.5h-3v59h3V.5z"
            clip-rule="evenodd"></path>
    </svg>
    <svg>
        <path transform="translate(300, 540) translate(30,30) rotate(180) translate(-30,-30)"
            fill="#00b4d8" fill-rule="evenodd"
            d="M8.5.5h3v59h-3V.5zM18.5.5h3v59h-3V.5zM31.5.5h-3v59h3V.5zM38.5.5h3v59h-3V.5zM51.5.5h-3v59h3V.5z"
            clip-rule="evenodd"></path>
    </svg>
    <svg>
        <path transform="translate(360, 0) translate(30,30) rotate(180) translate(-30,-30)"
            fill="#0096c7"
            d="M11.122.5h-4.6A80.499 80.499 0 00.5 6.522v4.6A77.464 77.464 0 0111.122.5zM.5 29.168v-6.061A70.364 70.364 0 0123.107.5h6.06A67.297 67.297 0 00.5 29.168z"></path>
        <path transform="translate(360, 0) translate(30,30) rotate(180) translate(-30,-30)"
            fill="#0096c7"
            d="M3.002 59.5H.5v-7.282C3.985 25.305 25.305 3.985 52.218.5H59.5v2.502C28.416 3.27 3.27 28.417 3.002 59.5z"></path>
        <path transform="translate(360, 0) translate(30,30) rotate(180) translate(-30,-30)"
            fill="#0096c7"
            d="M13.003 59.5h-3c.266-27.218 22.28-49.23 49.497-49.498v3C33.94 13.27 13.269 33.94 13.003 59.5z"></path>
        <path transform="translate(360, 0) translate(30,30) rotate(180) translate(-30,-30)"
            fill="#0096c7"
            d="M23.003 59.5h-3C20.27 37.805 37.805 20.269 59.5 20.003v3c-20.038.266-36.231 16.46-36.497 36.497z"></path>
        <path transform="translate(360, 0) translate(30,30) rotate(180) translate(-30,-30)"
            fill="#0096c7"
            d="M33.005 59.5h-3c.263-16.172 13.323-29.232 29.495-29.496v3c-14.515.264-26.232 11.981-26.495 26.496z"></path>
        <path transform="translate(360, 0) translate(30,30) rotate(180) translate(-30,-30)"
            fill="#0096c7"
            d="M43.007 59.5h-3c.26-10.648 8.845-19.233 19.493-19.494v3.001c-8.992.26-16.233 7.502-16.493 16.493zM53.018 59.5h-3.006a10 10 0 019.488-9.488v3.006a7.001 7.001 0 00-6.482 6.482z"></path>
    </svg>
    <svg>
        <path transform="translate(360, 60) translate(30,30) rotate(180) translate(-30,-30)"
            fill="#0077b6" fill-rule="evenodd"
            d="M59.5 11.218V7.74A59.602 59.602 0 0037.782.5H22.218A59.602 59.602 0 00.5 7.74v3.478C9.106 6.002 19.202 3 30 3c10.798 0 20.894 3.002 29.5 8.218zm0 8.408A49.775 49.775 0 0030 10 49.775 49.775 0 00.5 19.626v3.783A46.803 46.803 0 0130 13a46.803 46.803 0 0129.5 10.409v-3.783zm0 13.36C52.187 25.004 41.678 20 30 20S7.813 25.004.5 32.986v4.678C7.256 28.754 17.956 23 30 23s22.744 5.755 29.5 14.664v-4.678zm0 21.53C56.923 40.567 44.696 30 30 30S3.077 40.566.5 54.517V59.5h2.505C3.27 44.819 15.255 33 30 33c14.745 0 26.729 11.819 26.995 26.5H59.5v-4.983zM49.994 59.5C49.728 48.685 40.879 40 30 40c-10.878 0-19.729 8.685-19.994 19.5h3.001C13.272 50.342 20.778 43 30 43c9.222 0 16.728 7.342 16.993 16.5h3zm-10.006 0C39.728 54.21 35.355 50 30 50c-5.355 0-9.727 4.21-9.988 9.5h3.006a7 7 0 0113.964 0h3.006z"
            clip-rule="evenodd"></path>
    </svg>
    <svg>
        <path transform="translate(360, 120) translate(30,30) rotate(0) translate(-30,-30)"
            fill="#90e0ef"
            d="M11.122.5h-4.6A80.499 80.499 0 00.5 6.522v4.6A77.464 77.464 0 0111.122.5zM.5 29.168v-6.061A70.364 70.364 0 0123.107.5h6.06A67.297 67.297 0 00.5 29.168z"></path>
        <path transform="translate(360, 120) translate(30,30) rotate(0) translate(-30,-30)"
            fill="#90e0ef"
            d="M3.002 59.5H.5v-7.282C3.985 25.305 25.305 3.985 52.218.5H59.5v2.502C28.416 3.27 3.27 28.417 3.002 59.5z"></path>
        <path transform="translate(360, 120) translate(30,30) rotate(0) translate(-30,-30)"
            fill="#90e0ef"
            d="M13.003 59.5h-3c.266-27.218 22.28-49.23 49.497-49.498v3C33.94 13.27 13.269 33.94 13.003 59.5z"></path>
        <path transform="translate(360, 120) translate(30,30) rotate(0) translate(-30,-30)"
            fill="#90e0ef"
            d="M23.003 59.5h-3C20.27 37.805 37.805 20.269 59.5 20.003v3c-20.038.266-36.231 16.46-36.497 36.497z"></path>
        <path transform="translate(360, 120) translate(30,30) rotate(0) translate(-30,-30)"
            fill="#90e0ef"
            d="M33.005 59.5h-3c.263-16.172 13.323-29.232 29.495-29.496v3c-14.515.264-26.232 11.981-26.495 26.496z"></path>
        <path transform="translate(360, 120) translate(30,30) rotate(0) translate(-30,-30)"
            fill="#90e0ef"
            d="M43.007 59.5h-3c.26-10.648 8.845-19.233 19.493-19.494v3.001c-8.992.26-16.233 7.502-16.493 16.493zM53.018 59.5h-3.006a10 10 0 019.488-9.488v3.006a7.001 7.001 0 00-6.482 6.482z"></path>
    </svg>
    <svg>
        <path transform="translate(360, 180) translate(30,30) rotate(180) translate(-30,-30)"
            fill="#caf0f8" fill-rule="evenodd"
            d="M5.072.5H.83L.5.83v4.242L5.072.5zM.5 19.214v-4.242L14.972.5h4.242L.5 19.214zm0 14.142v-4.242L29.114.5h4.242L.5 33.356zM.5 47.5v-4.243L43.256.5H47.5L.5 47.499zM2.64 59.5H.5v-2.102L57.398.5H59.5v2.14L2.64 59.5zm14.143 0H12.54L59.5 12.54v4.243L16.783 59.5zm14.142 0h-4.242L59.5 26.683v4.242L30.925 59.5zm14.142 0h-4.242L59.5 40.825v4.242L45.067 59.5zm14.143 0h-4.243l4.533-4.533v4.243l-.29.29z"
            clip-rule="evenodd"></path>
    </svg>
    <svg>
        <path transform="translate(360, 240) translate(30,30) rotate(90) translate(-30,-30)"
            fill="#ade8f4" fill-rule="evenodd"
            d="M5.072.5H.83L.5.83v4.242L5.072.5zM.5 19.214v-4.242L14.972.5h4.242L.5 19.214zm0 14.142v-4.242L29.114.5h4.242L.5 33.356zM.5 47.5v-4.243L43.256.5H47.5L.5 47.499zM2.64 59.5H.5v-2.102L57.398.5H59.5v2.14L2.64 59.5zm14.143 0H12.54L59.5 12.54v4.243L16.783 59.5zm14.142 0h-4.242L59.5 26.683v4.242L30.925 59.5zm14.142 0h-4.242L59.5 40.825v4.242L45.067 59.5zm14.143 0h-4.243l4.533-4.533v4.243l-.29.29z"
            clip-rule="evenodd"></path>
    </svg>
    <svg>
        <path transform="translate(360, 300) translate(30,30) rotate(90) translate(-30,-30)"
            fill="#00b4d8"
            d="M11.122.5h-4.6A80.499 80.499 0 00.5 6.522v4.6A77.464 77.464 0 0111.122.5zM.5 29.168v-6.061A70.364 70.364 0 0123.107.5h6.06A67.297 67.297 0 00.5 29.168z"></path>
        <path transform="translate(360, 300) translate(30,30) rotate(90) translate(-30,-30)"
            fill="#00b4d8"
            d="M3.002 59.5H.5v-7.282C3.985 25.305 25.305 3.985 52.218.5H59.5v2.502C28.416 3.27 3.27 28.417 3.002 59.5z"></path>
        <path transform="translate(360, 300) translate(30,30) rotate(90) translate(-30,-30)"
            fill="#00b4d8"
            d="M13.003 59.5h-3c.266-27.218 22.28-49.23 49.497-49.498v3C33.94 13.27 13.269 33.94 13.003 59.5z"></path>
        <path transform="translate(360, 300) translate(30,30) rotate(90) translate(-30,-30)"
            fill="#00b4d8"
            d="M23.003 59.5h-3C20.27 37.805 37.805 20.269 59.5 20.003v3c-20.038.266-36.231 16.46-36.497 36.497z"></path>
        <path transform="translate(360, 300) translate(30,30) rotate(90) translate(-30,-30)"
            fill="#00b4d8"
            d="M33.005 59.5h-3c.263-16.172 13.323-29.232 29.495-29.496v3c-14.515.264-26.232 11.981-26.495 26.496z"></path>
        <path transform="translate(360, 300) translate(30,30) rotate(90) translate(-30,-30)"
            fill="#00b4d8"
            d="M43.007 59.5h-3c.26-10.648 8.845-19.233 19.493-19.494v3.001c-8.992.26-16.233 7.502-16.493 16.493zM53.018 59.5h-3.006a10 10 0 019.488-9.488v3.006a7.001 7.001 0 00-6.482 6.482z"></path>
    </svg>
    <svg>
        <path transform="translate(360, 360) translate(30,30) rotate(90) translate(-30,-30)"
            fill="#0096c7" fill-rule="evenodd"
            d="M5.072.5H.83L.5.83v4.242L5.072.5zM.5 19.214v-4.242L14.972.5h4.242L.5 19.214zm0 14.142v-4.242L29.114.5h4.242L.5 33.356zM.5 47.5v-4.243L43.256.5H47.5L.5 47.499zM2.64 59.5H.5v-2.102L57.398.5H59.5v2.14L2.64 59.5zm14.143 0H12.54L59.5 12.54v4.243L16.783 59.5zm14.142 0h-4.242L59.5 26.683v4.242L30.925 59.5zm14.142 0h-4.242L59.5 40.825v4.242L45.067 59.5zm14.143 0h-4.243l4.533-4.533v4.243l-.29.29z"
            clip-rule="evenodd"></path>
    </svg>
    <svg>
        <path transform="translate(360, 420) translate(30,30) rotate(270) translate(-30,-30)"
            fill="#0077b6" fill-rule="evenodd"
            d="M59.5 11.218V7.74A59.602 59.602 0 0037.782.5H22.218A59.602 59.602 0 00.5 7.74v3.478C9.106 6.002 19.202 3 30 3c10.798 0 20.894 3.002 29.5 8.218zm0 8.408A49.775 49.775 0 0030 10 49.775 49.775 0 00.5 19.626v3.783A46.803 46.803 0 0130 13a46.803 46.803 0 0129.5 10.409v-3.783zm0 13.36C52.187 25.004 41.678 20 30 20S7.813 25.004.5 32.986v4.678C7.256 28.754 17.956 23 30 23s22.744 5.755 29.5 14.664v-4.678zm0 21.53C56.923 40.567 44.696 30 30 30S3.077 40.566.5 54.517V59.5h2.505C3.27 44.819 15.255 33 30 33c14.745 0 26.729 11.819 26.995 26.5H59.5v-4.983zM49.994 59.5C49.728 48.685 40.879 40 30 40c-10.878 0-19.729 8.685-19.994 19.5h3.001C13.272 50.342 20.778 43 30 43c9.222 0 16.728 7.342 16.993 16.5h3zm-10.006 0C39.728 54.21 35.355 50 30 50c-5.355 0-9.727 4.21-9.988 9.5h3.006a7 7 0 0113.964 0h3.006z"
            clip-rule="evenodd"></path>
    </svg>
    <svg>
        <path transform="translate(360, 480) translate(30,30) rotate(180) translate(-30,-30)"
            fill="#023e8a" fill-rule="evenodd"
            d="M8.5.5h3v59h-3V.5zM18.5.5h3v59h-3V.5zM31.5.5h-3v59h3V.5zM38.5.5h3v59h-3V.5zM51.5.5h-3v59h3V.5z"
            clip-rule="evenodd"></path>
    </svg>
    <svg>
        <path transform="translate(360, 540) translate(30,30) rotate(180) translate(-30,-30)"
            fill="#023e8a" fill-rule="evenodd"
            d="M59.5 11.218V7.74A59.602 59.602 0 0037.782.5H22.218A59.602 59.602 0 00.5 7.74v3.478C9.106 6.002 19.202 3 30 3c10.798 0 20.894 3.002 29.5 8.218zm0 8.408A49.775 49.775 0 0030 10 49.775 49.775 0 00.5 19.626v3.783A46.803 46.803 0 0130 13a46.803 46.803 0 0129.5 10.409v-3.783zm0 13.36C52.187 25.004 41.678 20 30 20S7.813 25.004.5 32.986v4.678C7.256 28.754 17.956 23 30 23s22.744 5.755 29.5 14.664v-4.678zm0 21.53C56.923 40.567 44.696 30 30 30S3.077 40.566.5 54.517V59.5h2.505C3.27 44.819 15.255 33 30 33c14.745 0 26.729 11.819 26.995 26.5H59.5v-4.983zM49.994 59.5C49.728 48.685 40.879 40 30 40c-10.878 0-19.729 8.685-19.994 19.5h3.001C13.272 50.342 20.778 43 30 43c9.222 0 16.728 7.342 16.993 16.5h3zm-10.006 0C39.728 54.21 35.355 50 30 50c-5.355 0-9.727 4.21-9.988 9.5h3.006a7 7 0 0113.964 0h3.006z"
            clip-rule="evenodd"></path>
    </svg>
    <svg>
        <path transform="translate(420, 0) translate(30,30) rotate(270) translate(-30,-30)"
            fill="#90e0ef" fill-rule="evenodd"
            d="M5.072.5H.83L.5.83v4.242L5.072.5zM.5 19.214v-4.242L14.972.5h4.242L.5 19.214zm0 14.142v-4.242L29.114.5h4.242L.5 33.356zM.5 47.5v-4.243L43.256.5H47.5L.5 47.499zM2.64 59.5H.5v-2.102L57.398.5H59.5v2.14L2.64 59.5zm14.143 0H12.54L59.5 12.54v4.243L16.783 59.5zm14.142 0h-4.242L59.5 26.683v4.242L30.925 59.5zm14.142 0h-4.242L59.5 40.825v4.242L45.067 59.5zm14.143 0h-4.243l4.533-4.533v4.243l-.29.29z"
            clip-rule="evenodd"></path>
    </svg>
    <svg>
        <path transform="translate(420, 60) translate(30,30) rotate(180) translate(-30,-30)"
            fill="#90e0ef" fill-rule="evenodd"
            d="M5.072.5H.83L.5.83v4.242L5.072.5zM.5 19.214v-4.242L14.972.5h4.242L.5 19.214zm0 14.142v-4.242L29.114.5h4.242L.5 33.356zM.5 47.5v-4.243L43.256.5H47.5L.5 47.499zM2.64 59.5H.5v-2.102L57.398.5H59.5v2.14L2.64 59.5zm14.143 0H12.54L59.5 12.54v4.243L16.783 59.5zm14.142 0h-4.242L59.5 26.683v4.242L30.925 59.5zm14.142 0h-4.242L59.5 40.825v4.242L45.067 59.5zm14.143 0h-4.243l4.533-4.533v4.243l-.29.29z"
            clip-rule="evenodd"></path>
    </svg>
    <svg>
        <path transform="translate(420, 120) translate(30,30) rotate(0) translate(-30,-30)"
            fill="#00b4d8" fill-rule="evenodd"
            d="M5.072.5H.83L.5.83v4.242L5.072.5zM.5 19.214v-4.242L14.972.5h4.242L.5 19.214zm0 14.142v-4.242L29.114.5h4.242L.5 33.356zM.5 47.5v-4.243L43.256.5H47.5L.5 47.499zM2.64 59.5H.5v-2.102L57.398.5H59.5v2.14L2.64 59.5zm14.143 0H12.54L59.5 12.54v4.243L16.783 59.5zm14.142 0h-4.242L59.5 26.683v4.242L30.925 59.5zm14.142 0h-4.242L59.5 40.825v4.242L45.067 59.5zm14.143 0h-4.243l4.533-4.533v4.243l-.29.29z"
            clip-rule="evenodd"></path>
    </svg>
    <svg>
        <path transform="translate(420, 180) translate(30,30) rotate(0) translate(-30,-30)"
            fill="#48cae4" fill-rule="evenodd"
            d="M8.5.5h3v59h-3V.5zM18.5.5h3v59h-3V.5zM31.5.5h-3v59h3V.5zM38.5.5h3v59h-3V.5zM51.5.5h-3v59h3V.5z"
            clip-rule="evenodd"></path>
    </svg>
    <svg>
        <path transform="translate(420, 240) translate(30,30) rotate(270) translate(-30,-30)"
            fill="#023e8a" fill-rule="evenodd"
            d="M8.5.5h3v59h-3V.5zM18.5.5h3v59h-3V.5zM31.5.5h-3v59h3V.5zM38.5.5h3v59h-3V.5zM51.5.5h-3v59h3V.5z"
            clip-rule="evenodd"></path>
    </svg>
    <svg>
        <path transform="translate(420, 300) translate(30,30) rotate(0) translate(-30,-30)"
            fill="#023e8a" fill-rule="evenodd"
            d="M59.5 11.218V7.74A59.602 59.602 0 0037.782.5H22.218A59.602 59.602 0 00.5 7.74v3.478C9.106 6.002 19.202 3 30 3c10.798 0 20.894 3.002 29.5 8.218zm0 8.408A49.775 49.775 0 0030 10 49.775 49.775 0 00.5 19.626v3.783A46.803 46.803 0 0130 13a46.803 46.803 0 0129.5 10.409v-3.783zm0 13.36C52.187 25.004 41.678 20 30 20S7.813 25.004.5 32.986v4.678C7.256 28.754 17.956 23 30 23s22.744 5.755 29.5 14.664v-4.678zm0 21.53C56.923 40.567 44.696 30 30 30S3.077 40.566.5 54.517V59.5h2.505C3.27 44.819 15.255 33 30 33c14.745 0 26.729 11.819 26.995 26.5H59.5v-4.983zM49.994 59.5C49.728 48.685 40.879 40 30 40c-10.878 0-19.729 8.685-19.994 19.5h3.001C13.272 50.342 20.778 43 30 43c9.222 0 16.728 7.342 16.993 16.5h3zm-10.006 0C39.728 54.21 35.355 50 30 50c-5.355 0-9.727 4.21-9.988 9.5h3.006a7 7 0 0113.964 0h3.006z"
            clip-rule="evenodd"></path>
    </svg>
    <svg>
        <path transform="translate(420, 360) translate(30,30) rotate(90) translate(-30,-30)"
            fill="#48cae4" fill-rule="evenodd"
            d="M5.072.5H.83L.5.83v4.242L5.072.5zM.5 19.214v-4.242L14.972.5h4.242L.5 19.214zm0 14.142v-4.242L29.114.5h4.242L.5 33.356zM.5 47.5v-4.243L43.256.5H47.5L.5 47.499zM2.64 59.5H.5v-2.102L57.398.5H59.5v2.14L2.64 59.5zm14.143 0H12.54L59.5 12.54v4.243L16.783 59.5zm14.142 0h-4.242L59.5 26.683v4.242L30.925 59.5zm14.142 0h-4.242L59.5 40.825v4.242L45.067 59.5zm14.143 0h-4.243l4.533-4.533v4.243l-.29.29z"
            clip-rule="evenodd"></path>
    </svg>
    <svg>
        <path transform="translate(420, 420) translate(30,30) rotate(270) translate(-30,-30)"
            fill="#0077b6" fill-rule="evenodd"
            d="M8.5.5h3v59h-3V.5zM18.5.5h3v59h-3V.5zM31.5.5h-3v59h3V.5zM38.5.5h3v59h-3V.5zM51.5.5h-3v59h3V.5z"
            clip-rule="evenodd"></path>
    </svg>
    <svg>
        <path transform="translate(420, 480) translate(30,30) rotate(270) translate(-30,-30)"
            fill="#023e8a" fill-rule="evenodd"
            d="M59.5 11.218V7.74A59.602 59.602 0 0037.782.5H22.218A59.602 59.602 0 00.5 7.74v3.478C9.106 6.002 19.202 3 30 3c10.798 0 20.894 3.002 29.5 8.218zm0 8.408A49.775 49.775 0 0030 10 49.775 49.775 0 00.5 19.626v3.783A46.803 46.803 0 0130 13a46.803 46.803 0 0129.5 10.409v-3.783zm0 13.36C52.187 25.004 41.678 20 30 20S7.813 25.004.5 32.986v4.678C7.256 28.754 17.956 23 30 23s22.744 5.755 29.5 14.664v-4.678zm0 21.53C56.923 40.567 44.696 30 30 30S3.077 40.566.5 54.517V59.5h2.505C3.27 44.819 15.255 33 30 33c14.745 0 26.729 11.819 26.995 26.5H59.5v-4.983zM49.994 59.5C49.728 48.685 40.879 40 30 40c-10.878 0-19.729 8.685-19.994 19.5h3.001C13.272 50.342 20.778 43 30 43c9.222 0 16.728 7.342 16.993 16.5h3zm-10.006 0C39.728 54.21 35.355 50 30 50c-5.355 0-9.727 4.21-9.988 9.5h3.006a7 7 0 0113.964 0h3.006z"
            clip-rule="evenodd"></path>
    </svg>
    <svg>
        <path transform="translate(420, 540) translate(30,30) rotate(270) translate(-30,-30)"
            fill="#00b4d8" fill-rule="evenodd"
            d="M59.5 11.218V7.74A59.602 59.602 0 0037.782.5H22.218A59.602 59.602 0 00.5 7.74v3.478C9.106 6.002 19.202 3 30 3c10.798 0 20.894 3.002 29.5 8.218zm0 8.408A49.775 49.775 0 0030 10 49.775 49.775 0 00.5 19.626v3.783A46.803 46.803 0 0130 13a46.803 46.803 0 0129.5 10.409v-3.783zm0 13.36C52.187 25.004 41.678 20 30 20S7.813 25.004.5 32.986v4.678C7.256 28.754 17.956 23 30 23s22.744 5.755 29.5 14.664v-4.678zm0 21.53C56.923 40.567 44.696 30 30 30S3.077 40.566.5 54.517V59.5h2.505C3.27 44.819 15.255 33 30 33c14.745 0 26.729 11.819 26.995 26.5H59.5v-4.983zM49.994 59.5C49.728 48.685 40.879 40 30 40c-10.878 0-19.729 8.685-19.994 19.5h3.001C13.272 50.342 20.778 43 30 43c9.222 0 16.728 7.342 16.993 16.5h3zm-10.006 0C39.728 54.21 35.355 50 30 50c-5.355 0-9.727 4.21-9.988 9.5h3.006a7 7 0 0113.964 0h3.006z"
            clip-rule="evenodd"></path>
    </svg>
    <svg>
        <path transform="translate(480, 0) translate(30,30) rotate(90) translate(-30,-30)"
            fill="#0096c7" fill-rule="evenodd"
            d="M8.5.5h3v59h-3V.5zM18.5.5h3v59h-3V.5zM31.5.5h-3v59h3V.5zM38.5.5h3v59h-3V.5zM51.5.5h-3v59h3V.5z"
            clip-rule="evenodd"></path>
    </svg>
    <svg>
        <path transform="translate(480, 60) translate(30,30) rotate(90) translate(-30,-30)"
            fill="#ade8f4" fill-rule="evenodd"
            d="M5.072.5H.83L.5.83v4.242L5.072.5zM.5 19.214v-4.242L14.972.5h4.242L.5 19.214zm0 14.142v-4.242L29.114.5h4.242L.5 33.356zM.5 47.5v-4.243L43.256.5H47.5L.5 47.499zM2.64 59.5H.5v-2.102L57.398.5H59.5v2.14L2.64 59.5zm14.143 0H12.54L59.5 12.54v4.243L16.783 59.5zm14.142 0h-4.242L59.5 26.683v4.242L30.925 59.5zm14.142 0h-4.242L59.5 40.825v4.242L45.067 59.5zm14.143 0h-4.243l4.533-4.533v4.243l-.29.29z"
            clip-rule="evenodd"></path>
    </svg>
    <svg>
        <path transform="translate(480, 120) translate(30,30) rotate(0) translate(-30,-30)"
            fill="#0077b6"
            d="M11.122.5h-4.6A80.499 80.499 0 00.5 6.522v4.6A77.464 77.464 0 0111.122.5zM.5 29.168v-6.061A70.364 70.364 0 0123.107.5h6.06A67.297 67.297 0 00.5 29.168z"></path>
        <path transform="translate(480, 120) translate(30,30) rotate(0) translate(-30,-30)"
            fill="#0077b6"
            d="M3.002 59.5H.5v-7.282C3.985 25.305 25.305 3.985 52.218.5H59.5v2.502C28.416 3.27 3.27 28.417 3.002 59.5z"></path>
        <path transform="translate(480, 120) translate(30,30) rotate(0) translate(-30,-30)"
            fill="#0077b6"
            d="M13.003 59.5h-3c.266-27.218 22.28-49.23 49.497-49.498v3C33.94 13.27 13.269 33.94 13.003 59.5z"></path>
        <path transform="translate(480, 120) translate(30,30) rotate(0) translate(-30,-30)"
            fill="#0077b6"
            d="M23.003 59.5h-3C20.27 37.805 37.805 20.269 59.5 20.003v3c-20.038.266-36.231 16.46-36.497 36.497z"></path>
        <path transform="translate(480, 120) translate(30,30) rotate(0) translate(-30,-30)"
            fill="#0077b6"
            d="M33.005 59.5h-3c.263-16.172 13.323-29.232 29.495-29.496v3c-14.515.264-26.232 11.981-26.495 26.496z"></path>
        <path transform="translate(480, 120) translate(30,30) rotate(0) translate(-30,-30)"
            fill="#0077b6"
            d="M43.007 59.5h-3c.26-10.648 8.845-19.233 19.493-19.494v3.001c-8.992.26-16.233 7.502-16.493 16.493zM53.018 59.5h-3.006a10 10 0 019.488-9.488v3.006a7.001 7.001 0 00-6.482 6.482z"></path>
    </svg>
    <svg>
        <path transform="translate(480, 180) translate(30,30) rotate(270) translate(-30,-30)"
            fill="#00b4d8" fill-rule="evenodd"
            d="M8.5.5h3v59h-3V.5zM18.5.5h3v59h-3V.5zM31.5.5h-3v59h3V.5zM38.5.5h3v59h-3V.5zM51.5.5h-3v59h3V.5z"
            clip-rule="evenodd"></path>
    </svg>
    <svg>
        <path transform="translate(480, 240) translate(30,30) rotate(270) translate(-30,-30)"
            fill="#ade8f4" fill-rule="evenodd"
            d="M5.072.5H.83L.5.83v4.242L5.072.5zM.5 19.214v-4.242L14.972.5h4.242L.5 19.214zm0 14.142v-4.242L29.114.5h4.242L.5 33.356zM.5 47.5v-4.243L43.256.5H47.5L.5 47.499zM2.64 59.5H.5v-2.102L57.398.5H59.5v2.14L2.64 59.5zm14.143 0H12.54L59.5 12.54v4.243L16.783 59.5zm14.142 0h-4.242L59.5 26.683v4.242L30.925 59.5zm14.142 0h-4.242L59.5 40.825v4.242L45.067 59.5zm14.143 0h-4.243l4.533-4.533v4.243l-.29.29z"
            clip-rule="evenodd"></path>
    </svg>
    <svg>
        <path transform="translate(480, 300) translate(30,30) rotate(90) translate(-30,-30)"
            fill="#ade8f4" fill-rule="evenodd"
            d="M59.5 11.218V7.74A59.602 59.602 0 0037.782.5H22.218A59.602 59.602 0 00.5 7.74v3.478C9.106 6.002 19.202 3 30 3c10.798 0 20.894 3.002 29.5 8.218zm0 8.408A49.775 49.775 0 0030 10 49.775 49.775 0 00.5 19.626v3.783A46.803 46.803 0 0130 13a46.803 46.803 0 0129.5 10.409v-3.783zm0 13.36C52.187 25.004 41.678 20 30 20S7.813 25.004.5 32.986v4.678C7.256 28.754 17.956 23 30 23s22.744 5.755 29.5 14.664v-4.678zm0 21.53C56.923 40.567 44.696 30 30 30S3.077 40.566.5 54.517V59.5h2.505C3.27 44.819 15.255 33 30 33c14.745 0 26.729 11.819 26.995 26.5H59.5v-4.983zM49.994 59.5C49.728 48.685 40.879 40 30 40c-10.878 0-19.729 8.685-19.994 19.5h3.001C13.272 50.342 20.778 43 30 43c9.222 0 16.728 7.342 16.993 16.5h3zm-10.006 0C39.728 54.21 35.355 50 30 50c-5.355 0-9.727 4.21-9.988 9.5h3.006a7 7 0 0113.964 0h3.006z"
            clip-rule="evenodd"></path>
    </svg>
    <svg>
        <path transform="translate(480, 360) translate(30,30) rotate(0) translate(-30,-30)"
            fill="#48cae4" fill-rule="evenodd"
            d="M59.5 11.218V7.74A59.602 59.602 0 0037.782.5H22.218A59.602 59.602 0 00.5 7.74v3.478C9.106 6.002 19.202 3 30 3c10.798 0 20.894 3.002 29.5 8.218zm0 8.408A49.775 49.775 0 0030 10 49.775 49.775 0 00.5 19.626v3.783A46.803 46.803 0 0130 13a46.803 46.803 0 0129.5 10.409v-3.783zm0 13.36C52.187 25.004 41.678 20 30 20S7.813 25.004.5 32.986v4.678C7.256 28.754 17.956 23 30 23s22.744 5.755 29.5 14.664v-4.678zm0 21.53C56.923 40.567 44.696 30 30 30S3.077 40.566.5 54.517V59.5h2.505C3.27 44.819 15.255 33 30 33c14.745 0 26.729 11.819 26.995 26.5H59.5v-4.983zM49.994 59.5C49.728 48.685 40.879 40 30 40c-10.878 0-19.729 8.685-19.994 19.5h3.001C13.272 50.342 20.778 43 30 43c9.222 0 16.728 7.342 16.993 16.5h3zm-10.006 0C39.728 54.21 35.355 50 30 50c-5.355 0-9.727 4.21-9.988 9.5h3.006a7 7 0 0113.964 0h3.006z"
            clip-rule="evenodd"></path>
    </svg>
    <svg>
        <path transform="translate(480, 420) translate(30,30) rotate(90) translate(-30,-30)"
            fill="#ade8f4" fill-rule="evenodd"
            d="M59.5 11.218V7.74A59.602 59.602 0 0037.782.5H22.218A59.602 59.602 0 00.5 7.74v3.478C9.106 6.002 19.202 3 30 3c10.798 0 20.894 3.002 29.5 8.218zm0 8.408A49.775 49.775 0 0030 10 49.775 49.775 0 00.5 19.626v3.783A46.803 46.803 0 0130 13a46.803 46.803 0 0129.5 10.409v-3.783zm0 13.36C52.187 25.004 41.678 20 30 20S7.813 25.004.5 32.986v4.678C7.256 28.754 17.956 23 30 23s22.744 5.755 29.5 14.664v-4.678zm0 21.53C56.923 40.567 44.696 30 30 30S3.077 40.566.5 54.517V59.5h2.505C3.27 44.819 15.255 33 30 33c14.745 0 26.729 11.819 26.995 26.5H59.5v-4.983zM49.994 59.5C49.728 48.685 40.879 40 30 40c-10.878 0-19.729 8.685-19.994 19.5h3.001C13.272 50.342 20.778 43 30 43c9.222 0 16.728 7.342 16.993 16.5h3zm-10.006 0C39.728 54.21 35.355 50 30 50c-5.355 0-9.727 4.21-9.988 9.5h3.006a7 7 0 0113.964 0h3.006z"
            clip-rule="evenodd"></path>
    </svg>
    <svg>
        <path transform="translate(480, 480) translate(30,30) rotate(90) translate(-30,-30)"
            fill="#023e8a"
            d="M11.122.5h-4.6A80.499 80.499 0 00.5 6.522v4.6A77.464 77.464 0 0111.122.5zM.5 29.168v-6.061A70.364 70.364 0 0123.107.5h6.06A67.297 67.297 0 00.5 29.168z"></path>
        <path transform="translate(480, 480) translate(30,30) rotate(90) translate(-30,-30)"
            fill="#023e8a"
            d="M3.002 59.5H.5v-7.282C3.985 25.305 25.305 3.985 52.218.5H59.5v2.502C28.416 3.27 3.27 28.417 3.002 59.5z"></path>
        <path transform="translate(480, 480) translate(30,30) rotate(90) translate(-30,-30)"
            fill="#023e8a"
            d="M13.003 59.5h-3c.266-27.218 22.28-49.23 49.497-49.498v3C33.94 13.27 13.269 33.94 13.003 59.5z"></path>
        <path transform="translate(480, 480) translate(30,30) rotate(90) translate(-30,-30)"
            fill="#023e8a"
            d="M23.003 59.5h-3C20.27 37.805 37.805 20.269 59.5 20.003v3c-20.038.266-36.231 16.46-36.497 36.497z"></path>
        <path transform="translate(480, 480) translate(30,30) rotate(90) translate(-30,-30)"
            fill="#023e8a"
            d="M33.005 59.5h-3c.263-16.172 13.323-29.232 29.495-29.496v3c-14.515.264-26.232 11.981-26.495 26.496z"></path>
        <path transform="translate(480, 480) translate(30,30) rotate(90) translate(-30,-30)"
            fill="#023e8a"
            d="M43.007 59.5h-3c.26-10.648 8.845-19.233 19.493-19.494v3.001c-8.992.26-16.233 7.502-16.493 16.493zM53.018 59.5h-3.006a10 10 0 019.488-9.488v3.006a7.001 7.001 0 00-6.482 6.482z"></path>
    </svg>
    <svg>
        <path transform="translate(480, 540) translate(30,30) rotate(90) translate(-30,-30)"
            fill="#023e8a"
            d="M11.122.5h-4.6A80.499 80.499 0 00.5 6.522v4.6A77.464 77.464 0 0111.122.5zM.5 29.168v-6.061A70.364 70.364 0 0123.107.5h6.06A67.297 67.297 0 00.5 29.168z"></path>
        <path transform="translate(480, 540) translate(30,30) rotate(90) translate(-30,-30)"
            fill="#023e8a"
            d="M3.002 59.5H.5v-7.282C3.985 25.305 25.305 3.985 52.218.5H59.5v2.502C28.416 3.27 3.27 28.417 3.002 59.5z"></path>
        <path transform="translate(480, 540) translate(30,30) rotate(90) translate(-30,-30)"
            fill="#023e8a"
            d="M13.003 59.5h-3c.266-27.218 22.28-49.23 49.497-49.498v3C33.94 13.27 13.269 33.94 13.003 59.5z"></path>
        <path transform="translate(480, 540) translate(30,30) rotate(90) translate(-30,-30)"
            fill="#023e8a"
            d="M23.003 59.5h-3C20.27 37.805 37.805 20.269 59.5 20.003v3c-20.038.266-36.231 16.46-36.497 36.497z"></path>
        <path transform="translate(480, 540) translate(30,30) rotate(90) translate(-30,-30)"
            fill="#023e8a"
            d="M33.005 59.5h-3c.263-16.172 13.323-29.232 29.495-29.496v3c-14.515.264-26.232 11.981-26.495 26.496z"></path>
        <path transform="translate(480, 540) translate(30,30) rotate(90) translate(-30,-30)"
            fill="#023e8a"
            d="M43.007 59.5h-3c.26-10.648 8.845-19.233 19.493-19.494v3.001c-8.992.26-16.233 7.502-16.493 16.493zM53.018 59.5h-3.006a10 10 0 019.488-9.488v3.006a7.001 7.001 0 00-6.482 6.482z"></path>
    </svg>
    <svg>
        <path transform="translate(540, 0) translate(30,30) rotate(0) translate(-30,-30)"
            fill="#0096c7" fill-rule="evenodd"
            d="M59.5 11.218V7.74A59.602 59.602 0 0037.782.5H22.218A59.602 59.602 0 00.5 7.74v3.478C9.106 6.002 19.202 3 30 3c10.798 0 20.894 3.002 29.5 8.218zm0 8.408A49.775 49.775 0 0030 10 49.775 49.775 0 00.5 19.626v3.783A46.803 46.803 0 0130 13a46.803 46.803 0 0129.5 10.409v-3.783zm0 13.36C52.187 25.004 41.678 20 30 20S7.813 25.004.5 32.986v4.678C7.256 28.754 17.956 23 30 23s22.744 5.755 29.5 14.664v-4.678zm0 21.53C56.923 40.567 44.696 30 30 30S3.077 40.566.5 54.517V59.5h2.505C3.27 44.819 15.255 33 30 33c14.745 0 26.729 11.819 26.995 26.5H59.5v-4.983zM49.994 59.5C49.728 48.685 40.879 40 30 40c-10.878 0-19.729 8.685-19.994 19.5h3.001C13.272 50.342 20.778 43 30 43c9.222 0 16.728 7.342 16.993 16.5h3zm-10.006 0C39.728 54.21 35.355 50 30 50c-5.355 0-9.727 4.21-9.988 9.5h3.006a7 7 0 0113.964 0h3.006z"
            clip-rule="evenodd"></path>
    </svg>
    <svg>
        <path transform="translate(540, 60) translate(30,30) rotate(90) translate(-30,-30)"
            fill="#0077b6"
            d="M11.122.5h-4.6A80.499 80.499 0 00.5 6.522v4.6A77.464 77.464 0 0111.122.5zM.5 29.168v-6.061A70.364 70.364 0 0123.107.5h6.06A67.297 67.297 0 00.5 29.168z"></path>
        <path transform="translate(540, 60) translate(30,30) rotate(90) translate(-30,-30)"
            fill="#0077b6"
            d="M3.002 59.5H.5v-7.282C3.985 25.305 25.305 3.985 52.218.5H59.5v2.502C28.416 3.27 3.27 28.417 3.002 59.5z"></path>
        <path transform="translate(540, 60) translate(30,30) rotate(90) translate(-30,-30)"
            fill="#0077b6"
            d="M13.003 59.5h-3c.266-27.218 22.28-49.23 49.497-49.498v3C33.94 13.27 13.269 33.94 13.003 59.5z"></path>
        <path transform="translate(540, 60) translate(30,30) rotate(90) translate(-30,-30)"
            fill="#0077b6"
            d="M23.003 59.5h-3C20.27 37.805 37.805 20.269 59.5 20.003v3c-20.038.266-36.231 16.46-36.497 36.497z"></path>
        <path transform="translate(540, 60) translate(30,30) rotate(90) translate(-30,-30)"
            fill="#0077b6"
            d="M33.005 59.5h-3c.263-16.172 13.323-29.232 29.495-29.496v3c-14.515.264-26.232 11.981-26.495 26.496z"></path>
        <path transform="translate(540, 60) translate(30,30) rotate(90) translate(-30,-30)"
            fill="#0077b6"
            d="M43.007 59.5h-3c.26-10.648 8.845-19.233 19.493-19.494v3.001c-8.992.26-16.233 7.502-16.493 16.493zM53.018 59.5h-3.006a10 10 0 019.488-9.488v3.006a7.001 7.001 0 00-6.482 6.482z"></path>
    </svg>
    <svg>
        <path transform="translate(540, 120) translate(30,30) rotate(0) translate(-30,-30)"
            fill="#caf0f8"
            d="M11.122.5h-4.6A80.499 80.499 0 00.5 6.522v4.6A77.464 77.464 0 0111.122.5zM.5 29.168v-6.061A70.364 70.364 0 0123.107.5h6.06A67.297 67.297 0 00.5 29.168z"></path>
        <path transform="translate(540, 120) translate(30,30) rotate(0) translate(-30,-30)"
            fill="#caf0f8"
            d="M3.002 59.5H.5v-7.282C3.985 25.305 25.305 3.985 52.218.5H59.5v2.502C28.416 3.27 3.27 28.417 3.002 59.5z"></path>
        <path transform="translate(540, 120) translate(30,30) rotate(0) translate(-30,-30)"
            fill="#caf0f8"
            d="M13.003 59.5h-3c.266-27.218 22.28-49.23 49.497-49.498v3C33.94 13.27 13.269 33.94 13.003 59.5z"></path>
        <path transform="translate(540, 120) translate(30,30) rotate(0) translate(-30,-30)"
            fill="#caf0f8"
            d="M23.003 59.5h-3C20.27 37.805 37.805 20.269 59.5 20.003v3c-20.038.266-36.231 16.46-36.497 36.497z"></path>
        <path transform="translate(540, 120) translate(30,30) rotate(0) translate(-30,-30)"
            fill="#caf0f8"
            d="M33.005 59.5h-3c.263-16.172 13.323-29.232 29.495-29.496v3c-14.515.264-26.232 11.981-26.495 26.496z"></path>
        <path transform="translate(540, 120) translate(30,30) rotate(0) translate(-30,-30)"
            fill="#caf0f8"
            d="M43.007 59.5h-3c.26-10.648 8.845-19.233 19.493-19.494v3.001c-8.992.26-16.233 7.502-16.493 16.493zM53.018 59.5h-3.006a10 10 0 019.488-9.488v3.006a7.001 7.001 0 00-6.482 6.482z"></path>
    </svg>
    <svg>
        <path transform="translate(540, 180) translate(30,30) rotate(0) translate(-30,-30)"
            fill="#023e8a" fill-rule="evenodd"
            d="M8.5.5h3v59h-3V.5zM18.5.5h3v59h-3V.5zM31.5.5h-3v59h3V.5zM38.5.5h3v59h-3V.5zM51.5.5h-3v59h3V.5z"
            clip-rule="evenodd"></path>
    </svg>
    <svg>
        <path transform="translate(540, 240) translate(30,30) rotate(270) translate(-30,-30)"
            fill="#03045e" fill-rule="evenodd"
            d="M5.072.5H.83L.5.83v4.242L5.072.5zM.5 19.214v-4.242L14.972.5h4.242L.5 19.214zm0 14.142v-4.242L29.114.5h4.242L.5 33.356zM.5 47.5v-4.243L43.256.5H47.5L.5 47.499zM2.64 59.5H.5v-2.102L57.398.5H59.5v2.14L2.64 59.5zm14.143 0H12.54L59.5 12.54v4.243L16.783 59.5zm14.142 0h-4.242L59.5 26.683v4.242L30.925 59.5zm14.142 0h-4.242L59.5 40.825v4.242L45.067 59.5zm14.143 0h-4.243l4.533-4.533v4.243l-.29.29z"
            clip-rule="evenodd"></path>
    </svg>
    <svg>
        <path transform="translate(540, 300) translate(30,30) rotate(180) translate(-30,-30)"
            fill="#00b4d8" fill-rule="evenodd"
            d="M59.5 11.218V7.74A59.602 59.602 0 0037.782.5H22.218A59.602 59.602 0 00.5 7.74v3.478C9.106 6.002 19.202 3 30 3c10.798 0 20.894 3.002 29.5 8.218zm0 8.408A49.775 49.775 0 0030 10 49.775 49.775 0 00.5 19.626v3.783A46.803 46.803 0 0130 13a46.803 46.803 0 0129.5 10.409v-3.783zm0 13.36C52.187 25.004 41.678 20 30 20S7.813 25.004.5 32.986v4.678C7.256 28.754 17.956 23 30 23s22.744 5.755 29.5 14.664v-4.678zm0 21.53C56.923 40.567 44.696 30 30 30S3.077 40.566.5 54.517V59.5h2.505C3.27 44.819 15.255 33 30 33c14.745 0 26.729 11.819 26.995 26.5H59.5v-4.983zM49.994 59.5C49.728 48.685 40.879 40 30 40c-10.878 0-19.729 8.685-19.994 19.5h3.001C13.272 50.342 20.778 43 30 43c9.222 0 16.728 7.342 16.993 16.5h3zm-10.006 0C39.728 54.21 35.355 50 30 50c-5.355 0-9.727 4.21-9.988 9.5h3.006a7 7 0 0113.964 0h3.006z"
            clip-rule="evenodd"></path>
    </svg>
    <svg>
        <path transform="translate(540, 360) translate(30,30) rotate(0) translate(-30,-30)"
            fill="#90e0ef"
            d="M11.122.5h-4.6A80.499 80.499 0 00.5 6.522v4.6A77.464 77.464 0 0111.122.5zM.5 29.168v-6.061A70.364 70.364 0 0123.107.5h6.06A67.297 67.297 0 00.5 29.168z"></path>
        <path transform="translate(540, 360) translate(30,30) rotate(0) translate(-30,-30)"
            fill="#90e0ef"
            d="M3.002 59.5H.5v-7.282C3.985 25.305 25.305 3.985 52.218.5H59.5v2.502C28.416 3.27 3.27 28.417 3.002 59.5z"></path>
        <path transform="translate(540, 360) translate(30,30) rotate(0) translate(-30,-30)"
            fill="#90e0ef"
            d="M13.003 59.5h-3c.266-27.218 22.28-49.23 49.497-49.498v3C33.94 13.27 13.269 33.94 13.003 59.5z"></path>
        <path transform="translate(540, 360) translate(30,30) rotate(0) translate(-30,-30)"
            fill="#90e0ef"
            d="M23.003 59.5h-3C20.27 37.805 37.805 20.269 59.5 20.003v3c-20.038.266-36.231 16.46-36.497 36.497z"></path>
        <path transform="translate(540, 360) translate(30,30) rotate(0) translate(-30,-30)"
            fill="#90e0ef"
            d="M33.005 59.5h-3c.263-16.172 13.323-29.232 29.495-29.496v3c-14.515.264-26.232 11.981-26.495 26.496z"></path>
        <path transform="translate(540, 360) translate(30,30) rotate(0) translate(-30,-30)"
            fill="#90e0ef"
            d="M43.007 59.5h-3c.26-10.648 8.845-19.233 19.493-19.494v3.001c-8.992.26-16.233 7.502-16.493 16.493zM53.018 59.5h-3.006a10 10 0 019.488-9.488v3.006a7.001 7.001 0 00-6.482 6.482z"></path>
    </svg>
    <svg>
        <path transform="translate(540, 420) translate(30,30) rotate(180) translate(-30,-30)"
            fill="#90e0ef"
            d="M11.122.5h-4.6A80.499 80.499 0 00.5 6.522v4.6A77.464 77.464 0 0111.122.5zM.5 29.168v-6.061A70.364 70.364 0 0123.107.5h6.06A67.297 67.297 0 00.5 29.168z"></path>
        <path transform="translate(540, 420) translate(30,30) rotate(180) translate(-30,-30)"
            fill="#90e0ef"
            d="M3.002 59.5H.5v-7.282C3.985 25.305 25.305 3.985 52.218.5H59.5v2.502C28.416 3.27 3.27 28.417 3.002 59.5z"></path>
        <path transform="translate(540, 420) translate(30,30) rotate(180) translate(-30,-30)"
            fill="#90e0ef"
            d="M13.003 59.5h-3c.266-27.218 22.28-49.23 49.497-49.498v3C33.94 13.27 13.269 33.94 13.003 59.5z"></path>
        <path transform="translate(540, 420) translate(30,30) rotate(180) translate(-30,-30)"
            fill="#90e0ef"
            d="M23.003 59.5h-3C20.27 37.805 37.805 20.269 59.5 20.003v3c-20.038.266-36.231 16.46-36.497 36.497z"></path>
        <path transform="translate(540, 420) translate(30,30) rotate(180) translate(-30,-30)"
            fill="#90e0ef"
            d="M33.005 59.5h-3c.263-16.172 13.323-29.232 29.495-29.496v3c-14.515.264-26.232 11.981-26.495 26.496z"></path>
        <path transform="translate(540, 420) translate(30,30) rotate(180) translate(-30,-30)"
            fill="#90e0ef"
            d="M43.007 59.5h-3c.26-10.648 8.845-19.233 19.493-19.494v3.001c-8.992.26-16.233 7.502-16.493 16.493zM53.018 59.5h-3.006a10 10 0 019.488-9.488v3.006a7.001 7.001 0 00-6.482 6.482z"></path>
    </svg>
    <svg>
        <path transform="translate(540, 480) translate(30,30) rotate(270) translate(-30,-30)"
            fill="#caf0f8"
            d="M11.122.5h-4.6A80.499 80.499 0 00.5 6.522v4.6A77.464 77.464 0 0111.122.5zM.5 29.168v-6.061A70.364 70.364 0 0123.107.5h6.06A67.297 67.297 0 00.5 29.168z"></path>
        <path transform="translate(540, 480) translate(30,30) rotate(270) translate(-30,-30)"
            fill="#caf0f8"
            d="M3.002 59.5H.5v-7.282C3.985 25.305 25.305 3.985 52.218.5H59.5v2.502C28.416 3.27 3.27 28.417 3.002 59.5z"></path>
        <path transform="translate(540, 480) translate(30,30) rotate(270) translate(-30,-30)"
            fill="#caf0f8"
            d="M13.003 59.5h-3c.266-27.218 22.28-49.23 49.497-49.498v3C33.94 13.27 13.269 33.94 13.003 59.5z"></path>
        <path transform="translate(540, 480) translate(30,30) rotate(270) translate(-30,-30)"
            fill="#caf0f8"
            d="M23.003 59.5h-3C20.27 37.805 37.805 20.269 59.5 20.003v3c-20.038.266-36.231 16.46-36.497 36.497z"></path>
        <path transform="translate(540, 480) translate(30,30) rotate(270) translate(-30,-30)"
            fill="#caf0f8"
            d="M33.005 59.5h-3c.263-16.172 13.323-29.232 29.495-29.496v3c-14.515.264-26.232 11.981-26.495 26.496z"></path>
        <path transform="translate(540, 480) translate(30,30) rotate(270) translate(-30,-30)"
            fill="#caf0f8"
            d="M43.007 59.5h-3c.26-10.648 8.845-19.233 19.493-19.494v3.001c-8.992.26-16.233 7.502-16.493 16.493zM53.018 59.5h-3.006a10 10 0 019.488-9.488v3.006a7.001 7.001 0 00-6.482 6.482z"></path>
    </svg>
    <svg>
        <path transform="translate(540, 540) translate(30,30) rotate(180) translate(-30,-30)"
            fill="#03045e" fill-rule="evenodd"
            d="M5.072.5H.83L.5.83v4.242L5.072.5zM.5 19.214v-4.242L14.972.5h4.242L.5 19.214zm0 14.142v-4.242L29.114.5h4.242L.5 33.356zM.5 47.5v-4.243L43.256.5H47.5L.5 47.499zM2.64 59.5H.5v-2.102L57.398.5H59.5v2.14L2.64 59.5zm14.143 0H12.54L59.5 12.54v4.243L16.783 59.5zm14.142 0h-4.242L59.5 26.683v4.242L30.925 59.5zm14.142 0h-4.242L59.5 40.825v4.242L45.067 59.5zm14.143 0h-4.243l4.533-4.533v4.243l-.29.29z"
            clip-rule="evenodd"></path>
    </svg>
</svg>