<svg xmlns="http://www.w3.org/2000/svg" xmlns:xlink="http://www.w3.org/1999/xlink" style="margin:auto;background:rgba(NaN, NaN, NaN, 0);display:block;z-index:1;position:relative" width="1084" height="322" preserveAspectRatio="xMidYMid" viewBox="0 0 1084 322">
    <defs>
      <pattern id="pid-0.7559634166593172" x="0" y="0" width="760.32" height="760.32" patternUnits="userSpaceOnUse">
        <g transform="scale(2.97)"><g>
      <line x1="248.93220498412637" x2="187.83676887148368" y1="133.26068452225024" y2="194.35612063489293" stroke-width="17" stroke="#93dbe9" stroke-linecap="round"></line><line x1="248.93220498412637" x2="187.83676887148368" y1="-378.73931547774976" y2="-317.64387936510707" stroke-width="17" stroke="#93dbe9" stroke-linecap="round"></line><line x1="504.9322049841264" x2="443.8367688714837" y1="-378.73931547774976" y2="-317.64387936510707" stroke-width="17" stroke="#93dbe9" stroke-linecap="round"></line><line x1="760.9322049841264" x2="699.8367688714836" y1="-378.73931547774976" y2="-317.64387936510707" stroke-width="17" stroke="#93dbe9" stroke-linecap="round"></line><line x1="248.93220498412637" x2="187.83676887148368" y1="-122.73931547774976" y2="-61.64387936510707" stroke-width="17" stroke="#93dbe9" stroke-linecap="round"></line><line x1="504.9322049841264" x2="443.8367688714837" y1="-122.73931547774976" y2="-61.64387936510707" stroke-width="17" stroke="#93dbe9" stroke-linecap="round"></line><line x1="760.9322049841264" x2="699.8367688714836" y1="-122.73931547774976" y2="-61.64387936510707" stroke-width="17" stroke="#93dbe9" stroke-linecap="round"></line><line x1="248.93220498412637" x2="187.83676887148368" y1="133.26068452225024" y2="194.35612063489293" stroke-width="17" stroke="#93dbe9" stroke-linecap="round"></line><line x1="504.9322049841264" x2="443.8367688714837" y1="133.26068452225024" y2="194.35612063489293" stroke-width="17" stroke="#93dbe9" stroke-linecap="round"></line><line x1="760.9322049841264" x2="699.8367688714836" y1="133.26068452225024" y2="194.35612063489293" stroke-width="17" stroke="#93dbe9" stroke-linecap="round"></line><line x1="271.51835507321255" x2="195.66490594892483" y1="160.40603458717632" y2="236.25948371146401" stroke-width="17" stroke="#93dbe9" stroke-linecap="round"></line><line x1="271.51835507321255" x2="195.66490594892483" y1="-351.59396541282365" y2="-275.740516288536" stroke-width="17" stroke="#93dbe9" stroke-linecap="round"></line><line x1="527.5183550732125" x2="451.6649059489248" y1="-351.59396541282365" y2="-275.740516288536" stroke-width="17" stroke="#93dbe9" stroke-linecap="round"></line><line x1="783.5183550732125" x2="707.6649059489248" y1="-351.59396541282365" y2="-275.740516288536" stroke-width="17" stroke="#93dbe9" stroke-linecap="round"></line><line x1="271.51835507321255" x2="195.66490594892483" y1="-95.59396541282368" y2="-19.740516288535986" stroke-width="17" stroke="#93dbe9" stroke-linecap="round"></line><line x1="527.5183550732125" x2="451.6649059489248" y1="-95.59396541282368" y2="-19.740516288535986" stroke-width="17" stroke="#93dbe9" stroke-linecap="round"></line><line x1="783.5183550732125" x2="707.6649059489248" y1="-95.59396541282368" y2="-19.740516288535986" stroke-width="17" stroke="#93dbe9" stroke-linecap="round"></line><line x1="271.51835507321255" x2="195.66490594892483" y1="160.40603458717632" y2="236.25948371146401" stroke-width="17" stroke="#93dbe9" stroke-linecap="round"></line><line x1="527.5183550732125" x2="451.6649059489248" y1="160.40603458717632" y2="236.25948371146401" stroke-width="17" stroke="#93dbe9" stroke-linecap="round"></line><line x1="783.5183550732125" x2="707.6649059489248" y1="160.40603458717632" y2="236.25948371146401" stroke-width="17" stroke="#93dbe9" stroke-linecap="round"></line><line x1="15.518355073212547" x2="-60.335094051075174" y1="160.40603458717632" y2="236.25948371146401" stroke-width="17" stroke="#93dbe9" stroke-linecap="round"></line><line x1="83.40042674041591" x2="33.11441362141967" y1="-16.06889251952758" y2="34.21712059946866" stroke-width="17" stroke="#93dbe9" stroke-linecap="round"></line><line x1="83.40042674041591" x2="33.11441362141967" y1="-528.0688925195276" y2="-477.78287940053133" stroke-width="17" stroke="#93dbe9" stroke-linecap="round"></line><line x1="339.4004267404159" x2="289.11441362141966" y1="-528.0688925195276" y2="-477.78287940053133" stroke-width="17" stroke="#93dbe9" stroke-linecap="round"></line><line x1="595.4004267404159" x2="545.1144136214197" y1="-528.0688925195276" y2="-477.78287940053133" stroke-width="17" stroke="#93dbe9" stroke-linecap="round"></line><line x1="83.40042674041591" x2="33.11441362141967" y1="-272.0688925195276" y2="-221.78287940053133" stroke-width="17" stroke="#93dbe9" stroke-linecap="round"></line><line x1="339.4004267404159" x2="289.11441362141966" y1="-272.0688925195276" y2="-221.78287940053133" stroke-width="17" stroke="#93dbe9" stroke-linecap="round"></line><line x1="595.4004267404159" x2="545.1144136214197" y1="-272.0688925195276" y2="-221.78287940053133" stroke-width="17" stroke="#93dbe9" stroke-linecap="round"></line><line x1="83.40042674041591" x2="33.11441362141967" y1="-16.06889251952758" y2="34.21712059946866" stroke-width="17" stroke="#93dbe9" stroke-linecap="round"></line><line x1="339.4004267404159" x2="289.11441362141966" y1="-16.06889251952758" y2="34.21712059946866" stroke-width="17" stroke="#93dbe9" stroke-linecap="round"></line><line x1="595.4004267404159" x2="545.1144136214197" y1="-16.06889251952758" y2="34.21712059946866" stroke-width="17" stroke="#93dbe9" stroke-linecap="round"></line><line x1="83.40042674041591" x2="33.11441362141967" y1="239.9311074804724" y2="290.21712059946867" stroke-width="17" stroke="#93dbe9" stroke-linecap="round"></line><line x1="235.6195643348267" x2="177.32074669144936" y1="148.19045826610807" y2="206.4892759094854" stroke-width="17" stroke="#93dbe9" stroke-linecap="round"></line><line x1="235.6195643348267" x2="177.32074669144936" y1="-363.80954173389193" y2="-305.5107240905146" stroke-width="17" stroke="#93dbe9" stroke-linecap="round"></line><line x1="491.6195643348267" x2="433.32074669144936" y1="-363.80954173389193" y2="-305.5107240905146" stroke-width="17" stroke="#93dbe9" stroke-linecap="round"></line><line x1="747.6195643348267" x2="689.3207466914494" y1="-363.80954173389193" y2="-305.5107240905146" stroke-width="17" stroke="#93dbe9" stroke-linecap="round"></line><line x1="235.6195643348267" x2="177.32074669144936" y1="-107.80954173389193" y2="-49.5107240905146" stroke-width="17" stroke="#93dbe9" stroke-linecap="round"></line><line x1="491.6195643348267" x2="433.32074669144936" y1="-107.80954173389193" y2="-49.5107240905146" stroke-width="17" stroke="#93dbe9" stroke-linecap="round"></line><line x1="747.6195643348267" x2="689.3207466914494" y1="-107.80954173389193" y2="-49.5107240905146" stroke-width="17" stroke="#93dbe9" stroke-linecap="round"></line><line x1="235.6195643348267" x2="177.32074669144936" y1="148.19045826610807" y2="206.4892759094854" stroke-width="17" stroke="#93dbe9" stroke-linecap="round"></line><line x1="491.6195643348267" x2="433.32074669144936" y1="148.19045826610807" y2="206.4892759094854" stroke-width="17" stroke="#93dbe9" stroke-linecap="round"></line><line x1="747.6195643348267" x2="689.3207466914494" y1="148.19045826610807" y2="206.4892759094854" stroke-width="17" stroke="#93dbe9" stroke-linecap="round"></line><line x1="228.20622429369445" x2="175.72945264042522" y1="65.63625465549269" y2="118.11302630876189" stroke-width="17" stroke="#93dbe9" stroke-linecap="round"></line><line x1="228.20622429369445" x2="175.72945264042522" y1="-446.3637453445073" y2="-393.8869736912381" stroke-width="17" stroke="#93dbe9" stroke-linecap="round"></line><line x1="484.20622429369445" x2="431.7294526404252" y1="-446.3637453445073" y2="-393.8869736912381" stroke-width="17" stroke="#93dbe9" stroke-linecap="round"></line><line x1="740.2062242936945" x2="687.7294526404253" y1="-446.3637453445073" y2="-393.8869736912381" stroke-width="17" stroke="#93dbe9" stroke-linecap="round"></line><line x1="228.20622429369445" x2="175.72945264042522" y1="-190.36374534450732" y2="-137.8869736912381" stroke-width="17" stroke="#93dbe9" stroke-linecap="round"></line><line x1="484.20622429369445" x2="431.7294526404252" y1="-190.36374534450732" y2="-137.8869736912381" stroke-width="17" stroke="#93dbe9" stroke-linecap="round"></line><line x1="740.2062242936945" x2="687.7294526404253" y1="-190.36374534450732" y2="-137.8869736912381" stroke-width="17" stroke="#93dbe9" stroke-linecap="round"></line><line x1="228.20622429369445" x2="175.72945264042522" y1="65.63625465549269" y2="118.11302630876189" stroke-width="17" stroke="#93dbe9" stroke-linecap="round"></line><line x1="484.20622429369445" x2="431.7294526404252" y1="65.63625465549269" y2="118.11302630876189" stroke-width="17" stroke="#93dbe9" stroke-linecap="round"></line><line x1="740.2062242936945" x2="687.7294526404253" y1="65.63625465549269" y2="118.11302630876189" stroke-width="17" stroke="#93dbe9" stroke-linecap="round"></line><line x1="242.53404633336618" x2="234.98338706254128" y1="81.93065293103359" y2="89.48131220185849" stroke-width="17" stroke="#93dbe9" stroke-linecap="round"></line><line x1="242.53404633336618" x2="234.98338706254128" y1="-430.0693470689664" y2="-422.5186877981415" stroke-width="17" stroke="#93dbe9" stroke-linecap="round"></line><line x1="498.5340463333662" x2="490.9833870625413" y1="-430.0693470689664" y2="-422.5186877981415" stroke-width="17" stroke="#93dbe9" stroke-linecap="round"></line><line x1="754.5340463333662" x2="746.9833870625413" y1="-430.0693470689664" y2="-422.5186877981415" stroke-width="17" stroke="#93dbe9" stroke-linecap="round"></line><line x1="242.53404633336618" x2="234.98338706254128" y1="-174.0693470689664" y2="-166.5186877981415" stroke-width="17" stroke="#93dbe9" stroke-linecap="round"></line><line x1="498.5340463333662" x2="490.9833870625413" y1="-174.0693470689664" y2="-166.5186877981415" stroke-width="17" stroke="#93dbe9" stroke-linecap="round"></line><line x1="754.5340463333662" x2="746.9833870625413" y1="-174.0693470689664" y2="-166.5186877981415" stroke-width="17" stroke="#93dbe9" stroke-linecap="round"></line><line x1="242.53404633336618" x2="234.98338706254128" y1="81.93065293103359" y2="89.48131220185849" stroke-width="17" stroke="#93dbe9" stroke-linecap="round"></line><line x1="498.5340463333662" x2="490.9833870625413" y1="81.93065293103359" y2="89.48131220185849" stroke-width="17" stroke="#93dbe9" stroke-linecap="round"></line><line x1="754.5340463333662" x2="746.9833870625413" y1="81.93065293103359" y2="89.48131220185849" stroke-width="17" stroke="#93dbe9" stroke-linecap="round"></line><line x1="196.72047994415553" x2="139.8261317480195" y1="37.06501214382743" y2="93.95936033996347" stroke-width="17" stroke="#93dbe9" stroke-linecap="round"></line><line x1="196.72047994415553" x2="139.8261317480195" y1="-474.9349878561726" y2="-418.0406396600365" stroke-width="17" stroke="#93dbe9" stroke-linecap="round"></line><line x1="452.7204799441555" x2="395.8261317480195" y1="-474.9349878561726" y2="-418.0406396600365" stroke-width="17" stroke="#93dbe9" stroke-linecap="round"></line><line x1="708.7204799441555" x2="651.8261317480195" y1="-474.9349878561726" y2="-418.0406396600365" stroke-width="17" stroke="#93dbe9" stroke-linecap="round"></line><line x1="196.72047994415553" x2="139.8261317480195" y1="-218.93498785617257" y2="-162.04063966003653" stroke-width="17" stroke="#93dbe9" stroke-linecap="round"></line><line x1="452.7204799441555" x2="395.8261317480195" y1="-218.93498785617257" y2="-162.04063966003653" stroke-width="17" stroke="#93dbe9" stroke-linecap="round"></line><line x1="708.7204799441555" x2="651.8261317480195" y1="-218.93498785617257" y2="-162.04063966003653" stroke-width="17" stroke="#93dbe9" stroke-linecap="round"></line><line x1="196.72047994415553" x2="139.8261317480195" y1="37.06501214382743" y2="93.95936033996347" stroke-width="17" stroke="#93dbe9" stroke-linecap="round"></line><line x1="452.7204799441555" x2="395.8261317480195" y1="37.06501214382743" y2="93.95936033996347" stroke-width="17" stroke="#93dbe9" stroke-linecap="round"></line><line x1="708.7204799441555" x2="651.8261317480195" y1="37.06501214382743" y2="93.95936033996347" stroke-width="17" stroke="#93dbe9" stroke-linecap="round"></line><line x1="61.253184545685066" x2="2.678297118949864" y1="1.359246251594321" y2="59.93413367832952" stroke-width="17" stroke="#5e6fa3" stroke-linecap="round"></line><line x1="61.253184545685066" x2="2.678297118949864" y1="-510.6407537484057" y2="-452.06586632167046" stroke-width="17" stroke="#5e6fa3" stroke-linecap="round"></line><line x1="317.2531845456851" x2="258.67829711894984" y1="-510.6407537484057" y2="-452.06586632167046" stroke-width="17" stroke="#5e6fa3" stroke-linecap="round"></line><line x1="573.253184545685" x2="514.6782971189499" y1="-510.6407537484057" y2="-452.06586632167046" stroke-width="17" stroke="#5e6fa3" stroke-linecap="round"></line><line x1="61.253184545685066" x2="2.678297118949864" y1="-254.64075374840567" y2="-196.06586632167048" stroke-width="17" stroke="#5e6fa3" stroke-linecap="round"></line><line x1="317.2531845456851" x2="258.67829711894984" y1="-254.64075374840567" y2="-196.06586632167048" stroke-width="17" stroke="#5e6fa3" stroke-linecap="round"></line><line x1="573.253184545685" x2="514.6782971189499" y1="-254.64075374840567" y2="-196.06586632167048" stroke-width="17" stroke="#5e6fa3" stroke-linecap="round"></line><line x1="61.253184545685066" x2="2.678297118949864" y1="1.359246251594321" y2="59.93413367832952" stroke-width="17" stroke="#5e6fa3" stroke-linecap="round"></line><line x1="317.2531845456851" x2="258.67829711894984" y1="1.359246251594321" y2="59.93413367832952" stroke-width="17" stroke="#5e6fa3" stroke-linecap="round"></line><line x1="573.253184545685" x2="514.6782971189499" y1="1.359246251594321" y2="59.93413367832952" stroke-width="17" stroke="#5e6fa3" stroke-linecap="round"></line><line x1="117.63355379658032" x2="61.526000684933535" y1="-27.871924641887862" y2="28.235628469758925" stroke-width="17" stroke="#93dbe9" stroke-linecap="round"></line><line x1="117.63355379658032" x2="61.526000684933535" y1="-539.8719246418879" y2="-483.7643715302411" stroke-width="17" stroke="#93dbe9" stroke-linecap="round"></line><line x1="373.6335537965803" x2="317.52600068493354" y1="-539.8719246418879" y2="-483.7643715302411" stroke-width="17" stroke="#93dbe9" stroke-linecap="round"></line><line x1="629.6335537965804" x2="573.5260006849335" y1="-539.8719246418879" y2="-483.7643715302411" stroke-width="17" stroke="#93dbe9" stroke-linecap="round"></line><line x1="117.63355379658032" x2="61.526000684933535" y1="-283.87192464188786" y2="-227.76437153024108" stroke-width="17" stroke="#93dbe9" stroke-linecap="round"></line><line x1="373.6335537965803" x2="317.52600068493354" y1="-283.87192464188786" y2="-227.76437153024108" stroke-width="17" stroke="#93dbe9" stroke-linecap="round"></line><line x1="629.6335537965804" x2="573.5260006849335" y1="-283.87192464188786" y2="-227.76437153024108" stroke-width="17" stroke="#93dbe9" stroke-linecap="round"></line><line x1="117.63355379658032" x2="61.526000684933535" y1="-27.871924641887862" y2="28.235628469758925" stroke-width="17" stroke="#93dbe9" stroke-linecap="round"></line><line x1="373.6335537965803" x2="317.52600068493354" y1="-27.871924641887862" y2="28.235628469758925" stroke-width="17" stroke="#93dbe9" stroke-linecap="round"></line><line x1="629.6335537965804" x2="573.5260006849335" y1="-27.871924641887862" y2="28.235628469758925" stroke-width="17" stroke="#93dbe9" stroke-linecap="round"></line><line x1="117.63355379658032" x2="61.526000684933535" y1="228.12807535811214" y2="284.2356284697589" stroke-width="17" stroke="#93dbe9" stroke-linecap="round"></line><line x1="26.95515548496481" x2="-7.964266248521614" y1="50.31779257246073" y2="85.23721430594715" stroke-width="17" stroke="#93dbe9" stroke-linecap="round"></line><line x1="26.95515548496481" x2="-7.964266248521614" y1="-461.68220742753925" y2="-426.76278569405287" stroke-width="17" stroke="#93dbe9" stroke-linecap="round"></line><line x1="282.9551554849648" x2="248.03573375147838" y1="-461.68220742753925" y2="-426.76278569405287" stroke-width="17" stroke="#93dbe9" stroke-linecap="round"></line><line x1="538.9551554849648" x2="504.0357337514784" y1="-461.68220742753925" y2="-426.76278569405287" stroke-width="17" stroke="#93dbe9" stroke-linecap="round"></line><line x1="26.95515548496481" x2="-7.964266248521614" y1="-205.68220742753925" y2="-170.76278569405287" stroke-width="17" stroke="#93dbe9" stroke-linecap="round"></line><line x1="282.9551554849648" x2="248.03573375147838" y1="-205.68220742753925" y2="-170.76278569405287" stroke-width="17" stroke="#93dbe9" stroke-linecap="round"></line><line x1="538.9551554849648" x2="504.0357337514784" y1="-205.68220742753925" y2="-170.76278569405287" stroke-width="17" stroke="#93dbe9" stroke-linecap="round"></line><line x1="26.95515548496481" x2="-7.964266248521614" y1="50.31779257246073" y2="85.23721430594715" stroke-width="17" stroke="#93dbe9" stroke-linecap="round"></line><line x1="282.9551554849648" x2="248.03573375147838" y1="50.31779257246073" y2="85.23721430594715" stroke-width="17" stroke="#93dbe9" stroke-linecap="round"></line><line x1="538.9551554849648" x2="504.0357337514784" y1="50.31779257246073" y2="85.23721430594715" stroke-width="17" stroke="#93dbe9" stroke-linecap="round"></line><line x1="171.35677579371134" x2="131.32311678883173" y1="144.93939900405616" y2="184.97305800893577" stroke-width="17" stroke="#93dbe9" stroke-linecap="round"></line><line x1="171.35677579371134" x2="131.32311678883173" y1="-367.06060099594384" y2="-327.02694199106423" stroke-width="17" stroke="#93dbe9" stroke-linecap="round"></line><line x1="427.35677579371134" x2="387.3231167888317" y1="-367.06060099594384" y2="-327.02694199106423" stroke-width="17" stroke="#93dbe9" stroke-linecap="round"></line><line x1="683.3567757937113" x2="643.3231167888317" y1="-367.06060099594384" y2="-327.02694199106423" stroke-width="17" stroke="#93dbe9" stroke-linecap="round"></line><line x1="171.35677579371134" x2="131.32311678883173" y1="-111.06060099594384" y2="-71.02694199106423" stroke-width="17" stroke="#93dbe9" stroke-linecap="round"></line><line x1="427.35677579371134" x2="387.3231167888317" y1="-111.06060099594384" y2="-71.02694199106423" stroke-width="17" stroke="#93dbe9" stroke-linecap="round"></line><line x1="683.3567757937113" x2="643.3231167888317" y1="-111.06060099594384" y2="-71.02694199106423" stroke-width="17" stroke="#93dbe9" stroke-linecap="round"></line><line x1="171.35677579371134" x2="131.32311678883173" y1="144.93939900405616" y2="184.97305800893577" stroke-width="17" stroke="#93dbe9" stroke-linecap="round"></line><line x1="427.35677579371134" x2="387.3231167888317" y1="144.93939900405616" y2="184.97305800893577" stroke-width="17" stroke="#93dbe9" stroke-linecap="round"></line><line x1="683.3567757937113" x2="643.3231167888317" y1="144.93939900405616" y2="184.97305800893577" stroke-width="17" stroke="#93dbe9" stroke-linecap="round"></line><line x1="216.47977737161514" x2="150.78637938253982" y1="215.88897634006278" y2="281.58237432913813" stroke-width="17" stroke="#93dbe9" stroke-linecap="round"></line><line x1="216.47977737161514" x2="150.78637938253982" y1="-296.11102365993725" y2="-230.41762567086187" stroke-width="17" stroke="#93dbe9" stroke-linecap="round"></line><line x1="472.4797773716151" x2="406.78637938253985" y1="-296.11102365993725" y2="-230.41762567086187" stroke-width="17" stroke="#93dbe9" stroke-linecap="round"></line><line x1="728.4797773716151" x2="662.7863793825398" y1="-296.11102365993725" y2="-230.41762567086187" stroke-width="17" stroke="#93dbe9" stroke-linecap="round"></line><line x1="216.47977737161514" x2="150.78637938253982" y1="-40.11102365993722" y2="25.582374329138133" stroke-width="17" stroke="#93dbe9" stroke-linecap="round"></line><line x1="472.4797773716151" x2="406.78637938253985" y1="-40.11102365993722" y2="25.582374329138133" stroke-width="17" stroke="#93dbe9" stroke-linecap="round"></line><line x1="728.4797773716151" x2="662.7863793825398" y1="-40.11102365993722" y2="25.582374329138133" stroke-width="17" stroke="#93dbe9" stroke-linecap="round"></line><line x1="216.47977737161514" x2="150.78637938253982" y1="215.88897634006278" y2="281.58237432913813" stroke-width="17" stroke="#93dbe9" stroke-linecap="round"></line><line x1="472.4797773716151" x2="406.78637938253985" y1="215.88897634006278" y2="281.58237432913813" stroke-width="17" stroke="#93dbe9" stroke-linecap="round"></line><line x1="728.4797773716151" x2="662.7863793825398" y1="215.88897634006278" y2="281.58237432913813" stroke-width="17" stroke="#93dbe9" stroke-linecap="round"></line><line x1="138.90173473301473" x2="105.24202860990073" y1="177.303686750768" y2="210.96339287388201" stroke-width="17" stroke="#93dbe9" stroke-linecap="round"></line><line x1="138.90173473301473" x2="105.24202860990073" y1="-334.696313249232" y2="-301.036607126118" stroke-width="17" stroke="#93dbe9" stroke-linecap="round"></line><line x1="394.90173473301473" x2="361.24202860990073" y1="-334.696313249232" y2="-301.036607126118" stroke-width="17" stroke="#93dbe9" stroke-linecap="round"></line><line x1="650.9017347330148" x2="617.2420286099007" y1="-334.696313249232" y2="-301.036607126118" stroke-width="17" stroke="#93dbe9" stroke-linecap="round"></line><line x1="138.90173473301473" x2="105.24202860990073" y1="-78.69631324923199" y2="-45.036607126117985" stroke-width="17" stroke="#93dbe9" stroke-linecap="round"></line><line x1="394.90173473301473" x2="361.24202860990073" y1="-78.69631324923199" y2="-45.036607126117985" stroke-width="17" stroke="#93dbe9" stroke-linecap="round"></line><line x1="650.9017347330148" x2="617.2420286099007" y1="-78.69631324923199" y2="-45.036607126117985" stroke-width="17" stroke="#93dbe9" stroke-linecap="round"></line><line x1="138.90173473301473" x2="105.24202860990073" y1="177.303686750768" y2="210.96339287388201" stroke-width="17" stroke="#93dbe9" stroke-linecap="round"></line><line x1="394.90173473301473" x2="361.24202860990073" y1="177.303686750768" y2="210.96339287388201" stroke-width="17" stroke="#93dbe9" stroke-linecap="round"></line><line x1="650.9017347330148" x2="617.2420286099007" y1="177.303686750768" y2="210.96339287388201" stroke-width="17" stroke="#93dbe9" stroke-linecap="round"></line><line x1="157.4480091788176" x2="134.99906070080183" y1="243.44212553247573" y2="265.89107401049154" stroke-width="17" stroke="#93dbe9" stroke-linecap="round"></line><line x1="157.4480091788176" x2="134.99906070080183" y1="-268.55787446752424" y2="-246.10892598950846" stroke-width="17" stroke="#93dbe9" stroke-linecap="round"></line><line x1="413.44800917881764" x2="390.9990607008018" y1="-268.55787446752424" y2="-246.10892598950846" stroke-width="17" stroke="#93dbe9" stroke-linecap="round"></line><line x1="669.4480091788176" x2="646.9990607008018" y1="-268.55787446752424" y2="-246.10892598950846" stroke-width="17" stroke="#93dbe9" stroke-linecap="round"></line><line x1="157.4480091788176" x2="134.99906070080183" y1="-12.557874467524272" y2="9.891074010491536" stroke-width="17" stroke="#93dbe9" stroke-linecap="round"></line><line x1="413.44800917881764" x2="390.9990607008018" y1="-12.557874467524272" y2="9.891074010491536" stroke-width="17" stroke="#93dbe9" stroke-linecap="round"></line><line x1="669.4480091788176" x2="646.9990607008018" y1="-12.557874467524272" y2="9.891074010491536" stroke-width="17" stroke="#93dbe9" stroke-linecap="round"></line><line x1="157.4480091788176" x2="134.99906070080183" y1="243.44212553247573" y2="265.89107401049154" stroke-width="17" stroke="#93dbe9" stroke-linecap="round"></line><line x1="413.44800917881764" x2="390.9990607008018" y1="243.44212553247573" y2="265.89107401049154" stroke-width="17" stroke="#93dbe9" stroke-linecap="round"></line><line x1="669.4480091788176" x2="646.9990607008018" y1="243.44212553247573" y2="265.89107401049154" stroke-width="17" stroke="#93dbe9" stroke-linecap="round"></line><line x1="41.06119314887956" x2="-28.367877819104187" y1="190.07492451142542" y2="259.5039954794092" stroke-width="17" stroke="#689cc5" stroke-linecap="round"></line><line x1="41.06119314887956" x2="-28.367877819104187" y1="-321.9250754885746" y2="-252.49600452059082" stroke-width="17" stroke="#689cc5" stroke-linecap="round"></line><line x1="297.06119314887957" x2="227.6321221808958" y1="-321.9250754885746" y2="-252.49600452059082" stroke-width="17" stroke="#689cc5" stroke-linecap="round"></line><line x1="553.0611931488795" x2="483.6321221808958" y1="-321.9250754885746" y2="-252.49600452059082" stroke-width="17" stroke="#689cc5" stroke-linecap="round"></line><line x1="41.06119314887956" x2="-28.367877819104187" y1="-65.92507548857458" y2="3.503995479409184" stroke-width="17" stroke="#689cc5" stroke-linecap="round"></line><line x1="297.06119314887957" x2="227.6321221808958" y1="-65.92507548857458" y2="3.503995479409184" stroke-width="17" stroke="#689cc5" stroke-linecap="round"></line><line x1="553.0611931488795" x2="483.6321221808958" y1="-65.92507548857458" y2="3.503995479409184" stroke-width="17" stroke="#689cc5" stroke-linecap="round"></line><line x1="41.06119314887956" x2="-28.367877819104187" y1="190.07492451142542" y2="259.5039954794092" stroke-width="17" stroke="#689cc5" stroke-linecap="round"></line><line x1="297.06119314887957" x2="227.6321221808958" y1="190.07492451142542" y2="259.5039954794092" stroke-width="17" stroke="#689cc5" stroke-linecap="round"></line><line x1="553.0611931488795" x2="483.6321221808958" y1="190.07492451142542" y2="259.5039954794092" stroke-width="17" stroke="#689cc5" stroke-linecap="round"></line><line x1="223.54235195773057" x2="191.5126500466179" y1="146.30335703713249" y2="178.33305894824517" stroke-width="17" stroke="#93dbe9" stroke-linecap="round"></line><line x1="223.54235195773057" x2="191.5126500466179" y1="-365.6966429628675" y2="-333.66694105175486" stroke-width="17" stroke="#93dbe9" stroke-linecap="round"></line><line x1="479.5423519577306" x2="447.51265004661786" y1="-365.6966429628675" y2="-333.66694105175486" stroke-width="17" stroke="#93dbe9" stroke-linecap="round"></line><line x1="735.5423519577306" x2="703.5126500466179" y1="-365.6966429628675" y2="-333.66694105175486" stroke-width="17" stroke="#93dbe9" stroke-linecap="round"></line><line x1="223.54235195773057" x2="191.5126500466179" y1="-109.69664296286751" y2="-77.66694105175483" stroke-width="17" stroke="#93dbe9" stroke-linecap="round"></line><line x1="479.5423519577306" x2="447.51265004661786" y1="-109.69664296286751" y2="-77.66694105175483" stroke-width="17" stroke="#93dbe9" stroke-linecap="round"></line><line x1="735.5423519577306" x2="703.5126500466179" y1="-109.69664296286751" y2="-77.66694105175483" stroke-width="17" stroke="#93dbe9" stroke-linecap="round"></line><line x1="223.54235195773057" x2="191.5126500466179" y1="146.30335703713249" y2="178.33305894824517" stroke-width="17" stroke="#93dbe9" stroke-linecap="round"></line><line x1="479.5423519577306" x2="447.51265004661786" y1="146.30335703713249" y2="178.33305894824517" stroke-width="17" stroke="#93dbe9" stroke-linecap="round"></line><line x1="735.5423519577306" x2="703.5126500466179" y1="146.30335703713249" y2="178.33305894824517" stroke-width="17" stroke="#93dbe9" stroke-linecap="round"></line><line x1="217.98326869882553" x2="175.74613787718695" y1="77.96325782975819" y2="120.20038865139676" stroke-width="17" stroke="#93dbe9" stroke-linecap="round"></line><line x1="217.98326869882553" x2="175.74613787718695" y1="-434.03674217024184" y2="-391.7996113486032" stroke-width="17" stroke="#93dbe9" stroke-linecap="round"></line><line x1="473.98326869882555" x2="431.7461378771869" y1="-434.03674217024184" y2="-391.7996113486032" stroke-width="17" stroke="#93dbe9" stroke-linecap="round"></line><line x1="729.9832686988256" x2="687.7461378771869" y1="-434.03674217024184" y2="-391.7996113486032" stroke-width="17" stroke="#93dbe9" stroke-linecap="round"></line><line x1="217.98326869882553" x2="175.74613787718695" y1="-178.0367421702418" y2="-135.79961134860324" stroke-width="17" stroke="#93dbe9" stroke-linecap="round"></line><line x1="473.98326869882555" x2="431.7461378771869" y1="-178.0367421702418" y2="-135.79961134860324" stroke-width="17" stroke="#93dbe9" stroke-linecap="round"></line><line x1="729.9832686988256" x2="687.7461378771869" y1="-178.0367421702418" y2="-135.79961134860324" stroke-width="17" stroke="#93dbe9" stroke-linecap="round"></line><line x1="217.98326869882553" x2="175.74613787718695" y1="77.96325782975819" y2="120.20038865139676" stroke-width="17" stroke="#93dbe9" stroke-linecap="round"></line><line x1="473.98326869882555" x2="431.7461378771869" y1="77.96325782975819" y2="120.20038865139676" stroke-width="17" stroke="#93dbe9" stroke-linecap="round"></line><line x1="729.9832686988256" x2="687.7461378771869" y1="77.96325782975819" y2="120.20038865139676" stroke-width="17" stroke="#93dbe9" stroke-linecap="round"></line>
      <animateTransform attributeName="transform" type="translate" values="0 0;-256 256" keyTimes="0;1" repeatCount="indefinite" dur="25s"></animateTransform>
    </g><g>
      <line x1="71.91569756110977" x2="15.716244394201393" y1="203.173939148305" y2="259.3733923152134" stroke-width="17" stroke="#689cc5" stroke-linecap="round"></line><line x1="71.91569756110977" x2="15.716244394201393" y1="-308.826060851695" y2="-252.62660768478662" stroke-width="17" stroke="#689cc5" stroke-linecap="round"></line><line x1="327.91569756110977" x2="271.7162443942014" y1="-308.826060851695" y2="-252.62660768478662" stroke-width="17" stroke="#689cc5" stroke-linecap="round"></line><line x1="583.9156975611097" x2="527.7162443942013" y1="-308.826060851695" y2="-252.62660768478662" stroke-width="17" stroke="#689cc5" stroke-linecap="round"></line><line x1="71.91569756110977" x2="15.716244394201393" y1="-52.82606085169499" y2="3.37339231521338" stroke-width="17" stroke="#689cc5" stroke-linecap="round"></line><line x1="327.91569756110977" x2="271.7162443942014" y1="-52.82606085169499" y2="3.37339231521338" stroke-width="17" stroke="#689cc5" stroke-linecap="round"></line><line x1="583.9156975611097" x2="527.7162443942013" y1="-52.82606085169499" y2="3.37339231521338" stroke-width="17" stroke="#689cc5" stroke-linecap="round"></line><line x1="71.91569756110977" x2="15.716244394201393" y1="203.173939148305" y2="259.3733923152134" stroke-width="17" stroke="#689cc5" stroke-linecap="round"></line><line x1="327.91569756110977" x2="271.7162443942014" y1="203.173939148305" y2="259.3733923152134" stroke-width="17" stroke="#689cc5" stroke-linecap="round"></line><line x1="583.9156975611097" x2="527.7162443942013" y1="203.173939148305" y2="259.3733923152134" stroke-width="17" stroke="#689cc5" stroke-linecap="round"></line><line x1="100.19778350912817" x2="40.76948708581391" y1="172.52911656319793" y2="231.95741298651217" stroke-width="17" stroke="#689cc5" stroke-linecap="round"></line><line x1="100.19778350912817" x2="40.76948708581391" y1="-339.47088343680207" y2="-280.04258701348783" stroke-width="17" stroke="#689cc5" stroke-linecap="round"></line><line x1="356.19778350912816" x2="296.7694870858139" y1="-339.47088343680207" y2="-280.04258701348783" stroke-width="17" stroke="#689cc5" stroke-linecap="round"></line><line x1="612.1977835091282" x2="552.7694870858139" y1="-339.47088343680207" y2="-280.04258701348783" stroke-width="17" stroke="#689cc5" stroke-linecap="round"></line><line x1="100.19778350912817" x2="40.76948708581391" y1="-83.47088343680207" y2="-24.042587013487832" stroke-width="17" stroke="#689cc5" stroke-linecap="round"></line><line x1="356.19778350912816" x2="296.7694870858139" y1="-83.47088343680207" y2="-24.042587013487832" stroke-width="17" stroke="#689cc5" stroke-linecap="round"></line><line x1="612.1977835091282" x2="552.7694870858139" y1="-83.47088343680207" y2="-24.042587013487832" stroke-width="17" stroke="#689cc5" stroke-linecap="round"></line><line x1="100.19778350912817" x2="40.76948708581391" y1="172.52911656319793" y2="231.95741298651217" stroke-width="17" stroke="#689cc5" stroke-linecap="round"></line><line x1="356.19778350912816" x2="296.7694870858139" y1="172.52911656319793" y2="231.95741298651217" stroke-width="17" stroke="#689cc5" stroke-linecap="round"></line><line x1="612.1977835091282" x2="552.7694870858139" y1="172.52911656319793" y2="231.95741298651217" stroke-width="17" stroke="#689cc5" stroke-linecap="round"></line><line x1="213.2381854072459" x2="157.39228641928293" y1="217.7855761775765" y2="273.6314751655395" stroke-width="17" stroke="#689cc5" stroke-linecap="round"></line><line x1="213.2381854072459" x2="157.39228641928293" y1="-294.2144238224235" y2="-238.36852483446052" stroke-width="17" stroke="#689cc5" stroke-linecap="round"></line><line x1="469.2381854072459" x2="413.3922864192829" y1="-294.2144238224235" y2="-238.36852483446052" stroke-width="17" stroke="#689cc5" stroke-linecap="round"></line><line x1="725.238185407246" x2="669.392286419283" y1="-294.2144238224235" y2="-238.36852483446052" stroke-width="17" stroke="#689cc5" stroke-linecap="round"></line><line x1="213.2381854072459" x2="157.39228641928293" y1="-38.2144238224235" y2="17.631475165539484" stroke-width="17" stroke="#689cc5" stroke-linecap="round"></line><line x1="469.2381854072459" x2="413.3922864192829" y1="-38.2144238224235" y2="17.631475165539484" stroke-width="17" stroke="#689cc5" stroke-linecap="round"></line><line x1="725.238185407246" x2="669.392286419283" y1="-38.2144238224235" y2="17.631475165539484" stroke-width="17" stroke="#689cc5" stroke-linecap="round"></line><line x1="213.2381854072459" x2="157.39228641928293" y1="217.7855761775765" y2="273.6314751655395" stroke-width="17" stroke="#689cc5" stroke-linecap="round"></line><line x1="469.2381854072459" x2="413.3922864192829" y1="217.7855761775765" y2="273.6314751655395" stroke-width="17" stroke="#689cc5" stroke-linecap="round"></line><line x1="725.238185407246" x2="669.392286419283" y1="217.7855761775765" y2="273.6314751655395" stroke-width="17" stroke="#689cc5" stroke-linecap="round"></line><line x1="33.27332893022041" x2="25.614502345307947" y1="130.8020415336545" y2="138.46086811856694" stroke-width="17" stroke="#689cc5" stroke-linecap="round"></line><line x1="33.27332893022041" x2="25.614502345307947" y1="-381.19795846634554" y2="-373.53913188143304" stroke-width="17" stroke="#689cc5" stroke-linecap="round"></line><line x1="289.27332893022043" x2="281.6145023453079" y1="-381.19795846634554" y2="-373.53913188143304" stroke-width="17" stroke="#689cc5" stroke-linecap="round"></line><line x1="545.2733289302204" x2="537.614502345308" y1="-381.19795846634554" y2="-373.53913188143304" stroke-width="17" stroke="#689cc5" stroke-linecap="round"></line><line x1="33.27332893022041" x2="25.614502345307947" y1="-125.19795846634551" y2="-117.53913188143306" stroke-width="17" stroke="#689cc5" stroke-linecap="round"></line><line x1="289.27332893022043" x2="281.6145023453079" y1="-125.19795846634551" y2="-117.53913188143306" stroke-width="17" stroke="#689cc5" stroke-linecap="round"></line><line x1="545.2733289302204" x2="537.614502345308" y1="-125.19795846634551" y2="-117.53913188143306" stroke-width="17" stroke="#689cc5" stroke-linecap="round"></line><line x1="33.27332893022041" x2="25.614502345307947" y1="130.8020415336545" y2="138.46086811856694" stroke-width="17" stroke="#689cc5" stroke-linecap="round"></line><line x1="289.27332893022043" x2="281.6145023453079" y1="130.8020415336545" y2="138.46086811856694" stroke-width="17" stroke="#689cc5" stroke-linecap="round"></line><line x1="545.2733289302204" x2="537.614502345308" y1="130.8020415336545" y2="138.46086811856694" stroke-width="17" stroke="#689cc5" stroke-linecap="round"></line><line x1="108.96910557579308" x2="73.4071559985967" y1="68.6515659129209" y2="104.21351549011727" stroke-width="17" stroke="#689cc5" stroke-linecap="round"></line><line x1="108.96910557579308" x2="73.4071559985967" y1="-443.3484340870791" y2="-407.7864845098827" stroke-width="17" stroke="#689cc5" stroke-linecap="round"></line><line x1="364.9691055757931" x2="329.4071559985967" y1="-443.3484340870791" y2="-407.7864845098827" stroke-width="17" stroke="#689cc5" stroke-linecap="round"></line><line x1="620.969105575793" x2="585.4071559985967" y1="-443.3484340870791" y2="-407.7864845098827" stroke-width="17" stroke="#689cc5" stroke-linecap="round"></line><line x1="108.96910557579308" x2="73.4071559985967" y1="-187.3484340870791" y2="-151.7864845098827" stroke-width="17" stroke="#689cc5" stroke-linecap="round"></line><line x1="364.9691055757931" x2="329.4071559985967" y1="-187.3484340870791" y2="-151.7864845098827" stroke-width="17" stroke="#689cc5" stroke-linecap="round"></line><line x1="620.969105575793" x2="585.4071559985967" y1="-187.3484340870791" y2="-151.7864845098827" stroke-width="17" stroke="#689cc5" stroke-linecap="round"></line><line x1="108.96910557579308" x2="73.4071559985967" y1="68.6515659129209" y2="104.21351549011727" stroke-width="17" stroke="#689cc5" stroke-linecap="round"></line><line x1="364.9691055757931" x2="329.4071559985967" y1="68.6515659129209" y2="104.21351549011727" stroke-width="17" stroke="#689cc5" stroke-linecap="round"></line><line x1="620.969105575793" x2="585.4071559985967" y1="68.6515659129209" y2="104.21351549011727" stroke-width="17" stroke="#689cc5" stroke-linecap="round"></line><line x1="273.2532104038911" x2="225.28207711182029" y1="74.76647814687459" y2="122.73761143894541" stroke-width="17" stroke="#689cc5" stroke-linecap="round"></line><line x1="273.2532104038911" x2="225.28207711182029" y1="-437.2335218531254" y2="-389.2623885610546" stroke-width="17" stroke="#689cc5" stroke-linecap="round"></line><line x1="529.2532104038911" x2="481.2820771118203" y1="-437.2335218531254" y2="-389.2623885610546" stroke-width="17" stroke="#689cc5" stroke-linecap="round"></line><line x1="785.2532104038911" x2="737.2820771118203" y1="-437.2335218531254" y2="-389.2623885610546" stroke-width="17" stroke="#689cc5" stroke-linecap="round"></line><line x1="273.2532104038911" x2="225.28207711182029" y1="-181.2335218531254" y2="-133.2623885610546" stroke-width="17" stroke="#689cc5" stroke-linecap="round"></line><line x1="529.2532104038911" x2="481.2820771118203" y1="-181.2335218531254" y2="-133.2623885610546" stroke-width="17" stroke="#689cc5" stroke-linecap="round"></line><line x1="785.2532104038911" x2="737.2820771118203" y1="-181.2335218531254" y2="-133.2623885610546" stroke-width="17" stroke="#689cc5" stroke-linecap="round"></line><line x1="273.2532104038911" x2="225.28207711182029" y1="74.76647814687459" y2="122.73761143894541" stroke-width="17" stroke="#689cc5" stroke-linecap="round"></line><line x1="529.2532104038911" x2="481.2820771118203" y1="74.76647814687459" y2="122.73761143894541" stroke-width="17" stroke="#689cc5" stroke-linecap="round"></line><line x1="785.2532104038911" x2="737.2820771118203" y1="74.76647814687459" y2="122.73761143894541" stroke-width="17" stroke="#689cc5" stroke-linecap="round"></line><line x1="17.253210403891103" x2="-30.717922888179714" y1="74.76647814687459" y2="122.73761143894541" stroke-width="17" stroke="#689cc5" stroke-linecap="round"></line><line x1="126.03083881684319" x2="114.36290513534499" y1="157.42066915759807" y2="169.08860283909627" stroke-width="17" stroke="#689cc5" stroke-linecap="round"></line><line x1="126.03083881684319" x2="114.36290513534499" y1="-354.57933084240193" y2="-342.91139716090373" stroke-width="17" stroke="#689cc5" stroke-linecap="round"></line><line x1="382.0308388168432" x2="370.362905135345" y1="-354.57933084240193" y2="-342.91139716090373" stroke-width="17" stroke="#689cc5" stroke-linecap="round"></line><line x1="638.0308388168432" x2="626.362905135345" y1="-354.57933084240193" y2="-342.91139716090373" stroke-width="17" stroke="#689cc5" stroke-linecap="round"></line><line x1="126.03083881684319" x2="114.36290513534499" y1="-98.57933084240193" y2="-86.91139716090373" stroke-width="17" stroke="#689cc5" stroke-linecap="round"></line><line x1="382.0308388168432" x2="370.362905135345" y1="-98.57933084240193" y2="-86.91139716090373" stroke-width="17" stroke="#689cc5" stroke-linecap="round"></line><line x1="638.0308388168432" x2="626.362905135345" y1="-98.57933084240193" y2="-86.91139716090373" stroke-width="17" stroke="#689cc5" stroke-linecap="round"></line><line x1="126.03083881684319" x2="114.36290513534499" y1="157.42066915759807" y2="169.08860283909627" stroke-width="17" stroke="#689cc5" stroke-linecap="round"></line><line x1="382.0308388168432" x2="370.362905135345" y1="157.42066915759807" y2="169.08860283909627" stroke-width="17" stroke="#689cc5" stroke-linecap="round"></line><line x1="638.0308388168432" x2="626.362905135345" y1="157.42066915759807" y2="169.08860283909627" stroke-width="17" stroke="#689cc5" stroke-linecap="round"></line><line x1="196.58998620871319" x2="127.42085045724627" y1="40.67544301088225" y2="109.84457876234916" stroke-width="17" stroke="#689cc5" stroke-linecap="round"></line><line x1="196.58998620871319" x2="127.42085045724627" y1="-471.32455698911775" y2="-402.15542123765084" stroke-width="17" stroke="#689cc5" stroke-linecap="round"></line><line x1="452.5899862087132" x2="383.4208504572463" y1="-471.32455698911775" y2="-402.15542123765084" stroke-width="17" stroke="#689cc5" stroke-linecap="round"></line><line x1="708.5899862087132" x2="639.4208504572463" y1="-471.32455698911775" y2="-402.15542123765084" stroke-width="17" stroke="#689cc5" stroke-linecap="round"></line><line x1="196.58998620871319" x2="127.42085045724627" y1="-215.32455698911775" y2="-146.15542123765084" stroke-width="17" stroke="#689cc5" stroke-linecap="round"></line><line x1="452.5899862087132" x2="383.4208504572463" y1="-215.32455698911775" y2="-146.15542123765084" stroke-width="17" stroke="#689cc5" stroke-linecap="round"></line><line x1="708.5899862087132" x2="639.4208504572463" y1="-215.32455698911775" y2="-146.15542123765084" stroke-width="17" stroke="#689cc5" stroke-linecap="round"></line><line x1="196.58998620871319" x2="127.42085045724627" y1="40.67544301088225" y2="109.84457876234916" stroke-width="17" stroke="#689cc5" stroke-linecap="round"></line><line x1="452.5899862087132" x2="383.4208504572463" y1="40.67544301088225" y2="109.84457876234916" stroke-width="17" stroke="#689cc5" stroke-linecap="round"></line><line x1="708.5899862087132" x2="639.4208504572463" y1="40.67544301088225" y2="109.84457876234916" stroke-width="17" stroke="#689cc5" stroke-linecap="round"></line><line x1="113.94849296349986" x2="49.33456201679832" y1="87.14243539430788" y2="151.75636634100943" stroke-width="17" stroke="#689cc5" stroke-linecap="round"></line><line x1="113.94849296349986" x2="49.33456201679832" y1="-424.8575646056921" y2="-360.2436336589906" stroke-width="17" stroke="#689cc5" stroke-linecap="round"></line><line x1="369.94849296349986" x2="305.3345620167983" y1="-424.8575646056921" y2="-360.2436336589906" stroke-width="17" stroke="#689cc5" stroke-linecap="round"></line><line x1="625.9484929634998" x2="561.3345620167984" y1="-424.8575646056921" y2="-360.2436336589906" stroke-width="17" stroke="#689cc5" stroke-linecap="round"></line><line x1="113.94849296349986" x2="49.33456201679832" y1="-168.85756460569212" y2="-104.24363365899057" stroke-width="17" stroke="#689cc5" stroke-linecap="round"></line><line x1="369.94849296349986" x2="305.3345620167983" y1="-168.85756460569212" y2="-104.24363365899057" stroke-width="17" stroke="#689cc5" stroke-linecap="round"></line><line x1="625.9484929634998" x2="561.3345620167984" y1="-168.85756460569212" y2="-104.24363365899057" stroke-width="17" stroke="#689cc5" stroke-linecap="round"></line><line x1="113.94849296349986" x2="49.33456201679832" y1="87.14243539430788" y2="151.75636634100943" stroke-width="17" stroke="#689cc5" stroke-linecap="round"></line><line x1="369.94849296349986" x2="305.3345620167983" y1="87.14243539430788" y2="151.75636634100943" stroke-width="17" stroke="#689cc5" stroke-linecap="round"></line><line x1="625.9484929634998" x2="561.3345620167984" y1="87.14243539430788" y2="151.75636634100943" stroke-width="17" stroke="#689cc5" stroke-linecap="round"></line><line x1="193.08965194159595" x2="119.22250224358815" y1="19.94585921275454" y2="93.81300891076235" stroke-width="17" stroke="#689cc5" stroke-linecap="round"></line><line x1="193.08965194159595" x2="119.22250224358815" y1="-492.05414078724544" y2="-418.18699108923767" stroke-width="17" stroke="#689cc5" stroke-linecap="round"></line><line x1="449.08965194159595" x2="375.22250224358817" y1="-492.05414078724544" y2="-418.18699108923767" stroke-width="17" stroke="#689cc5" stroke-linecap="round"></line><line x1="705.089651941596" x2="631.2225022435881" y1="-492.05414078724544" y2="-418.18699108923767" stroke-width="17" stroke="#689cc5" stroke-linecap="round"></line><line x1="193.08965194159595" x2="119.22250224358815" y1="-236.05414078724544" y2="-162.18699108923767" stroke-width="17" stroke="#689cc5" stroke-linecap="round"></line><line x1="449.08965194159595" x2="375.22250224358817" y1="-236.05414078724544" y2="-162.18699108923767" stroke-width="17" stroke="#689cc5" stroke-linecap="round"></line><line x1="705.089651941596" x2="631.2225022435881" y1="-236.05414078724544" y2="-162.18699108923767" stroke-width="17" stroke="#689cc5" stroke-linecap="round"></line><line x1="193.08965194159595" x2="119.22250224358815" y1="19.94585921275454" y2="93.81300891076235" stroke-width="17" stroke="#689cc5" stroke-linecap="round"></line><line x1="449.08965194159595" x2="375.22250224358817" y1="19.94585921275454" y2="93.81300891076235" stroke-width="17" stroke="#689cc5" stroke-linecap="round"></line><line x1="705.089651941596" x2="631.2225022435881" y1="19.94585921275454" y2="93.81300891076235" stroke-width="17" stroke="#689cc5" stroke-linecap="round"></line><line x1="165.5066816244776" x2="134.02240495655684" y1="221.13582558401822" y2="252.620102251939" stroke-width="17" stroke="#689cc5" stroke-linecap="round"></line><line x1="165.5066816244776" x2="134.02240495655684" y1="-290.8641744159818" y2="-259.379897748061" stroke-width="17" stroke="#689cc5" stroke-linecap="round"></line><line x1="421.5066816244776" x2="390.02240495655684" y1="-290.8641744159818" y2="-259.379897748061" stroke-width="17" stroke="#689cc5" stroke-linecap="round"></line><line x1="677.5066816244776" x2="646.0224049565568" y1="-290.8641744159818" y2="-259.379897748061" stroke-width="17" stroke="#689cc5" stroke-linecap="round"></line><line x1="165.5066816244776" x2="134.02240495655684" y1="-34.86417441598178" y2="-3.379897748061012" stroke-width="17" stroke="#689cc5" stroke-linecap="round"></line><line x1="421.5066816244776" x2="390.02240495655684" y1="-34.86417441598178" y2="-3.379897748061012" stroke-width="17" stroke="#689cc5" stroke-linecap="round"></line><line x1="677.5066816244776" x2="646.0224049565568" y1="-34.86417441598178" y2="-3.379897748061012" stroke-width="17" stroke="#689cc5" stroke-linecap="round"></line><line x1="165.5066816244776" x2="134.02240495655684" y1="221.13582558401822" y2="252.620102251939" stroke-width="17" stroke="#689cc5" stroke-linecap="round"></line><line x1="421.5066816244776" x2="390.02240495655684" y1="221.13582558401822" y2="252.620102251939" stroke-width="17" stroke="#689cc5" stroke-linecap="round"></line><line x1="677.5066816244776" x2="646.0224049565568" y1="221.13582558401822" y2="252.620102251939" stroke-width="17" stroke="#689cc5" stroke-linecap="round"></line><line x1="142.02940517870158" x2="77.27783844152296" y1="159.7963200778203" y2="224.54788681499892" stroke-width="17" stroke="#689cc5" stroke-linecap="round"></line><line x1="142.02940517870158" x2="77.27783844152296" y1="-352.20367992217973" y2="-287.45211318500105" stroke-width="17" stroke="#689cc5" stroke-linecap="round"></line><line x1="398.0294051787016" x2="333.27783844152293" y1="-352.20367992217973" y2="-287.45211318500105" stroke-width="17" stroke="#689cc5" stroke-linecap="round"></line><line x1="654.0294051787016" x2="589.2778384415229" y1="-352.20367992217973" y2="-287.45211318500105" stroke-width="17" stroke="#689cc5" stroke-linecap="round"></line><line x1="142.02940517870158" x2="77.27783844152296" y1="-96.2036799221797" y2="-31.45211318500108" stroke-width="17" stroke="#689cc5" stroke-linecap="round"></line><line x1="398.0294051787016" x2="333.27783844152293" y1="-96.2036799221797" y2="-31.45211318500108" stroke-width="17" stroke="#689cc5" stroke-linecap="round"></line><line x1="654.0294051787016" x2="589.2778384415229" y1="-96.2036799221797" y2="-31.45211318500108" stroke-width="17" stroke="#689cc5" stroke-linecap="round"></line><line x1="142.02940517870158" x2="77.27783844152296" y1="159.7963200778203" y2="224.54788681499892" stroke-width="17" stroke="#689cc5" stroke-linecap="round"></line><line x1="398.0294051787016" x2="333.27783844152293" y1="159.7963200778203" y2="224.54788681499892" stroke-width="17" stroke="#689cc5" stroke-linecap="round"></line><line x1="654.0294051787016" x2="589.2778384415229" y1="159.7963200778203" y2="224.54788681499892" stroke-width="17" stroke="#689cc5" stroke-linecap="round"></line><line x1="98.40708280923343" x2="24.10628116471718" y1="46.87979936292333" y2="121.18060100743958" stroke-width="17" stroke="#689cc5" stroke-linecap="round"></line><line x1="98.40708280923343" x2="24.10628116471718" y1="-465.12020063707666" y2="-390.8193989925604" stroke-width="17" stroke="#689cc5" stroke-linecap="round"></line><line x1="354.40708280923343" x2="280.1062811647172" y1="-465.12020063707666" y2="-390.8193989925604" stroke-width="17" stroke="#689cc5" stroke-linecap="round"></line><line x1="610.4070828092334" x2="536.1062811647172" y1="-465.12020063707666" y2="-390.8193989925604" stroke-width="17" stroke="#689cc5" stroke-linecap="round"></line><line x1="98.40708280923343" x2="24.10628116471718" y1="-209.12020063707666" y2="-134.81939899256042" stroke-width="17" stroke="#689cc5" stroke-linecap="round"></line><line x1="354.40708280923343" x2="280.1062811647172" y1="-209.12020063707666" y2="-134.81939899256042" stroke-width="17" stroke="#689cc5" stroke-linecap="round"></line><line x1="610.4070828092334" x2="536.1062811647172" y1="-209.12020063707666" y2="-134.81939899256042" stroke-width="17" stroke="#689cc5" stroke-linecap="round"></line><line x1="98.40708280923343" x2="24.10628116471718" y1="46.87979936292333" y2="121.18060100743958" stroke-width="17" stroke="#689cc5" stroke-linecap="round"></line><line x1="354.40708280923343" x2="280.1062811647172" y1="46.87979936292333" y2="121.18060100743958" stroke-width="17" stroke="#689cc5" stroke-linecap="round"></line><line x1="610.4070828092334" x2="536.1062811647172" y1="46.87979936292333" y2="121.18060100743958" stroke-width="17" stroke="#689cc5" stroke-linecap="round"></line><line x1="33.338286482515045" x2="-32.931015017422496" y1="-19.594341439594004" y2="46.67496006034354" stroke-width="17" stroke="#689cc5" stroke-linecap="round"></line><line x1="33.338286482515045" x2="-32.931015017422496" y1="-531.594341439594" y2="-465.32503993965645" stroke-width="17" stroke="#689cc5" stroke-linecap="round"></line><line x1="289.33828648251506" x2="223.0689849825775" y1="-531.594341439594" y2="-465.32503993965645" stroke-width="17" stroke="#689cc5" stroke-linecap="round"></line><line x1="545.3382864825151" x2="479.0689849825775" y1="-531.594341439594" y2="-465.32503993965645" stroke-width="17" stroke="#689cc5" stroke-linecap="round"></line><line x1="33.338286482515045" x2="-32.931015017422496" y1="-275.594341439594" y2="-209.32503993965645" stroke-width="17" stroke="#689cc5" stroke-linecap="round"></line><line x1="289.33828648251506" x2="223.0689849825775" y1="-275.594341439594" y2="-209.32503993965645" stroke-width="17" stroke="#689cc5" stroke-linecap="round"></line><line x1="545.3382864825151" x2="479.0689849825775" y1="-275.594341439594" y2="-209.32503993965645" stroke-width="17" stroke="#689cc5" stroke-linecap="round"></line><line x1="33.338286482515045" x2="-32.931015017422496" y1="-19.594341439594004" y2="46.67496006034354" stroke-width="17" stroke="#689cc5" stroke-linecap="round"></line><line x1="289.33828648251506" x2="223.0689849825775" y1="-19.594341439594004" y2="46.67496006034354" stroke-width="17" stroke="#689cc5" stroke-linecap="round"></line><line x1="545.3382864825151" x2="479.0689849825775" y1="-19.594341439594004" y2="46.67496006034354" stroke-width="17" stroke="#689cc5" stroke-linecap="round"></line><line x1="33.338286482515045" x2="-32.931015017422496" y1="236.40565856040598" y2="302.67496006034355" stroke-width="17" stroke="#689cc5" stroke-linecap="round"></line><line x1="8.983765781784701" x2="7.605724509481159" y1="31.413859382630175" y2="32.79190065493372" stroke-width="17" stroke="#689cc5" stroke-linecap="round"></line><line x1="8.983765781784701" x2="7.605724509481159" y1="-480.58614061736984" y2="-479.2080993450663" stroke-width="17" stroke="#689cc5" stroke-linecap="round"></line><line x1="264.9837657817847" x2="263.60572450948115" y1="-480.58614061736984" y2="-479.2080993450663" stroke-width="17" stroke="#689cc5" stroke-linecap="round"></line><line x1="520.9837657817847" x2="519.6057245094812" y1="-480.58614061736984" y2="-479.2080993450663" stroke-width="17" stroke="#689cc5" stroke-linecap="round"></line><line x1="8.983765781784701" x2="7.605724509481159" y1="-224.58614061736984" y2="-223.20809934506627" stroke-width="17" stroke="#689cc5" stroke-linecap="round"></line><line x1="264.9837657817847" x2="263.60572450948115" y1="-224.58614061736984" y2="-223.20809934506627" stroke-width="17" stroke="#689cc5" stroke-linecap="round"></line><line x1="520.9837657817847" x2="519.6057245094812" y1="-224.58614061736984" y2="-223.20809934506627" stroke-width="17" stroke="#689cc5" stroke-linecap="round"></line><line x1="8.983765781784701" x2="7.605724509481159" y1="31.413859382630175" y2="32.79190065493372" stroke-width="17" stroke="#689cc5" stroke-linecap="round"></line><line x1="264.9837657817847" x2="263.60572450948115" y1="31.413859382630175" y2="32.79190065493372" stroke-width="17" stroke="#689cc5" stroke-linecap="round"></line><line x1="520.9837657817847" x2="519.6057245094812" y1="31.413859382630175" y2="32.79190065493372" stroke-width="17" stroke="#689cc5" stroke-linecap="round"></line><line x1="220.69724853350363" x2="198.01648186292493" y1="221.5012133813238" y2="244.18198005190249" stroke-width="17" stroke="#689cc5" stroke-linecap="round"></line><line x1="220.69724853350363" x2="198.01648186292493" y1="-290.4987866186762" y2="-267.8180199480975" stroke-width="17" stroke="#689cc5" stroke-linecap="round"></line><line x1="476.6972485335036" x2="454.01648186292493" y1="-290.4987866186762" y2="-267.8180199480975" stroke-width="17" stroke="#689cc5" stroke-linecap="round"></line><line x1="732.6972485335036" x2="710.0164818629249" y1="-290.4987866186762" y2="-267.8180199480975" stroke-width="17" stroke="#689cc5" stroke-linecap="round"></line><line x1="220.69724853350363" x2="198.01648186292493" y1="-34.498786618676206" y2="-11.818019948097515" stroke-width="17" stroke="#689cc5" stroke-linecap="round"></line><line x1="476.6972485335036" x2="454.01648186292493" y1="-34.498786618676206" y2="-11.818019948097515" stroke-width="17" stroke="#689cc5" stroke-linecap="round"></line><line x1="732.6972485335036" x2="710.0164818629249" y1="-34.498786618676206" y2="-11.818019948097515" stroke-width="17" stroke="#689cc5" stroke-linecap="round"></line><line x1="220.69724853350363" x2="198.01648186292493" y1="221.5012133813238" y2="244.18198005190249" stroke-width="17" stroke="#689cc5" stroke-linecap="round"></line><line x1="476.6972485335036" x2="454.01648186292493" y1="221.5012133813238" y2="244.18198005190249" stroke-width="17" stroke="#689cc5" stroke-linecap="round"></line><line x1="732.6972485335036" x2="710.0164818629249" y1="221.5012133813238" y2="244.18198005190249" stroke-width="17" stroke="#689cc5" stroke-linecap="round"></line><line x1="159.8393296412753" x2="84.41327254032957" y1="198.82842609330373" y2="274.2544831942495" stroke-width="17" stroke="#689cc5" stroke-linecap="round"></line><line x1="159.8393296412753" x2="84.41327254032957" y1="-313.17157390669627" y2="-237.74551680575053" stroke-width="17" stroke="#689cc5" stroke-linecap="round"></line><line x1="415.8393296412753" x2="340.41327254032956" y1="-313.17157390669627" y2="-237.74551680575053" stroke-width="17" stroke="#689cc5" stroke-linecap="round"></line><line x1="671.8393296412753" x2="596.4132725403296" y1="-313.17157390669627" y2="-237.74551680575053" stroke-width="17" stroke="#689cc5" stroke-linecap="round"></line><line x1="159.8393296412753" x2="84.41327254032957" y1="-57.17157390669627" y2="18.254483194249474" stroke-width="17" stroke="#689cc5" stroke-linecap="round"></line><line x1="415.8393296412753" x2="340.41327254032956" y1="-57.17157390669627" y2="18.254483194249474" stroke-width="17" stroke="#689cc5" stroke-linecap="round"></line><line x1="671.8393296412753" x2="596.4132725403296" y1="-57.17157390669627" y2="18.254483194249474" stroke-width="17" stroke="#689cc5" stroke-linecap="round"></line><line x1="159.8393296412753" x2="84.41327254032957" y1="198.82842609330373" y2="274.2544831942495" stroke-width="17" stroke="#689cc5" stroke-linecap="round"></line><line x1="415.8393296412753" x2="340.41327254032956" y1="198.82842609330373" y2="274.2544831942495" stroke-width="17" stroke="#689cc5" stroke-linecap="round"></line><line x1="671.8393296412753" x2="596.4132725403296" y1="198.82842609330373" y2="274.2544831942495" stroke-width="17" stroke="#689cc5" stroke-linecap="round"></line>
      <animateTransform attributeName="transform" type="translate" values="0 0;-256 256" keyTimes="0;1" repeatCount="indefinite" dur="12.5s"></animateTransform>
    </g><g>
      <line x1="46.826418842232336" x2="16.147355370761254" y1="89.43634965170651" y2="120.11541312317758" stroke-width="17" stroke="#5e6fa3" stroke-linecap="round"></line><line x1="46.826418842232336" x2="16.147355370761254" y1="-422.5636503482935" y2="-391.8845868768224" stroke-width="17" stroke="#5e6fa3" stroke-linecap="round"></line><line x1="302.82641884223233" x2="272.14735537076126" y1="-422.5636503482935" y2="-391.8845868768224" stroke-width="17" stroke="#5e6fa3" stroke-linecap="round"></line><line x1="558.8264188422323" x2="528.1473553707613" y1="-422.5636503482935" y2="-391.8845868768224" stroke-width="17" stroke="#5e6fa3" stroke-linecap="round"></line><line x1="46.826418842232336" x2="16.147355370761254" y1="-166.5636503482935" y2="-135.88458687682242" stroke-width="17" stroke="#5e6fa3" stroke-linecap="round"></line><line x1="302.82641884223233" x2="272.14735537076126" y1="-166.5636503482935" y2="-135.88458687682242" stroke-width="17" stroke="#5e6fa3" stroke-linecap="round"></line><line x1="558.8264188422323" x2="528.1473553707613" y1="-166.5636503482935" y2="-135.88458687682242" stroke-width="17" stroke="#5e6fa3" stroke-linecap="round"></line><line x1="46.826418842232336" x2="16.147355370761254" y1="89.43634965170651" y2="120.11541312317758" stroke-width="17" stroke="#5e6fa3" stroke-linecap="round"></line><line x1="302.82641884223233" x2="272.14735537076126" y1="89.43634965170651" y2="120.11541312317758" stroke-width="17" stroke="#5e6fa3" stroke-linecap="round"></line><line x1="558.8264188422323" x2="528.1473553707613" y1="89.43634965170651" y2="120.11541312317758" stroke-width="17" stroke="#5e6fa3" stroke-linecap="round"></line><line x1="189.95299049748724" x2="111.70381347927696" y1="45.75774329661329" y2="124.00692031482356" stroke-width="17" stroke="#5e6fa3" stroke-linecap="round"></line><line x1="189.95299049748724" x2="111.70381347927696" y1="-466.2422567033867" y2="-387.99307968517644" stroke-width="17" stroke="#5e6fa3" stroke-linecap="round"></line><line x1="445.95299049748724" x2="367.70381347927696" y1="-466.2422567033867" y2="-387.99307968517644" stroke-width="17" stroke="#5e6fa3" stroke-linecap="round"></line><line x1="701.9529904974872" x2="623.703813479277" y1="-466.2422567033867" y2="-387.99307968517644" stroke-width="17" stroke="#5e6fa3" stroke-linecap="round"></line><line x1="189.95299049748724" x2="111.70381347927696" y1="-210.24225670338672" y2="-131.99307968517644" stroke-width="17" stroke="#5e6fa3" stroke-linecap="round"></line><line x1="445.95299049748724" x2="367.70381347927696" y1="-210.24225670338672" y2="-131.99307968517644" stroke-width="17" stroke="#5e6fa3" stroke-linecap="round"></line><line x1="701.9529904974872" x2="623.703813479277" y1="-210.24225670338672" y2="-131.99307968517644" stroke-width="17" stroke="#5e6fa3" stroke-linecap="round"></line><line x1="189.95299049748724" x2="111.70381347927696" y1="45.75774329661329" y2="124.00692031482356" stroke-width="17" stroke="#5e6fa3" stroke-linecap="round"></line><line x1="445.95299049748724" x2="367.70381347927696" y1="45.75774329661329" y2="124.00692031482356" stroke-width="17" stroke="#5e6fa3" stroke-linecap="round"></line><line x1="701.9529904974872" x2="623.703813479277" y1="45.75774329661329" y2="124.00692031482356" stroke-width="17" stroke="#5e6fa3" stroke-linecap="round"></line><line x1="248.68858250190144" x2="203.82663522832937" y1="112.45061693842503" y2="157.3125642119971" stroke-width="17" stroke="#5e6fa3" stroke-linecap="round"></line><line x1="248.68858250190144" x2="203.82663522832937" y1="-399.549383061575" y2="-354.68743578800286" stroke-width="17" stroke="#5e6fa3" stroke-linecap="round"></line><line x1="504.68858250190146" x2="459.82663522832934" y1="-399.549383061575" y2="-354.68743578800286" stroke-width="17" stroke="#5e6fa3" stroke-linecap="round"></line><line x1="760.6885825019015" x2="715.8266352283293" y1="-399.549383061575" y2="-354.68743578800286" stroke-width="17" stroke="#5e6fa3" stroke-linecap="round"></line><line x1="248.68858250190144" x2="203.82663522832937" y1="-143.54938306157499" y2="-98.68743578800289" stroke-width="17" stroke="#5e6fa3" stroke-linecap="round"></line><line x1="504.68858250190146" x2="459.82663522832934" y1="-143.54938306157499" y2="-98.68743578800289" stroke-width="17" stroke="#5e6fa3" stroke-linecap="round"></line><line x1="760.6885825019015" x2="715.8266352283293" y1="-143.54938306157499" y2="-98.68743578800289" stroke-width="17" stroke="#5e6fa3" stroke-linecap="round"></line><line x1="248.68858250190144" x2="203.82663522832937" y1="112.45061693842503" y2="157.3125642119971" stroke-width="17" stroke="#5e6fa3" stroke-linecap="round"></line><line x1="504.68858250190146" x2="459.82663522832934" y1="112.45061693842503" y2="157.3125642119971" stroke-width="17" stroke="#5e6fa3" stroke-linecap="round"></line><line x1="760.6885825019015" x2="715.8266352283293" y1="112.45061693842503" y2="157.3125642119971" stroke-width="17" stroke="#5e6fa3" stroke-linecap="round"></line><line x1="282.355028961909" x2="219.77419524675946" y1="48.051913901861546" y2="110.63274761701109" stroke-width="17" stroke="#5e6fa3" stroke-linecap="round"></line><line x1="282.355028961909" x2="219.77419524675946" y1="-463.94808609813845" y2="-401.3672523829889" stroke-width="17" stroke="#5e6fa3" stroke-linecap="round"></line><line x1="538.355028961909" x2="475.77419524675946" y1="-463.94808609813845" y2="-401.3672523829889" stroke-width="17" stroke="#5e6fa3" stroke-linecap="round"></line><line x1="794.355028961909" x2="731.7741952467595" y1="-463.94808609813845" y2="-401.3672523829889" stroke-width="17" stroke="#5e6fa3" stroke-linecap="round"></line><line x1="282.355028961909" x2="219.77419524675946" y1="-207.94808609813845" y2="-145.3672523829889" stroke-width="17" stroke="#5e6fa3" stroke-linecap="round"></line><line x1="538.355028961909" x2="475.77419524675946" y1="-207.94808609813845" y2="-145.3672523829889" stroke-width="17" stroke="#5e6fa3" stroke-linecap="round"></line><line x1="794.355028961909" x2="731.7741952467595" y1="-207.94808609813845" y2="-145.3672523829889" stroke-width="17" stroke="#5e6fa3" stroke-linecap="round"></line><line x1="282.355028961909" x2="219.77419524675946" y1="48.051913901861546" y2="110.63274761701109" stroke-width="17" stroke="#5e6fa3" stroke-linecap="round"></line><line x1="538.355028961909" x2="475.77419524675946" y1="48.051913901861546" y2="110.63274761701109" stroke-width="17" stroke="#5e6fa3" stroke-linecap="round"></line><line x1="794.355028961909" x2="731.7741952467595" y1="48.051913901861546" y2="110.63274761701109" stroke-width="17" stroke="#5e6fa3" stroke-linecap="round"></line><line x1="26.355028961909" x2="-36.22580475324054" y1="48.051913901861546" y2="110.63274761701109" stroke-width="17" stroke="#5e6fa3" stroke-linecap="round"></line><line x1="227.62050815856585" x2="198.63304819920162" y1="37.01465416473187" y2="66.0021141240961" stroke-width="17" stroke="#5e6fa3" stroke-linecap="round"></line><line x1="227.62050815856585" x2="198.63304819920162" y1="-474.9853458352681" y2="-445.9978858759039" stroke-width="17" stroke="#5e6fa3" stroke-linecap="round"></line><line x1="483.6205081585658" x2="454.63304819920165" y1="-474.9853458352681" y2="-445.9978858759039" stroke-width="17" stroke="#5e6fa3" stroke-linecap="round"></line><line x1="739.6205081585658" x2="710.6330481992017" y1="-474.9853458352681" y2="-445.9978858759039" stroke-width="17" stroke="#5e6fa3" stroke-linecap="round"></line><line x1="227.62050815856585" x2="198.63304819920162" y1="-218.98534583526813" y2="-189.9978858759039" stroke-width="17" stroke="#5e6fa3" stroke-linecap="round"></line><line x1="483.6205081585658" x2="454.63304819920165" y1="-218.98534583526813" y2="-189.9978858759039" stroke-width="17" stroke="#5e6fa3" stroke-linecap="round"></line><line x1="739.6205081585658" x2="710.6330481992017" y1="-218.98534583526813" y2="-189.9978858759039" stroke-width="17" stroke="#5e6fa3" stroke-linecap="round"></line><line x1="227.62050815856585" x2="198.63304819920162" y1="37.01465416473187" y2="66.0021141240961" stroke-width="17" stroke="#5e6fa3" stroke-linecap="round"></line><line x1="483.6205081585658" x2="454.63304819920165" y1="37.01465416473187" y2="66.0021141240961" stroke-width="17" stroke="#5e6fa3" stroke-linecap="round"></line><line x1="739.6205081585658" x2="710.6330481992017" y1="37.01465416473187" y2="66.0021141240961" stroke-width="17" stroke="#5e6fa3" stroke-linecap="round"></line><line x1="163.36181417262154" x2="91.42695173027855" y1="165.97342109823055" y2="237.90828354057354" stroke-width="17" stroke="#5e6fa3" stroke-linecap="round"></line><line x1="163.36181417262154" x2="91.42695173027855" y1="-346.0265789017694" y2="-274.0917164594265" stroke-width="17" stroke="#5e6fa3" stroke-linecap="round"></line><line x1="419.3618141726215" x2="347.4269517302786" y1="-346.0265789017694" y2="-274.0917164594265" stroke-width="17" stroke="#5e6fa3" stroke-linecap="round"></line><line x1="675.3618141726215" x2="603.4269517302786" y1="-346.0265789017694" y2="-274.0917164594265" stroke-width="17" stroke="#5e6fa3" stroke-linecap="round"></line><line x1="163.36181417262154" x2="91.42695173027855" y1="-90.02657890176945" y2="-18.091716459426465" stroke-width="17" stroke="#5e6fa3" stroke-linecap="round"></line><line x1="419.3618141726215" x2="347.4269517302786" y1="-90.02657890176945" y2="-18.091716459426465" stroke-width="17" stroke="#5e6fa3" stroke-linecap="round"></line><line x1="675.3618141726215" x2="603.4269517302786" y1="-90.02657890176945" y2="-18.091716459426465" stroke-width="17" stroke="#5e6fa3" stroke-linecap="round"></line><line x1="163.36181417262154" x2="91.42695173027855" y1="165.97342109823055" y2="237.90828354057354" stroke-width="17" stroke="#5e6fa3" stroke-linecap="round"></line><line x1="419.3618141726215" x2="347.4269517302786" y1="165.97342109823055" y2="237.90828354057354" stroke-width="17" stroke="#5e6fa3" stroke-linecap="round"></line><line x1="675.3618141726215" x2="603.4269517302786" y1="165.97342109823055" y2="237.90828354057354" stroke-width="17" stroke="#5e6fa3" stroke-linecap="round"></line><line x1="114.76793258840564" x2="39.14137288179142" y1="116.1332571752684" y2="191.7598168818826" stroke-width="17" stroke="#5e6fa3" stroke-linecap="round"></line><line x1="114.76793258840564" x2="39.14137288179142" y1="-395.8667428247316" y2="-320.2401831181174" stroke-width="17" stroke="#5e6fa3" stroke-linecap="round"></line><line x1="370.76793258840564" x2="295.1413728817914" y1="-395.8667428247316" y2="-320.2401831181174" stroke-width="17" stroke="#5e6fa3" stroke-linecap="round"></line><line x1="626.7679325884056" x2="551.1413728817914" y1="-395.8667428247316" y2="-320.2401831181174" stroke-width="17" stroke="#5e6fa3" stroke-linecap="round"></line><line x1="114.76793258840564" x2="39.14137288179142" y1="-139.8667428247316" y2="-64.24018311811739" stroke-width="17" stroke="#5e6fa3" stroke-linecap="round"></line><line x1="370.76793258840564" x2="295.1413728817914" y1="-139.8667428247316" y2="-64.24018311811739" stroke-width="17" stroke="#5e6fa3" stroke-linecap="round"></line><line x1="626.7679325884056" x2="551.1413728817914" y1="-139.8667428247316" y2="-64.24018311811739" stroke-width="17" stroke="#5e6fa3" stroke-linecap="round"></line><line x1="114.76793258840564" x2="39.14137288179142" y1="116.1332571752684" y2="191.7598168818826" stroke-width="17" stroke="#5e6fa3" stroke-linecap="round"></line><line x1="370.76793258840564" x2="295.1413728817914" y1="116.1332571752684" y2="191.7598168818826" stroke-width="17" stroke="#5e6fa3" stroke-linecap="round"></line><line x1="626.7679325884056" x2="551.1413728817914" y1="116.1332571752684" y2="191.7598168818826" stroke-width="17" stroke="#5e6fa3" stroke-linecap="round"></line><line x1="226.76978171504365" x2="194.63199997014047" y1="37.634800507448475" y2="69.77258225235168" stroke-width="17" stroke="#5e6fa3" stroke-linecap="round"></line><line x1="226.76978171504365" x2="194.63199997014047" y1="-474.36519949255154" y2="-442.2274177476483" stroke-width="17" stroke="#5e6fa3" stroke-linecap="round"></line><line x1="482.7697817150437" x2="450.63199997014044" y1="-474.36519949255154" y2="-442.2274177476483" stroke-width="17" stroke="#5e6fa3" stroke-linecap="round"></line><line x1="738.7697817150437" x2="706.6319999701404" y1="-474.36519949255154" y2="-442.2274177476483" stroke-width="17" stroke="#5e6fa3" stroke-linecap="round"></line><line x1="226.76978171504365" x2="194.63199997014047" y1="-218.36519949255154" y2="-186.2274177476483" stroke-width="17" stroke="#5e6fa3" stroke-linecap="round"></line><line x1="482.7697817150437" x2="450.63199997014044" y1="-218.36519949255154" y2="-186.2274177476483" stroke-width="17" stroke="#5e6fa3" stroke-linecap="round"></line><line x1="738.7697817150437" x2="706.6319999701404" y1="-218.36519949255154" y2="-186.2274177476483" stroke-width="17" stroke="#5e6fa3" stroke-linecap="round"></line><line x1="226.76978171504365" x2="194.63199997014047" y1="37.634800507448475" y2="69.77258225235168" stroke-width="17" stroke="#5e6fa3" stroke-linecap="round"></line><line x1="482.7697817150437" x2="450.63199997014044" y1="37.634800507448475" y2="69.77258225235168" stroke-width="17" stroke="#5e6fa3" stroke-linecap="round"></line><line x1="738.7697817150437" x2="706.6319999701404" y1="37.634800507448475" y2="69.77258225235168" stroke-width="17" stroke="#5e6fa3" stroke-linecap="round"></line><line x1="208.081949308656" x2="184.82091932732888" y1="113.21173818999321" y2="136.47276817132033" stroke-width="17" stroke="#5e6fa3" stroke-linecap="round"></line><line x1="208.081949308656" x2="184.82091932732888" y1="-398.7882618100068" y2="-375.52723182867965" stroke-width="17" stroke="#5e6fa3" stroke-linecap="round"></line><line x1="464.081949308656" x2="440.82091932732885" y1="-398.7882618100068" y2="-375.52723182867965" stroke-width="17" stroke="#5e6fa3" stroke-linecap="round"></line><line x1="720.081949308656" x2="696.8209193273289" y1="-398.7882618100068" y2="-375.52723182867965" stroke-width="17" stroke="#5e6fa3" stroke-linecap="round"></line><line x1="208.081949308656" x2="184.82091932732888" y1="-142.7882618100068" y2="-119.52723182867967" stroke-width="17" stroke="#5e6fa3" stroke-linecap="round"></line><line x1="464.081949308656" x2="440.82091932732885" y1="-142.7882618100068" y2="-119.52723182867967" stroke-width="17" stroke="#5e6fa3" stroke-linecap="round"></line><line x1="720.081949308656" x2="696.8209193273289" y1="-142.7882618100068" y2="-119.52723182867967" stroke-width="17" stroke="#5e6fa3" stroke-linecap="round"></line><line x1="208.081949308656" x2="184.82091932732888" y1="113.21173818999321" y2="136.47276817132033" stroke-width="17" stroke="#5e6fa3" stroke-linecap="round"></line><line x1="464.081949308656" x2="440.82091932732885" y1="113.21173818999321" y2="136.47276817132033" stroke-width="17" stroke="#5e6fa3" stroke-linecap="round"></line><line x1="720.081949308656" x2="696.8209193273289" y1="113.21173818999321" y2="136.47276817132033" stroke-width="17" stroke="#5e6fa3" stroke-linecap="round"></line><line x1="155.9579862139586" x2="101.25304350623905" y1="85.73835668202138" y2="140.44329938974093" stroke-width="17" stroke="#5e6fa3" stroke-linecap="round"></line><line x1="155.9579862139586" x2="101.25304350623905" y1="-426.2616433179786" y2="-371.5567006102591" stroke-width="17" stroke="#5e6fa3" stroke-linecap="round"></line><line x1="411.95798621395863" x2="357.25304350623907" y1="-426.2616433179786" y2="-371.5567006102591" stroke-width="17" stroke="#5e6fa3" stroke-linecap="round"></line><line x1="667.9579862139586" x2="613.253043506239" y1="-426.2616433179786" y2="-371.5567006102591" stroke-width="17" stroke="#5e6fa3" stroke-linecap="round"></line><line x1="155.9579862139586" x2="101.25304350623905" y1="-170.2616433179786" y2="-115.55670061025907" stroke-width="17" stroke="#5e6fa3" stroke-linecap="round"></line><line x1="411.95798621395863" x2="357.25304350623907" y1="-170.2616433179786" y2="-115.55670061025907" stroke-width="17" stroke="#5e6fa3" stroke-linecap="round"></line><line x1="667.9579862139586" x2="613.253043506239" y1="-170.2616433179786" y2="-115.55670061025907" stroke-width="17" stroke="#5e6fa3" stroke-linecap="round"></line><line x1="155.9579862139586" x2="101.25304350623905" y1="85.73835668202138" y2="140.44329938974093" stroke-width="17" stroke="#5e6fa3" stroke-linecap="round"></line><line x1="411.95798621395863" x2="357.25304350623907" y1="85.73835668202138" y2="140.44329938974093" stroke-width="17" stroke="#5e6fa3" stroke-linecap="round"></line><line x1="667.9579862139586" x2="613.253043506239" y1="85.73835668202138" y2="140.44329938974093" stroke-width="17" stroke="#5e6fa3" stroke-linecap="round"></line><line x1="132.29916243104117" x2="130.31324686838252" y1="173.26223537765668" y2="175.24815094031533" stroke-width="17" stroke="#5e6fa3" stroke-linecap="round"></line><line x1="132.29916243104117" x2="130.31324686838252" y1="-338.7377646223433" y2="-336.7518490596847" stroke-width="17" stroke="#5e6fa3" stroke-linecap="round"></line><line x1="388.29916243104117" x2="386.3132468683825" y1="-338.7377646223433" y2="-336.7518490596847" stroke-width="17" stroke="#5e6fa3" stroke-linecap="round"></line><line x1="644.2991624310412" x2="642.3132468683825" y1="-338.7377646223433" y2="-336.7518490596847" stroke-width="17" stroke="#5e6fa3" stroke-linecap="round"></line><line x1="132.29916243104117" x2="130.31324686838252" y1="-82.73776462234332" y2="-80.75184905968467" stroke-width="17" stroke="#5e6fa3" stroke-linecap="round"></line><line x1="388.29916243104117" x2="386.3132468683825" y1="-82.73776462234332" y2="-80.75184905968467" stroke-width="17" stroke="#5e6fa3" stroke-linecap="round"></line><line x1="644.2991624310412" x2="642.3132468683825" y1="-82.73776462234332" y2="-80.75184905968467" stroke-width="17" stroke="#5e6fa3" stroke-linecap="round"></line><line x1="132.29916243104117" x2="130.31324686838252" y1="173.26223537765668" y2="175.24815094031533" stroke-width="17" stroke="#5e6fa3" stroke-linecap="round"></line><line x1="388.29916243104117" x2="386.3132468683825" y1="173.26223537765668" y2="175.24815094031533" stroke-width="17" stroke="#5e6fa3" stroke-linecap="round"></line><line x1="644.2991624310412" x2="642.3132468683825" y1="173.26223537765668" y2="175.24815094031533" stroke-width="17" stroke="#5e6fa3" stroke-linecap="round"></line><line x1="60.33251470694919" x2="58.94370909350456" y1="110.9306678263462" y2="112.31947343979081" stroke-width="17" stroke="#5e6fa3" stroke-linecap="round"></line><line x1="60.33251470694919" x2="58.94370909350456" y1="-401.06933217365383" y2="-399.68052656020916" stroke-width="17" stroke="#5e6fa3" stroke-linecap="round"></line><line x1="316.3325147069492" x2="314.94370909350454" y1="-401.06933217365383" y2="-399.68052656020916" stroke-width="17" stroke="#5e6fa3" stroke-linecap="round"></line><line x1="572.3325147069492" x2="570.9437090935046" y1="-401.06933217365383" y2="-399.68052656020916" stroke-width="17" stroke="#5e6fa3" stroke-linecap="round"></line><line x1="60.33251470694919" x2="58.94370909350456" y1="-145.0693321736538" y2="-143.6805265602092" stroke-width="17" stroke="#5e6fa3" stroke-linecap="round"></line><line x1="316.3325147069492" x2="314.94370909350454" y1="-145.0693321736538" y2="-143.6805265602092" stroke-width="17" stroke="#5e6fa3" stroke-linecap="round"></line><line x1="572.3325147069492" x2="570.9437090935046" y1="-145.0693321736538" y2="-143.6805265602092" stroke-width="17" stroke="#5e6fa3" stroke-linecap="round"></line><line x1="60.33251470694919" x2="58.94370909350456" y1="110.9306678263462" y2="112.31947343979081" stroke-width="17" stroke="#5e6fa3" stroke-linecap="round"></line><line x1="316.3325147069492" x2="314.94370909350454" y1="110.9306678263462" y2="112.31947343979081" stroke-width="17" stroke="#5e6fa3" stroke-linecap="round"></line><line x1="572.3325147069492" x2="570.9437090935046" y1="110.9306678263462" y2="112.31947343979081" stroke-width="17" stroke="#5e6fa3" stroke-linecap="round"></line><line x1="89.61359304759765" x2="46.82216814272442" y1="150.3273831009298" y2="193.11880800580303" stroke-width="17" stroke="#5e6fa3" stroke-linecap="round"></line><line x1="89.61359304759765" x2="46.82216814272442" y1="-361.6726168990702" y2="-318.88119199419697" stroke-width="17" stroke="#5e6fa3" stroke-linecap="round"></line><line x1="345.61359304759765" x2="302.8221681427244" y1="-361.6726168990702" y2="-318.88119199419697" stroke-width="17" stroke="#5e6fa3" stroke-linecap="round"></line><line x1="601.6135930475976" x2="558.8221681427244" y1="-361.6726168990702" y2="-318.88119199419697" stroke-width="17" stroke="#5e6fa3" stroke-linecap="round"></line><line x1="89.61359304759765" x2="46.82216814272442" y1="-105.67261689907019" y2="-62.88119199419697" stroke-width="17" stroke="#5e6fa3" stroke-linecap="round"></line><line x1="345.61359304759765" x2="302.8221681427244" y1="-105.67261689907019" y2="-62.88119199419697" stroke-width="17" stroke="#5e6fa3" stroke-linecap="round"></line><line x1="601.6135930475976" x2="558.8221681427244" y1="-105.67261689907019" y2="-62.88119199419697" stroke-width="17" stroke="#5e6fa3" stroke-linecap="round"></line><line x1="89.61359304759765" x2="46.82216814272442" y1="150.3273831009298" y2="193.11880800580303" stroke-width="17" stroke="#5e6fa3" stroke-linecap="round"></line><line x1="345.61359304759765" x2="302.8221681427244" y1="150.3273831009298" y2="193.11880800580303" stroke-width="17" stroke="#5e6fa3" stroke-linecap="round"></line><line x1="601.6135930475976" x2="558.8221681427244" y1="150.3273831009298" y2="193.11880800580303" stroke-width="17" stroke="#5e6fa3" stroke-linecap="round"></line><line x1="206.97884859437625" x2="172.19032921534915" y1="4.928886592263336" y2="39.717405971290404" stroke-width="17" stroke="#5e6fa3" stroke-linecap="round"></line><line x1="206.97884859437625" x2="172.19032921534915" y1="-507.0711134077367" y2="-472.2825940287096" stroke-width="17" stroke="#5e6fa3" stroke-linecap="round"></line><line x1="462.97884859437625" x2="428.19032921534915" y1="-507.0711134077367" y2="-472.2825940287096" stroke-width="17" stroke="#5e6fa3" stroke-linecap="round"></line><line x1="718.9788485943762" x2="684.1903292153492" y1="-507.0711134077367" y2="-472.2825940287096" stroke-width="17" stroke="#5e6fa3" stroke-linecap="round"></line><line x1="206.97884859437625" x2="172.19032921534915" y1="-251.07111340773668" y2="-216.28259402870958" stroke-width="17" stroke="#5e6fa3" stroke-linecap="round"></line><line x1="462.97884859437625" x2="428.19032921534915" y1="-251.07111340773668" y2="-216.28259402870958" stroke-width="17" stroke="#5e6fa3" stroke-linecap="round"></line><line x1="718.9788485943762" x2="684.1903292153492" y1="-251.07111340773668" y2="-216.28259402870958" stroke-width="17" stroke="#5e6fa3" stroke-linecap="round"></line><line x1="206.97884859437625" x2="172.19032921534915" y1="4.928886592263336" y2="39.717405971290404" stroke-width="17" stroke="#5e6fa3" stroke-linecap="round"></line><line x1="462.97884859437625" x2="428.19032921534915" y1="4.928886592263336" y2="39.717405971290404" stroke-width="17" stroke="#5e6fa3" stroke-linecap="round"></line><line x1="718.9788485943762" x2="684.1903292153492" y1="4.928886592263336" y2="39.717405971290404" stroke-width="17" stroke="#5e6fa3" stroke-linecap="round"></line><line x1="166.6570360458592" x2="139.02161719458715" y1="2.1373933383140002" y2="29.772812189586077" stroke-width="17" stroke="#5e6fa3" stroke-linecap="round"></line><line x1="166.6570360458592" x2="139.02161719458715" y1="-509.862606661686" y2="-482.2271878104139" stroke-width="17" stroke="#5e6fa3" stroke-linecap="round"></line><line x1="422.6570360458592" x2="395.0216171945872" y1="-509.862606661686" y2="-482.2271878104139" stroke-width="17" stroke="#5e6fa3" stroke-linecap="round"></line><line x1="678.6570360458592" x2="651.0216171945872" y1="-509.862606661686" y2="-482.2271878104139" stroke-width="17" stroke="#5e6fa3" stroke-linecap="round"></line><line x1="166.6570360458592" x2="139.02161719458715" y1="-253.862606661686" y2="-226.2271878104139" stroke-width="17" stroke="#5e6fa3" stroke-linecap="round"></line><line x1="422.6570360458592" x2="395.0216171945872" y1="-253.862606661686" y2="-226.2271878104139" stroke-width="17" stroke="#5e6fa3" stroke-linecap="round"></line><line x1="678.6570360458592" x2="651.0216171945872" y1="-253.862606661686" y2="-226.2271878104139" stroke-width="17" stroke="#5e6fa3" stroke-linecap="round"></line><line x1="166.6570360458592" x2="139.02161719458715" y1="2.1373933383140002" y2="29.772812189586077" stroke-width="17" stroke="#5e6fa3" stroke-linecap="round"></line><line x1="422.6570360458592" x2="395.0216171945872" y1="2.1373933383140002" y2="29.772812189586077" stroke-width="17" stroke="#5e6fa3" stroke-linecap="round"></line><line x1="678.6570360458592" x2="651.0216171945872" y1="2.1373933383140002" y2="29.772812189586077" stroke-width="17" stroke="#5e6fa3" stroke-linecap="round"></line><line x1="124.71846802631399" x2="51.1301101470566" y1="167.24999401099598" y2="240.83835189025336" stroke-width="17" stroke="#5e6fa3" stroke-linecap="round"></line><line x1="124.71846802631399" x2="51.1301101470566" y1="-344.750005989004" y2="-271.16164810974664" stroke-width="17" stroke="#5e6fa3" stroke-linecap="round"></line><line x1="380.718468026314" x2="307.1301101470566" y1="-344.750005989004" y2="-271.16164810974664" stroke-width="17" stroke="#5e6fa3" stroke-linecap="round"></line><line x1="636.718468026314" x2="563.1301101470566" y1="-344.750005989004" y2="-271.16164810974664" stroke-width="17" stroke="#5e6fa3" stroke-linecap="round"></line><line x1="124.71846802631399" x2="51.1301101470566" y1="-88.75000598900402" y2="-15.161648109746636" stroke-width="17" stroke="#5e6fa3" stroke-linecap="round"></line><line x1="380.718468026314" x2="307.1301101470566" y1="-88.75000598900402" y2="-15.161648109746636" stroke-width="17" stroke="#5e6fa3" stroke-linecap="round"></line><line x1="636.718468026314" x2="563.1301101470566" y1="-88.75000598900402" y2="-15.161648109746636" stroke-width="17" stroke="#5e6fa3" stroke-linecap="round"></line><line x1="124.71846802631399" x2="51.1301101470566" y1="167.24999401099598" y2="240.83835189025336" stroke-width="17" stroke="#5e6fa3" stroke-linecap="round"></line><line x1="380.718468026314" x2="307.1301101470566" y1="167.24999401099598" y2="240.83835189025336" stroke-width="17" stroke="#5e6fa3" stroke-linecap="round"></line><line x1="636.718468026314" x2="563.1301101470566" y1="167.24999401099598" y2="240.83835189025336" stroke-width="17" stroke="#5e6fa3" stroke-linecap="round"></line><line x1="145.94591455695323" x2="89.4945493596268" y1="44.09647752806515" y2="100.54784272539158" stroke-width="17" stroke="#5e6fa3" stroke-linecap="round"></line><line x1="145.94591455695323" x2="89.4945493596268" y1="-467.9035224719348" y2="-411.45215727460845" stroke-width="17" stroke="#5e6fa3" stroke-linecap="round"></line><line x1="401.9459145569532" x2="345.49454935962683" y1="-467.9035224719348" y2="-411.45215727460845" stroke-width="17" stroke="#5e6fa3" stroke-linecap="round"></line><line x1="657.9459145569532" x2="601.4945493596268" y1="-467.9035224719348" y2="-411.45215727460845" stroke-width="17" stroke="#5e6fa3" stroke-linecap="round"></line><line x1="145.94591455695323" x2="89.4945493596268" y1="-211.90352247193485" y2="-155.45215727460842" stroke-width="17" stroke="#5e6fa3" stroke-linecap="round"></line><line x1="401.9459145569532" x2="345.49454935962683" y1="-211.90352247193485" y2="-155.45215727460842" stroke-width="17" stroke="#5e6fa3" stroke-linecap="round"></line><line x1="657.9459145569532" x2="601.4945493596268" y1="-211.90352247193485" y2="-155.45215727460842" stroke-width="17" stroke="#5e6fa3" stroke-linecap="round"></line><line x1="145.94591455695323" x2="89.4945493596268" y1="44.09647752806515" y2="100.54784272539158" stroke-width="17" stroke="#5e6fa3" stroke-linecap="round"></line><line x1="401.9459145569532" x2="345.49454935962683" y1="44.09647752806515" y2="100.54784272539158" stroke-width="17" stroke="#5e6fa3" stroke-linecap="round"></line><line x1="657.9459145569532" x2="601.4945493596268" y1="44.09647752806515" y2="100.54784272539158" stroke-width="17" stroke="#5e6fa3" stroke-linecap="round"></line>
      <animateTransform attributeName="transform" type="translate" values="0 0;-256 256" keyTimes="0;1" repeatCount="indefinite" dur="8.333333333333334s"></animateTransform>
    </g></g>
      </pattern>
    </defs>
    <rect x="0" y="0" width="1084" height="322" fill="url(#pid-0.7559634166593172)"></rect>
    </svg>