<svg xmlns="http://www.w3.org/2000/svg" xmlns:xlink="http://www.w3.org/1999/xlink" style="margin:auto;background:rgba(NaN, NaN, NaN, 0);display:block;z-index:1;position:relative" width="1084" height="322" preserveAspectRatio="xMidYMid" viewBox="0 0 1084 322">
    <defs>
      <pattern id="pid-0.5239578789186163" x="0" y="0" width="1057.28" height="1057.28" patternUnits="userSpaceOnUse">
        <g transform="scale(4.13)"><defs>
      <filter id="pat-0.28056686700481603" x="-100%" y="-100%" width="300%" height="300%" color-interpolation-filters="sRGB">
        <feGaussianBlur in="SourceGraphic" stdDeviation="7.16"></feGaussianBlur>
        <feComponentTransfer result="cutoff">
          <feFuncA type="linear" slope="60" intercept="-40"></feFuncA>
        </feComponentTransfer>
      </filter>
    </defs><g style="isolation:isolate" filter="url(#pat-0.28056686700481603)"><g>
      <circle cx="-117.47820145411958" cy="65.73704682775116" r="21.556106316222454" fill="#93dbe9"></circle> <circle cx="138.52179854588042" cy="65.73704682775116" r="21.556106316222454" fill="#93dbe9"></circle> <circle cx="394.5217985458804" cy="65.73704682775116" r="21.556106316222454" fill="#93dbe9"></circle> <circle cx="-117.47820145411958" cy="321.73704682775116" r="21.556106316222454" fill="#93dbe9"></circle> <circle cx="138.52179854588042" cy="321.73704682775116" r="21.556106316222454" fill="#93dbe9"></circle> <circle cx="394.5217985458804" cy="321.73704682775116" r="21.556106316222454" fill="#93dbe9"></circle> <circle cx="-117.47820145411958" cy="577.7370468277511" r="21.556106316222454" fill="#93dbe9"></circle> <circle cx="138.52179854588042" cy="577.7370468277511" r="21.556106316222454" fill="#93dbe9"></circle> <circle cx="394.5217985458804" cy="577.7370468277511" r="21.556106316222454" fill="#93dbe9"></circle> <circle cx="-162.6386709099624" cy="209.5394904805088" r="24.52697043691995" fill="#93dbe9"></circle> <circle cx="93.3613290900376" cy="209.5394904805088" r="24.52697043691995" fill="#93dbe9"></circle> <circle cx="349.3613290900376" cy="209.5394904805088" r="24.52697043691995" fill="#93dbe9"></circle> <circle cx="-162.6386709099624" cy="465.5394904805088" r="24.52697043691995" fill="#93dbe9"></circle> <circle cx="93.3613290900376" cy="465.5394904805088" r="24.52697043691995" fill="#93dbe9"></circle> <circle cx="349.3613290900376" cy="465.5394904805088" r="24.52697043691995" fill="#93dbe9"></circle> <circle cx="-162.6386709099624" cy="721.5394904805088" r="24.52697043691995" fill="#93dbe9"></circle> <circle cx="93.3613290900376" cy="721.5394904805088" r="24.52697043691995" fill="#93dbe9"></circle> <circle cx="349.3613290900376" cy="721.5394904805088" r="24.52697043691995" fill="#93dbe9"></circle> <circle cx="-147.3740595647397" cy="152.91068748943633" r="21.51015200476747" fill="#93dbe9"></circle> <circle cx="108.6259404352603" cy="152.91068748943633" r="21.51015200476747" fill="#93dbe9"></circle> <circle cx="364.6259404352603" cy="152.91068748943633" r="21.51015200476747" fill="#93dbe9"></circle> <circle cx="-147.3740595647397" cy="408.9106874894363" r="21.51015200476747" fill="#93dbe9"></circle> <circle cx="108.6259404352603" cy="408.9106874894363" r="21.51015200476747" fill="#93dbe9"></circle> <circle cx="364.6259404352603" cy="408.9106874894363" r="21.51015200476747" fill="#93dbe9"></circle> <circle cx="-147.3740595647397" cy="664.9106874894363" r="21.51015200476747" fill="#93dbe9"></circle> <circle cx="108.6259404352603" cy="664.9106874894363" r="21.51015200476747" fill="#93dbe9"></circle> <circle cx="364.6259404352603" cy="664.9106874894363" r="21.51015200476747" fill="#93dbe9"></circle> <circle cx="-192.59175861041996" cy="77.18554993301422" r="23.208103474280268" fill="#93dbe9"></circle> <circle cx="63.40824138958004" cy="77.18554993301422" r="23.208103474280268" fill="#93dbe9"></circle> <circle cx="319.40824138958004" cy="77.18554993301422" r="23.208103474280268" fill="#93dbe9"></circle> <circle cx="-192.59175861041996" cy="333.1855499330142" r="23.208103474280268" fill="#93dbe9"></circle> <circle cx="63.40824138958004" cy="333.1855499330142" r="23.208103474280268" fill="#93dbe9"></circle> <circle cx="319.40824138958004" cy="333.1855499330142" r="23.208103474280268" fill="#93dbe9"></circle> <circle cx="-192.59175861041996" cy="589.1855499330143" r="23.208103474280268" fill="#93dbe9"></circle> <circle cx="63.40824138958004" cy="589.1855499330143" r="23.208103474280268" fill="#93dbe9"></circle> <circle cx="319.40824138958004" cy="589.1855499330143" r="23.208103474280268" fill="#93dbe9"></circle> <circle cx="-79.42006978738306" cy="200.4069752375559" r="15.486005317165144" fill="#93dbe9"></circle> <circle cx="176.57993021261694" cy="200.4069752375559" r="15.486005317165144" fill="#93dbe9"></circle> <circle cx="432.57993021261694" cy="200.4069752375559" r="15.486005317165144" fill="#93dbe9"></circle> <circle cx="-79.42006978738306" cy="456.4069752375559" r="15.486005317165144" fill="#93dbe9"></circle> <circle cx="176.57993021261694" cy="456.4069752375559" r="15.486005317165144" fill="#93dbe9"></circle> <circle cx="432.57993021261694" cy="456.4069752375559" r="15.486005317165144" fill="#93dbe9"></circle> <circle cx="-79.42006978738306" cy="712.4069752375559" r="15.486005317165144" fill="#93dbe9"></circle> <circle cx="176.57993021261694" cy="712.4069752375559" r="15.486005317165144" fill="#93dbe9"></circle> <circle cx="432.57993021261694" cy="712.4069752375559" r="15.486005317165144" fill="#93dbe9"></circle> <circle cx="-121.43762123242561" cy="56.491324829246764" r="16.92789159610261" fill="#93dbe9"></circle> <circle cx="134.5623787675744" cy="56.491324829246764" r="16.92789159610261" fill="#93dbe9"></circle> <circle cx="390.5623787675744" cy="56.491324829246764" r="16.92789159610261" fill="#93dbe9"></circle> <circle cx="-121.43762123242561" cy="312.49132482924676" r="16.92789159610261" fill="#93dbe9"></circle> <circle cx="134.5623787675744" cy="312.49132482924676" r="16.92789159610261" fill="#93dbe9"></circle> <circle cx="390.5623787675744" cy="312.49132482924676" r="16.92789159610261" fill="#93dbe9"></circle> <circle cx="-121.43762123242561" cy="568.4913248292468" r="16.92789159610261" fill="#93dbe9"></circle> <circle cx="134.5623787675744" cy="568.4913248292468" r="16.92789159610261" fill="#93dbe9"></circle> <circle cx="390.5623787675744" cy="568.4913248292468" r="16.92789159610261" fill="#93dbe9"></circle> <circle cx="-124.1064600063192" cy="-1.0185254570748157" r="19.31322175704015" fill="#93dbe9"></circle> <circle cx="131.8935399936808" cy="-1.0185254570748157" r="19.31322175704015" fill="#93dbe9"></circle> <circle cx="387.8935399936808" cy="-1.0185254570748157" r="19.31322175704015" fill="#93dbe9"></circle> <circle cx="-124.1064600063192" cy="254.98147454292518" r="19.31322175704015" fill="#93dbe9"></circle> <circle cx="131.8935399936808" cy="254.98147454292518" r="19.31322175704015" fill="#93dbe9"></circle> <circle cx="387.8935399936808" cy="254.98147454292518" r="19.31322175704015" fill="#93dbe9"></circle> <circle cx="-124.1064600063192" cy="510.9814745429252" r="19.31322175704015" fill="#93dbe9"></circle> <circle cx="131.8935399936808" cy="510.9814745429252" r="19.31322175704015" fill="#93dbe9"></circle> <circle cx="387.8935399936808" cy="510.9814745429252" r="19.31322175704015" fill="#93dbe9"></circle> <circle cx="-124.1064600063192" cy="766.9814745429252" r="19.31322175704015" fill="#93dbe9"></circle> <circle cx="131.8935399936808" cy="766.9814745429252" r="19.31322175704015" fill="#93dbe9"></circle> <circle cx="387.8935399936808" cy="766.9814745429252" r="19.31322175704015" fill="#93dbe9"></circle> <circle cx="-21.244314001210284" cy="208.8537117408486" r="19.38062164223214" fill="#93dbe9"></circle> <circle cx="234.75568599878972" cy="208.8537117408486" r="19.38062164223214" fill="#93dbe9"></circle> <circle cx="490.7556859987897" cy="208.8537117408486" r="19.38062164223214" fill="#93dbe9"></circle> <circle cx="-21.244314001210284" cy="464.8537117408486" r="19.38062164223214" fill="#93dbe9"></circle> <circle cx="234.75568599878972" cy="464.8537117408486" r="19.38062164223214" fill="#93dbe9"></circle> <circle cx="490.7556859987897" cy="464.8537117408486" r="19.38062164223214" fill="#93dbe9"></circle> <circle cx="-21.244314001210284" cy="720.8537117408487" r="19.38062164223214" fill="#93dbe9"></circle> <circle cx="234.75568599878972" cy="720.8537117408487" r="19.38062164223214" fill="#93dbe9"></circle> <circle cx="490.7556859987897" cy="720.8537117408487" r="19.38062164223214" fill="#93dbe9"></circle> <circle cx="-73.58340786990397" cy="46.052044235642995" r="20.673550696223536" fill="#93dbe9"></circle> <circle cx="182.41659213009603" cy="46.052044235642995" r="20.673550696223536" fill="#93dbe9"></circle> <circle cx="438.41659213009603" cy="46.052044235642995" r="20.673550696223536" fill="#93dbe9"></circle> <circle cx="-73.58340786990397" cy="302.052044235643" r="20.673550696223536" fill="#93dbe9"></circle> <circle cx="182.41659213009603" cy="302.052044235643" r="20.673550696223536" fill="#93dbe9"></circle> <circle cx="438.41659213009603" cy="302.052044235643" r="20.673550696223536" fill="#93dbe9"></circle> <circle cx="-73.58340786990397" cy="558.052044235643" r="20.673550696223536" fill="#93dbe9"></circle> <circle cx="182.41659213009603" cy="558.052044235643" r="20.673550696223536" fill="#93dbe9"></circle> <circle cx="438.41659213009603" cy="558.052044235643" r="20.673550696223536" fill="#93dbe9"></circle> <circle cx="-235.5810408715102" cy="20.118819451294087" r="18.093898081946833" fill="#93dbe9"></circle> <circle cx="20.418959128489803" cy="20.118819451294087" r="18.093898081946833" fill="#93dbe9"></circle> <circle cx="276.4189591284898" cy="20.118819451294087" r="18.093898081946833" fill="#93dbe9"></circle> <circle cx="-235.5810408715102" cy="276.1188194512941" r="18.093898081946833" fill="#93dbe9"></circle> <circle cx="20.418959128489803" cy="276.1188194512941" r="18.093898081946833" fill="#93dbe9"></circle> <circle cx="276.4189591284898" cy="276.1188194512941" r="18.093898081946833" fill="#93dbe9"></circle> <circle cx="-235.5810408715102" cy="532.118819451294" r="18.093898081946833" fill="#93dbe9"></circle> <circle cx="20.418959128489803" cy="532.118819451294" r="18.093898081946833" fill="#93dbe9"></circle> <circle cx="276.4189591284898" cy="532.118819451294" r="18.093898081946833" fill="#93dbe9"></circle> 
      <animateTransform attributeName="transform" type="translate" dur="50s" repeatCount="indefinite" keyTimes="0;1" values="0 0;0 -256"></animateTransform>
    </g><g>
      <circle cx="-29.282070824233358" cy="206.7475764076192" r="16.356569130544052" fill="#689cc5"></circle> <circle cx="226.71792917576664" cy="206.7475764076192" r="16.356569130544052" fill="#689cc5"></circle> <circle cx="482.71792917576664" cy="206.7475764076192" r="16.356569130544052" fill="#689cc5"></circle> <circle cx="-29.282070824233358" cy="462.7475764076192" r="16.356569130544052" fill="#689cc5"></circle> <circle cx="226.71792917576664" cy="462.7475764076192" r="16.356569130544052" fill="#689cc5"></circle> <circle cx="482.71792917576664" cy="462.7475764076192" r="16.356569130544052" fill="#689cc5"></circle> <circle cx="-29.282070824233358" cy="718.7475764076191" r="16.356569130544052" fill="#689cc5"></circle> <circle cx="226.71792917576664" cy="718.7475764076191" r="16.356569130544052" fill="#689cc5"></circle> <circle cx="482.71792917576664" cy="718.7475764076191" r="16.356569130544052" fill="#689cc5"></circle> <circle cx="-119.77106789599327" cy="147.59310623269687" r="21.16585478989172" fill="#689cc5"></circle> <circle cx="136.22893210400673" cy="147.59310623269687" r="21.16585478989172" fill="#689cc5"></circle> <circle cx="392.22893210400673" cy="147.59310623269687" r="21.16585478989172" fill="#689cc5"></circle> <circle cx="-119.77106789599327" cy="403.59310623269687" r="21.16585478989172" fill="#689cc5"></circle> <circle cx="136.22893210400673" cy="403.59310623269687" r="21.16585478989172" fill="#689cc5"></circle> <circle cx="392.22893210400673" cy="403.59310623269687" r="21.16585478989172" fill="#689cc5"></circle> <circle cx="-119.77106789599327" cy="659.5931062326969" r="21.16585478989172" fill="#689cc5"></circle> <circle cx="136.22893210400673" cy="659.5931062326969" r="21.16585478989172" fill="#689cc5"></circle> <circle cx="392.22893210400673" cy="659.5931062326969" r="21.16585478989172" fill="#689cc5"></circle> <circle cx="-99.1950458914921" cy="90.60520911712854" r="18.26347402711" fill="#689cc5"></circle> <circle cx="156.8049541085079" cy="90.60520911712854" r="18.26347402711" fill="#689cc5"></circle> <circle cx="412.8049541085079" cy="90.60520911712854" r="18.26347402711" fill="#689cc5"></circle> <circle cx="-99.1950458914921" cy="346.60520911712854" r="18.26347402711" fill="#689cc5"></circle> <circle cx="156.8049541085079" cy="346.60520911712854" r="18.26347402711" fill="#689cc5"></circle> <circle cx="412.8049541085079" cy="346.60520911712854" r="18.26347402711" fill="#689cc5"></circle> <circle cx="-99.1950458914921" cy="602.6052091171285" r="18.26347402711" fill="#689cc5"></circle> <circle cx="156.8049541085079" cy="602.6052091171285" r="18.26347402711" fill="#689cc5"></circle> <circle cx="412.8049541085079" cy="602.6052091171285" r="18.26347402711" fill="#689cc5"></circle> <circle cx="-190.20831840016888" cy="133.6427033026721" r="16.438060855095472" fill="#689cc5"></circle> <circle cx="65.79168159983112" cy="133.6427033026721" r="16.438060855095472" fill="#689cc5"></circle> <circle cx="321.7916815998311" cy="133.6427033026721" r="16.438060855095472" fill="#689cc5"></circle> <circle cx="-190.20831840016888" cy="389.6427033026721" r="16.438060855095472" fill="#689cc5"></circle> <circle cx="65.79168159983112" cy="389.6427033026721" r="16.438060855095472" fill="#689cc5"></circle> <circle cx="321.7916815998311" cy="389.6427033026721" r="16.438060855095472" fill="#689cc5"></circle> <circle cx="-190.20831840016888" cy="645.6427033026721" r="16.438060855095472" fill="#689cc5"></circle> <circle cx="65.79168159983112" cy="645.6427033026721" r="16.438060855095472" fill="#689cc5"></circle> <circle cx="321.7916815998311" cy="645.6427033026721" r="16.438060855095472" fill="#689cc5"></circle> <circle cx="-75.36598803253361" cy="227.1713073994291" r="24.488501941495453" fill="#689cc5"></circle> <circle cx="180.6340119674664" cy="227.1713073994291" r="24.488501941495453" fill="#689cc5"></circle> <circle cx="436.6340119674664" cy="227.1713073994291" r="24.488501941495453" fill="#689cc5"></circle> <circle cx="-75.36598803253361" cy="483.1713073994291" r="24.488501941495453" fill="#689cc5"></circle> <circle cx="180.6340119674664" cy="483.1713073994291" r="24.488501941495453" fill="#689cc5"></circle> <circle cx="436.6340119674664" cy="483.1713073994291" r="24.488501941495453" fill="#689cc5"></circle> <circle cx="-75.36598803253361" cy="739.1713073994291" r="24.488501941495453" fill="#689cc5"></circle> <circle cx="180.6340119674664" cy="739.1713073994291" r="24.488501941495453" fill="#689cc5"></circle> <circle cx="436.6340119674664" cy="739.1713073994291" r="24.488501941495453" fill="#689cc5"></circle> <circle cx="-52.0535694396504" cy="-12.529192687286525" r="18.640227929932493" fill="#689cc5"></circle> <circle cx="203.9464305603496" cy="-12.529192687286525" r="18.640227929932493" fill="#689cc5"></circle> <circle cx="459.9464305603496" cy="-12.529192687286525" r="18.640227929932493" fill="#689cc5"></circle> <circle cx="-52.0535694396504" cy="243.47080731271348" r="18.640227929932493" fill="#689cc5"></circle> <circle cx="203.9464305603496" cy="243.47080731271348" r="18.640227929932493" fill="#689cc5"></circle> <circle cx="459.9464305603496" cy="243.47080731271348" r="18.640227929932493" fill="#689cc5"></circle> <circle cx="-52.0535694396504" cy="499.4708073127135" r="18.640227929932493" fill="#689cc5"></circle> <circle cx="203.9464305603496" cy="499.4708073127135" r="18.640227929932493" fill="#689cc5"></circle> <circle cx="459.9464305603496" cy="499.4708073127135" r="18.640227929932493" fill="#689cc5"></circle> <circle cx="-52.0535694396504" cy="755.4708073127135" r="18.640227929932493" fill="#689cc5"></circle> <circle cx="203.9464305603496" cy="755.4708073127135" r="18.640227929932493" fill="#689cc5"></circle> <circle cx="459.9464305603496" cy="755.4708073127135" r="18.640227929932493" fill="#689cc5"></circle> <circle cx="-220.14348290460032" cy="191.8952058807937" r="23.91873320216284" fill="#689cc5"></circle> <circle cx="35.85651709539968" cy="191.8952058807937" r="23.91873320216284" fill="#689cc5"></circle> <circle cx="291.8565170953997" cy="191.8952058807937" r="23.91873320216284" fill="#689cc5"></circle> <circle cx="-220.14348290460032" cy="447.8952058807937" r="23.91873320216284" fill="#689cc5"></circle> <circle cx="35.85651709539968" cy="447.8952058807937" r="23.91873320216284" fill="#689cc5"></circle> <circle cx="291.8565170953997" cy="447.8952058807937" r="23.91873320216284" fill="#689cc5"></circle> <circle cx="-220.14348290460032" cy="703.8952058807937" r="23.91873320216284" fill="#689cc5"></circle> <circle cx="35.85651709539968" cy="703.8952058807937" r="23.91873320216284" fill="#689cc5"></circle> <circle cx="291.8565170953997" cy="703.8952058807937" r="23.91873320216284" fill="#689cc5"></circle> <circle cx="-231.6065597301291" cy="190.42535954902957" r="21.519691844377377" fill="#689cc5"></circle> <circle cx="24.393440269870894" cy="190.42535954902957" r="21.519691844377377" fill="#689cc5"></circle> <circle cx="280.3934402698709" cy="190.42535954902957" r="21.519691844377377" fill="#689cc5"></circle> <circle cx="-231.6065597301291" cy="446.42535954902957" r="21.519691844377377" fill="#689cc5"></circle> <circle cx="24.393440269870894" cy="446.42535954902957" r="21.519691844377377" fill="#689cc5"></circle> <circle cx="280.3934402698709" cy="446.42535954902957" r="21.519691844377377" fill="#689cc5"></circle> <circle cx="-231.6065597301291" cy="702.4253595490295" r="21.519691844377377" fill="#689cc5"></circle> <circle cx="24.393440269870894" cy="702.4253595490295" r="21.519691844377377" fill="#689cc5"></circle> <circle cx="280.3934402698709" cy="702.4253595490295" r="21.519691844377377" fill="#689cc5"></circle> <circle cx="-214.73478283259084" cy="40.797321809168466" r="21.495146663419995" fill="#689cc5"></circle> <circle cx="41.26521716740916" cy="40.797321809168466" r="21.495146663419995" fill="#689cc5"></circle> <circle cx="297.26521716740916" cy="40.797321809168466" r="21.495146663419995" fill="#689cc5"></circle> <circle cx="-214.73478283259084" cy="296.79732180916847" r="21.495146663419995" fill="#689cc5"></circle> <circle cx="41.26521716740916" cy="296.79732180916847" r="21.495146663419995" fill="#689cc5"></circle> <circle cx="297.26521716740916" cy="296.79732180916847" r="21.495146663419995" fill="#689cc5"></circle> <circle cx="-214.73478283259084" cy="552.7973218091685" r="21.495146663419995" fill="#689cc5"></circle> <circle cx="41.26521716740916" cy="552.7973218091685" r="21.495146663419995" fill="#689cc5"></circle> <circle cx="297.26521716740916" cy="552.7973218091685" r="21.495146663419995" fill="#689cc5"></circle> 
      <animateTransform attributeName="transform" type="translate" dur="25s" repeatCount="indefinite" keyTimes="0;1" values="0 0;0 -256"></animateTransform>
    </g><g>
      <circle cx="-61.818625426475705" cy="223.73093714877814" r="19.489813297125778" fill="#5e6fa3"></circle> <circle cx="194.1813745735243" cy="223.73093714877814" r="19.489813297125778" fill="#5e6fa3"></circle> <circle cx="450.1813745735243" cy="223.73093714877814" r="19.489813297125778" fill="#5e6fa3"></circle> <circle cx="-61.818625426475705" cy="479.73093714877814" r="19.489813297125778" fill="#5e6fa3"></circle> <circle cx="194.1813745735243" cy="479.73093714877814" r="19.489813297125778" fill="#5e6fa3"></circle> <circle cx="450.1813745735243" cy="479.73093714877814" r="19.489813297125778" fill="#5e6fa3"></circle> <circle cx="-61.818625426475705" cy="735.7309371487781" r="19.489813297125778" fill="#5e6fa3"></circle> <circle cx="194.1813745735243" cy="735.7309371487781" r="19.489813297125778" fill="#5e6fa3"></circle> <circle cx="450.1813745735243" cy="735.7309371487781" r="19.489813297125778" fill="#5e6fa3"></circle> <circle cx="-130.99287817390075" cy="32.266904580826974" r="20.250598288605616" fill="#5e6fa3"></circle> <circle cx="125.00712182609925" cy="32.266904580826974" r="20.250598288605616" fill="#5e6fa3"></circle> <circle cx="381.00712182609925" cy="32.266904580826974" r="20.250598288605616" fill="#5e6fa3"></circle> <circle cx="-130.99287817390075" cy="288.266904580827" r="20.250598288605616" fill="#5e6fa3"></circle> <circle cx="125.00712182609925" cy="288.266904580827" r="20.250598288605616" fill="#5e6fa3"></circle> <circle cx="381.00712182609925" cy="288.266904580827" r="20.250598288605616" fill="#5e6fa3"></circle> <circle cx="-130.99287817390075" cy="544.266904580827" r="20.250598288605616" fill="#5e6fa3"></circle> <circle cx="125.00712182609925" cy="544.266904580827" r="20.250598288605616" fill="#5e6fa3"></circle> <circle cx="381.00712182609925" cy="544.266904580827" r="20.250598288605616" fill="#5e6fa3"></circle> <circle cx="-114.9408654122559" cy="20.45342899050013" r="18.103831625412525" fill="#5e6fa3"></circle> <circle cx="141.0591345877441" cy="20.45342899050013" r="18.103831625412525" fill="#5e6fa3"></circle> <circle cx="397.0591345877441" cy="20.45342899050013" r="18.103831625412525" fill="#5e6fa3"></circle> <circle cx="-114.9408654122559" cy="276.45342899050013" r="18.103831625412525" fill="#5e6fa3"></circle> <circle cx="141.0591345877441" cy="276.45342899050013" r="18.103831625412525" fill="#5e6fa3"></circle> <circle cx="397.0591345877441" cy="276.45342899050013" r="18.103831625412525" fill="#5e6fa3"></circle> <circle cx="-114.9408654122559" cy="532.4534289905001" r="18.103831625412525" fill="#5e6fa3"></circle> <circle cx="141.0591345877441" cy="532.4534289905001" r="18.103831625412525" fill="#5e6fa3"></circle> <circle cx="397.0591345877441" cy="532.4534289905001" r="18.103831625412525" fill="#5e6fa3"></circle> <circle cx="-104.80705775206593" cy="44.91882464484638" r="21.639796724165027" fill="#5e6fa3"></circle> <circle cx="151.19294224793407" cy="44.91882464484638" r="21.639796724165027" fill="#5e6fa3"></circle> <circle cx="407.19294224793407" cy="44.91882464484638" r="21.639796724165027" fill="#5e6fa3"></circle> <circle cx="-104.80705775206593" cy="300.9188246448464" r="21.639796724165027" fill="#5e6fa3"></circle> <circle cx="151.19294224793407" cy="300.9188246448464" r="21.639796724165027" fill="#5e6fa3"></circle> <circle cx="407.19294224793407" cy="300.9188246448464" r="21.639796724165027" fill="#5e6fa3"></circle> <circle cx="-104.80705775206593" cy="556.9188246448464" r="21.639796724165027" fill="#5e6fa3"></circle> <circle cx="151.19294224793407" cy="556.9188246448464" r="21.639796724165027" fill="#5e6fa3"></circle> <circle cx="407.19294224793407" cy="556.9188246448464" r="21.639796724165027" fill="#5e6fa3"></circle> <circle cx="-237.85345336121185" cy="132.1180245261114" r="13.548894974734658" fill="#5e6fa3"></circle> <circle cx="18.146546638788152" cy="132.1180245261114" r="13.548894974734658" fill="#5e6fa3"></circle> <circle cx="274.14654663878815" cy="132.1180245261114" r="13.548894974734658" fill="#5e6fa3"></circle> <circle cx="-237.85345336121185" cy="388.1180245261114" r="13.548894974734658" fill="#5e6fa3"></circle> <circle cx="18.146546638788152" cy="388.1180245261114" r="13.548894974734658" fill="#5e6fa3"></circle> <circle cx="274.14654663878815" cy="388.1180245261114" r="13.548894974734658" fill="#5e6fa3"></circle> <circle cx="-237.85345336121185" cy="644.1180245261114" r="13.548894974734658" fill="#5e6fa3"></circle> <circle cx="18.146546638788152" cy="644.1180245261114" r="13.548894974734658" fill="#5e6fa3"></circle> <circle cx="274.14654663878815" cy="644.1180245261114" r="13.548894974734658" fill="#5e6fa3"></circle> <circle cx="-114.10644418384612" cy="143.46034115303564" r="19.363930365828462" fill="#5e6fa3"></circle> <circle cx="141.89355581615388" cy="143.46034115303564" r="19.363930365828462" fill="#5e6fa3"></circle> <circle cx="397.8935558161539" cy="143.46034115303564" r="19.363930365828462" fill="#5e6fa3"></circle> <circle cx="-114.10644418384612" cy="399.46034115303564" r="19.363930365828462" fill="#5e6fa3"></circle> <circle cx="141.89355581615388" cy="399.46034115303564" r="19.363930365828462" fill="#5e6fa3"></circle> <circle cx="397.8935558161539" cy="399.46034115303564" r="19.363930365828462" fill="#5e6fa3"></circle> <circle cx="-114.10644418384612" cy="655.4603411530356" r="19.363930365828462" fill="#5e6fa3"></circle> <circle cx="141.89355581615388" cy="655.4603411530356" r="19.363930365828462" fill="#5e6fa3"></circle> <circle cx="397.8935558161539" cy="655.4603411530356" r="19.363930365828462" fill="#5e6fa3"></circle> <circle cx="-230.3861303270993" cy="236.39233726891996" r="17.183996158558365" fill="#5e6fa3"></circle> <circle cx="25.613869672900705" cy="236.39233726891996" r="17.183996158558365" fill="#5e6fa3"></circle> <circle cx="281.6138696729007" cy="236.39233726891996" r="17.183996158558365" fill="#5e6fa3"></circle> <circle cx="-230.3861303270993" cy="492.39233726891996" r="17.183996158558365" fill="#5e6fa3"></circle> <circle cx="25.613869672900705" cy="492.39233726891996" r="17.183996158558365" fill="#5e6fa3"></circle> <circle cx="281.6138696729007" cy="492.39233726891996" r="17.183996158558365" fill="#5e6fa3"></circle> <circle cx="-230.3861303270993" cy="748.39233726892" r="17.183996158558365" fill="#5e6fa3"></circle> <circle cx="25.613869672900705" cy="748.39233726892" r="17.183996158558365" fill="#5e6fa3"></circle> <circle cx="281.6138696729007" cy="748.39233726892" r="17.183996158558365" fill="#5e6fa3"></circle> <circle cx="-29.934329401216075" cy="168.68404986470233" r="24.47018283078528" fill="#5e6fa3"></circle> <circle cx="226.06567059878392" cy="168.68404986470233" r="24.47018283078528" fill="#5e6fa3"></circle> <circle cx="482.0656705987839" cy="168.68404986470233" r="24.47018283078528" fill="#5e6fa3"></circle> <circle cx="-29.934329401216075" cy="424.68404986470233" r="24.47018283078528" fill="#5e6fa3"></circle> <circle cx="226.06567059878392" cy="424.68404986470233" r="24.47018283078528" fill="#5e6fa3"></circle> <circle cx="482.0656705987839" cy="424.68404986470233" r="24.47018283078528" fill="#5e6fa3"></circle> <circle cx="-29.934329401216075" cy="680.6840498647023" r="24.47018283078528" fill="#5e6fa3"></circle> <circle cx="226.06567059878392" cy="680.6840498647023" r="24.47018283078528" fill="#5e6fa3"></circle> <circle cx="482.0656705987839" cy="680.6840498647023" r="24.47018283078528" fill="#5e6fa3"></circle> <circle cx="-19.652054236618767" cy="30.21589021686492" r="18.720578292290323" fill="#5e6fa3"></circle> <circle cx="236.34794576338123" cy="30.21589021686492" r="18.720578292290323" fill="#5e6fa3"></circle> <circle cx="492.34794576338123" cy="30.21589021686492" r="18.720578292290323" fill="#5e6fa3"></circle> <circle cx="-19.652054236618767" cy="286.2158902168649" r="18.720578292290323" fill="#5e6fa3"></circle> <circle cx="236.34794576338123" cy="286.2158902168649" r="18.720578292290323" fill="#5e6fa3"></circle> <circle cx="492.34794576338123" cy="286.2158902168649" r="18.720578292290323" fill="#5e6fa3"></circle> <circle cx="-19.652054236618767" cy="542.2158902168649" r="18.720578292290323" fill="#5e6fa3"></circle> <circle cx="236.34794576338123" cy="542.2158902168649" r="18.720578292290323" fill="#5e6fa3"></circle> <circle cx="492.34794576338123" cy="542.2158902168649" r="18.720578292290323" fill="#5e6fa3"></circle> 
      <animateTransform attributeName="transform" type="translate" dur="16.666666666666668s" repeatCount="indefinite" keyTimes="0;1" values="0 0;0 -256"></animateTransform>
    </g></g></g>
      </pattern>
    </defs>
    <rect x="0" y="0" width="1084" height="322" fill="url(#pid-0.5239578789186163)"></rect>
    </svg>