<?xml version="1.0" encoding="utf-8"?>
<!-- Generator: Adobe Illustrator 25.4.1, SVG Export Plug-In . SVG Version: 6.00 Build 0)  -->
<svg version="1.1" id="Layer_1" xmlns="http://www.w3.org/2000/svg" xmlns:xlink="http://www.w3.org/1999/xlink" x="0px" y="0px"
	 viewBox="0 0 1082.21 602.59" style="enable-background:new 0 0 1082.21 602.59;" xml:space="preserve">
<style type="text/css">
	.st0{fill:#FFFFFF;}
	.st1{fill:#A41034;}
</style>
<path class="st0" d="M5.79,145.79c0,126.07,66.81,221.27,160.63,280.94c93.83-59.67,160.64-154.87,160.64-280.94H5.79z"/>
<rect x="5.79" y="45.32" class="st1" width="321.27" height="100.13"/>
<path class="st0" d="M307.42,106.91h-4.31V83.02h4.31c1.91,0,3.45-1.55,3.45-3.47c0-1.91-1.54-3.46-3.45-3.46h-4.31V65.76h-29.25
	c-4.97,0-9.15,3.29-10.36,7.83h-0.19c-1.21-4.54-5.39-7.83-10.35-7.83H223.3v10.33H219c-1.91,0-3.46,1.55-3.46,3.46
	c0,1.91,1.56,3.47,3.46,3.47h4.3v23.89H219c-1.91,0-3.46,1.55-3.46,3.46c0,1.91,1.56,3.46,3.46,3.46h4.3v11.18h36.6
	c0.8,1.23,2.19,2.05,3.76,2.05c1.58,0,2.96-0.82,3.76-2.05h35.68v-11.18h4.31c1.91,0,3.45-1.55,3.45-3.46
	C310.87,108.47,309.33,106.91,307.42,106.91"/>
<path class="st0" d="M108.15,106.91h-4.3V83.02h4.3c1.91,0,3.46-1.55,3.46-3.47c0-1.91-1.55-3.46-3.46-3.46h-4.3V65.76h-26.5
	c-5.91,0-10.71,4.79-10.71,10.7c0-5.91-4.79-10.7-10.7-10.7h-26.5v10.33h-4.3c-1.91,0-3.46,1.55-3.46,3.46
	c0,1.91,1.55,3.47,3.46,3.47h4.3v23.89h-4.3c-1.91,0-3.46,1.55-3.46,3.46c0,1.91,1.55,3.46,3.46,3.46h4.3v11.18h33.44
	c0.8,1.23,2.19,2.05,3.76,2.05c1.57,0,2.96-0.82,3.76-2.05h33.45v-11.18h4.3c1.91,0,3.46-1.55,3.46-3.46
	C111.61,108.47,110.06,106.91,108.15,106.91"/>
<path class="st0" d="M204.52,106.91h-4.3V83.02h4.3c1.91,0,3.46-1.55,3.46-3.47c0-1.91-1.55-3.46-3.46-3.46h-4.3V65.76h-23.08
	c-5.92,0-10.71,4.79-10.71,10.7c0-5.91-4.79-10.7-10.71-10.7h-29v10.33h-4.3c-1.91,0-3.46,1.55-3.46,3.46
	c0,1.91,1.55,3.47,3.46,3.47h4.3v23.89h-4.3c-1.91,0-3.46,1.55-3.46,3.46c0,1.91,1.55,3.46,3.46,3.46h4.3v11.18h35.94
	c0.81,1.23,2.19,2.05,3.77,2.05c1.57,0,2.96-0.82,3.76-2.05h30.03v-11.18h4.3c1.91,0,3.46-1.55,3.46-3.46
	C207.98,108.47,206.43,106.91,204.52,106.91"/>
<path d="M266.67,323.87c-3.76-3.25-6.15-8.05-6.15-13.42c0-4.28,1.48-8.21,4.02-11.28c-3.07,2.54-7.06,4.03-11.35,4.03
	c-9.81,0-17.75-7.94-17.75-17.75c0-4.28,1.99-8.72,4.02-11.28c-2.39,2.25-6.29,4.03-10.69,4.03c-9.19,0-17-7.88-17-16.87
	c0-8.99,7.81-16.86,17-16.86c4.4,0,8.3,1.79,10.69,4.03c-2.03-2.56-4.02-6.99-4.02-11.28c0-9.81,7.94-17.75,17.75-17.75
	c4.3,0,8.28,1.49,11.35,4.03c-2.54-3.07-4.02-6.99-4.02-11.28c0-9.81,7.94-17.75,17.75-17.75c4.3,0,8.28,1.49,11.35,4.03
	c-2.03-2.56-4.02-6.99-4.02-11.28c0-9.81,7.94-17.75,17.75-17.75c4.3,0,8.28,1.49,11.35,4.03c-2.54-3.07-4.02-6.99-4.02-11.28
	c0-4.18,1.44-8,3.85-11.03h6.64C320.17,214.79,301.36,273.4,266.67,323.87 M242.41,311.75h2.78c1.14,0,1.4,1.26,0.8,2.58
	c-0.62,1.36-1.13,2.77-1.36,3.85c-0.25,1.14-0.94,1.63-1.55,0.52c-0.62-1.11-1.49-2.72-1.98-4.54
	C240.59,312.35,240.77,311.75,242.41,311.75 M222.93,311.75h2.79c1.64,0,1.82,0.6,1.31,2.42c-0.49,1.83-1.35,3.43-1.98,4.54
	c-0.62,1.11-1.3,0.62-1.55-0.52c-0.23-1.09-0.75-2.49-1.36-3.85C221.53,313.01,221.79,311.75,222.93,311.75 M224.25,323.07
	c2.87-2.65,4.43-5.31,5.77-12.34c0.67-3.56,2.27-4.52,4.04-4.52c1.78,0,3.37,0.96,4.05,4.52c1.33,7.03,2.89,9.69,5.77,12.34
	c2.08,1.92,5.07,1.81,6.78,1.93c1.04,0.07,2.32,0.6,2.75,3.19c0.43,2.59-1.1,5.11-1.96,6.27c-0.85,1.15-1.4,0.82-2.39,0.05
	c-1.96-1.5-4.1-3.91-5.82-6.38c-1.74-2.51-2.75-1.33-1.53,1.14c1.23,2.47,3.73,5.97,5.63,7.83c1.38,1.36,1.11,2.22,0.55,3.25
	c-0.55,1.02-2.26,2.65-2.81,3.07c-0.55,0.42-2.82,1.75-4.28-1.15c-1.47-2.89-2.64-8.31-2.82-10.53c-0.18-2.17-1.65-1.81-1.84,0.05
	c-0.08,0.9-0.06,1.27-0.06,3.67c0,2.41,0.73,5.48,1.9,8.43c1.16,2.95,0.13,3.12-0.67,3.55c-0.8,0.43-1.65,0.67-3.25,0.67
	c-1.59,0-2.45-0.24-3.25-0.67c-0.8-0.43-1.83-0.6-0.67-3.55c1.16-2.95,1.9-6.03,1.9-8.43c0-2.41,0.03-2.77-0.06-3.67
	c-0.18-1.86-1.66-2.22-1.84-0.05c-0.18,2.22-1.35,7.65-2.82,10.53c-1.46,2.9-3.73,1.57-4.28,1.15c-0.55-0.42-2.26-2.05-2.81-3.07
	c-0.55-1.03-0.83-1.89,0.55-3.25c1.9-1.86,4.41-5.36,5.63-7.83c1.23-2.47,0.22-3.66-1.53-1.14c-1.71,2.47-3.86,4.88-5.82,6.38
	c-0.99,0.77-1.53,1.1-2.39-0.05c-0.86-1.16-2.39-3.68-1.96-6.27c0.43-2.59,1.71-3.12,2.75-3.19
	C219.17,324.88,222.16,324.99,224.25,323.07 M166.42,419.85c-24.76-16.06-46.76-34.12-65.84-53.9c2.46-6.86,9-11.76,16.71-11.76
	c4.29,0,8.21,1.48,11.28,4.02c-2.55-3.07-4.03-7.05-4.03-11.35c0-9.8,7.95-17.73,17.76-17.73c4.29,0,8.21,1.48,11.28,4.02
	c-1.94-2.85-4.03-6.02-4.03-10.69c0-9.18,7.88-16.98,16.88-16.98c9,0,16.88,7.8,16.88,16.98c0,4.67-2.1,7.84-4.04,10.69
	c3.07-2.54,7-4.02,11.28-4.02c9.81,0,17.76,7.93,17.76,17.73c0,4.3-1.49,8.28-4.03,11.35c3.07-2.54,6.99-4.02,11.28-4.02
	c7.71,0,14.26,4.91,16.71,11.76C213.18,385.73,191.19,403.79,166.42,419.85 M107.13,311.75h2.79c1.14,0,1.39,1.26,0.8,2.58
	c-0.62,1.36-1.13,2.77-1.37,3.85c-0.25,1.14-0.93,1.63-1.55,0.52c-0.62-1.11-1.48-2.72-1.98-4.54
	C105.32,312.35,105.49,311.75,107.13,311.75 M87.65,311.75h2.79c1.65,0,1.82,0.6,1.31,2.42c-0.49,1.83-1.36,3.43-1.98,4.54
	c-0.62,1.11-1.3,0.62-1.55-0.52c-0.24-1.09-0.75-2.49-1.36-3.85C86.25,313.01,86.51,311.75,87.65,311.75 M106.44,329.27
	c1.23,2.47,3.74,5.97,5.63,7.83c1.38,1.36,1.11,2.22,0.56,3.25c-0.56,1.02-2.27,2.65-2.82,3.07c-0.55,0.42-2.82,1.75-4.28-1.15
	c-1.47-2.89-2.63-8.31-2.82-10.53c-0.18-2.17-1.65-1.81-1.84,0.05c-0.08,0.9-0.06,1.27-0.06,3.67c0,2.41,0.73,5.48,1.9,8.43
	c1.16,2.95,0.12,3.12-0.68,3.55c-0.8,0.43-1.65,0.67-3.25,0.67c-1.59,0-2.45-0.24-3.25-0.67c-0.8-0.43-1.83-0.6-0.67-3.55
	c1.16-2.95,1.9-6.03,1.9-8.43c0-2.41,0.02-2.77-0.06-3.67c-0.19-1.86-1.67-2.22-1.84-0.05c-0.18,2.22-1.35,7.65-2.82,10.53
	c-1.47,2.9-3.74,1.57-4.28,1.15c-0.55-0.42-2.27-2.05-2.82-3.07c-0.56-1.03-0.83-1.89,0.56-3.25c1.89-1.86,4.4-5.36,5.63-7.83
	c1.23-2.47,0.22-3.66-1.52-1.14c-1.72,2.47-3.86,4.88-5.82,6.38c-0.99,0.77-1.53,1.1-2.38-0.05c-0.86-1.16-2.39-3.68-1.97-6.27
	c0.43-2.59,1.71-3.12,2.76-3.19c1.71-0.12,4.7-0.01,6.79-1.93c2.87-2.65,4.43-5.31,5.76-12.34c0.68-3.56,2.27-4.52,4.04-4.52
	c1.78,0,3.37,0.96,4.04,4.52c1.34,7.03,2.9,9.69,5.77,12.34c2.08,1.92,5.07,1.81,6.79,1.93c1.04,0.07,2.32,0.6,2.76,3.19
	c0.42,2.59-1.11,5.11-1.97,6.27c-0.85,1.15-1.39,0.82-2.38,0.05c-1.96-1.5-4.1-3.91-5.82-6.38
	C106.23,325.62,105.21,326.8,106.44,329.27 M18.3,151.24c2.41,3.03,3.85,6.86,3.85,11.03c0,4.28-1.48,8.21-4.02,11.28
	c3.07-2.54,7.06-4.03,11.36-4.03c9.81,0,17.75,7.95,17.75,17.75c0,4.28-1.99,8.72-4.02,11.28c3.07-2.54,7.06-4.03,11.36-4.03
	c9.81,0,17.75,7.94,17.75,17.75c0,4.28-1.48,8.21-4.03,11.28c3.08-2.54,7.06-4.03,11.36-4.03c9.81,0,17.75,7.94,17.75,17.75
	c0,4.28-2,8.72-4.02,11.28c2.39-2.25,6.29-4.03,10.7-4.03c9.18,0,17,7.88,17,16.86c0,8.99-7.81,16.87-17,16.87
	c-4.41,0-8.31-1.79-10.7-4.03c2.03,2.56,4.02,6.99,4.02,11.28c0,9.81-7.95,17.75-17.75,17.75c-4.3,0-8.28-1.49-11.36-4.03
	c2.55,3.07,4.03,6.99,4.03,11.28c0,5.36-2.39,10.16-6.15,13.41C31.49,273.4,12.69,214.79,11.67,151.24H18.3z M107.13,178.6h2.79
	c1.14,0,1.39,1.25,0.8,2.58c-0.62,1.36-1.13,2.77-1.37,3.86c-0.25,1.14-0.93,1.63-1.55,0.52c-0.62-1.11-1.48-2.72-1.98-4.54
	C105.32,179.2,105.49,178.6,107.13,178.6 M91.75,181.02c-0.49,1.83-1.36,3.43-1.98,4.54c-0.62,1.11-1.3,0.62-1.55-0.52
	c-0.24-1.09-0.75-2.49-1.36-3.86c-0.6-1.33-0.34-2.58,0.79-2.58h2.79C92.08,178.6,92.26,179.2,91.75,181.02 M106.44,196.12
	c1.23,2.47,3.74,5.97,5.63,7.83c1.38,1.36,1.11,2.22,0.56,3.25c-0.56,1.02-2.27,2.65-2.82,3.07c-0.55,0.42-2.82,1.75-4.28-1.15
	c-1.47-2.89-2.63-8.31-2.82-10.53c-0.18-2.17-1.65-1.81-1.84,0.05c-0.08,0.9-0.06,1.27-0.06,3.67c0,2.41,0.73,5.48,1.9,8.43
	c1.16,2.95,0.12,3.12-0.68,3.55c-0.8,0.42-1.65,0.67-3.25,0.67c-1.59,0-2.45-0.24-3.25-0.67c-0.8-0.43-1.83-0.6-0.67-3.55
	c1.16-2.95,1.9-6.03,1.9-8.43c0-2.41,0.02-2.77-0.06-3.67c-0.19-1.86-1.67-2.22-1.84-0.05c-0.18,2.22-1.35,7.65-2.82,10.53
	c-1.47,2.9-3.74,1.57-4.28,1.15c-0.55-0.42-2.27-2.05-2.82-3.07c-0.56-1.03-0.83-1.89,0.56-3.25c1.89-1.86,4.4-5.36,5.63-7.83
	c1.23-2.47,0.22-3.66-1.52-1.15c-1.72,2.47-3.86,4.88-5.82,6.38c-0.99,0.77-1.53,1.1-2.38-0.05c-0.86-1.16-2.39-3.68-1.97-6.27
	c0.43-2.59,1.71-3.12,2.76-3.19c1.71-0.12,4.7-0.01,6.79-1.93c2.87-2.65,4.43-5.31,5.76-12.34c0.68-3.56,2.27-4.52,4.04-4.52
	c1.78,0,3.37,0.96,4.04,4.52c1.34,7.03,2.9,9.69,5.77,12.34c2.08,1.92,5.07,1.81,6.79,1.93c1.04,0.07,2.32,0.6,2.76,3.19
	c0.42,2.59-1.11,5.12-1.97,6.27c-0.85,1.15-1.39,0.82-2.38,0.05c-1.96-1.5-4.1-3.91-5.82-6.38
	C106.23,192.46,105.21,193.65,106.44,196.12 M175.2,242.63h2.93c1.19,0,1.47,1.32,0.83,2.72c-0.65,1.43-1.18,2.91-1.43,4.06
	c-0.27,1.2-0.99,1.71-1.64,0.55c-0.65-1.17-1.56-2.86-2.08-4.78C173.29,243.27,173.48,242.63,175.2,242.63 M154.71,242.63h2.94
	c1.73,0,1.91,0.63,1.38,2.54c-0.52,1.92-1.43,3.61-2.08,4.78c-0.65,1.16-1.37,0.65-1.63-0.55c-0.25-1.14-0.79-2.63-1.43-4.06
	C153.24,243.95,153.52,242.63,154.71,242.63 M174.47,261.07c1.29,2.6,3.93,6.28,5.92,8.24c1.45,1.43,1.16,2.34,0.58,3.42
	c-0.58,1.08-2.38,2.79-2.96,3.24c-0.58,0.44-2.97,1.84-4.51-1.21c-1.55-3.04-2.77-8.74-2.96-11.08c-0.19-2.28-1.74-1.9-1.94,0.06
	c-0.09,0.95-0.06,1.33-0.06,3.86c0,2.53,0.77,5.77,2,8.87c1.22,3.1,0.13,3.29-0.71,3.74c-0.84,0.45-1.74,0.7-3.42,0.7
	c-1.67,0-2.58-0.25-3.41-0.7c-0.84-0.45-1.93-0.63-0.71-3.74c1.23-3.1,2-6.34,2-8.87c0-2.53,0.02-2.92-0.06-3.86
	c-0.19-1.96-1.74-2.34-1.93-0.06c-0.19,2.34-1.42,8.04-2.97,11.08c-1.54,3.04-3.93,1.65-4.51,1.21c-0.58-0.45-2.38-2.16-2.96-3.24
	c-0.58-1.08-0.87-1.99,0.58-3.42c1.99-1.96,4.63-5.63,5.92-8.24c1.29-2.6,0.23-3.85-1.61-1.21c-1.81,2.6-4.06,5.13-6.12,6.71
	c-1.04,0.8-1.61,1.15-2.51-0.05c-0.91-1.21-2.51-3.87-2.07-6.6c0.46-2.72,1.8-3.28,2.9-3.36c1.8-0.13,4.94-0.01,7.14-2.03
	c3.02-2.79,4.66-5.59,6.06-12.98c0.71-3.75,2.39-4.75,4.25-4.75s3.55,1,4.25,4.75c1.4,7.39,3.05,10.19,6.07,12.98
	c2.19,2.02,5.34,1.9,7.13,2.03c1.1,0.07,2.45,0.63,2.9,3.36c0.45,2.72-1.16,5.38-2.07,6.6c-0.9,1.21-1.47,0.86-2.51,0.05
	c-2.06-1.58-4.32-4.11-6.12-6.71C174.25,257.22,173.19,258.47,174.47,261.07 M215.56,168.53c-4.28,0-8.21-1.48-11.28-4.02
	c2.54,3.07,4.03,7.05,4.03,11.35c0,9.81-7.95,17.74-17.76,17.74c-4.29,0-8.21-1.48-11.28-4.02c1.94,2.85,4.04,6.02,4.04,10.69
	c0,9.18-7.88,16.98-16.88,16.98c-8.99,0-16.88-7.8-16.88-16.98c0-4.67,2.1-7.84,4.03-10.69c-3.07,2.54-7,4.02-11.28,4.02
	c-9.81,0-17.76-7.93-17.76-17.74c0-4.29,1.49-8.27,4.03-11.35c-3.07,2.54-7,4.02-11.28,4.02c-9.66,0-17.49-7.7-17.74-17.29h133.75
	C233.05,160.83,225.22,168.53,215.56,168.53 M242.41,178.6h2.78c1.14,0,1.4,1.25,0.8,2.58c-0.62,1.36-1.13,2.77-1.36,3.86
	c-0.25,1.14-0.94,1.63-1.55,0.52c-0.62-1.11-1.49-2.72-1.98-4.54C240.59,179.2,240.77,178.6,242.41,178.6 M222.93,178.6h2.79
	c1.64,0,1.82,0.6,1.31,2.42c-0.49,1.83-1.35,3.43-1.98,4.54c-0.62,1.11-1.3,0.62-1.55-0.52c-0.23-1.09-0.75-2.49-1.36-3.86
	C221.53,179.85,221.79,178.6,222.93,178.6 M241.72,196.12c1.23,2.47,3.73,5.97,5.63,7.83c1.38,1.36,1.11,2.22,0.55,3.25
	c-0.55,1.02-2.26,2.65-2.81,3.07c-0.55,0.42-2.82,1.75-4.28-1.15c-1.47-2.89-2.64-8.31-2.82-10.53c-0.18-2.17-1.65-1.81-1.84,0.05
	c-0.08,0.9-0.06,1.27-0.06,3.67c0,2.41,0.73,5.48,1.9,8.43c1.16,2.95,0.13,3.12-0.67,3.55c-0.8,0.42-1.65,0.67-3.25,0.67
	c-1.59,0-2.45-0.24-3.25-0.67c-0.8-0.43-1.83-0.6-0.67-3.55c1.16-2.95,1.9-6.03,1.9-8.43c0-2.41,0.03-2.77-0.06-3.67
	c-0.18-1.86-1.66-2.22-1.84-0.05c-0.18,2.22-1.35,7.65-2.82,10.53c-1.46,2.9-3.73,1.57-4.28,1.15c-0.55-0.42-2.26-2.05-2.81-3.07
	c-0.55-1.03-0.83-1.89,0.55-3.25c1.9-1.86,4.41-5.36,5.63-7.83c1.23-2.47,0.22-3.66-1.53-1.15c-1.71,2.47-3.86,4.88-5.82,6.38
	c-0.99,0.77-1.53,1.1-2.39-0.05c-0.86-1.16-2.39-3.68-1.96-6.27c0.43-2.59,1.71-3.12,2.75-3.19c1.71-0.12,4.7-0.01,6.79-1.93
	c2.87-2.65,4.43-5.31,5.77-12.34c0.67-3.56,2.27-4.52,4.04-4.52c1.78,0,3.37,0.96,4.05,4.52c1.33,7.03,2.89,9.69,5.77,12.34
	c2.08,1.92,5.07,1.81,6.78,1.93c1.04,0.07,2.32,0.6,2.75,3.19c0.43,2.59-1.1,5.12-1.96,6.27c-0.85,1.15-1.4,0.82-2.39,0.05
	c-1.96-1.5-4.1-3.91-5.82-6.38C241.5,192.46,240.49,193.65,241.72,196.12 M11.58,51.11h309.69v88.56H11.58V51.11z M0,39.54v106.25
	c0,117.33,58,218.84,163.31,285.83l3.11,1.98l3.11-1.98c105.32-66.98,163.32-168.49,163.32-285.83V39.54H0z"/>
<path d="M72.71,103.2c-0.59,0.52-0.44,1.32,0.53,1.24c0.97-0.06,1.33-0.08,2.31-0.08l10.03-0.01c0.79,0.05,2.3,0.77,2.3-0.81v-4.86
	c0-2.63-1.32-3.11-2.11,0.06c-0.52,2.1-1.18,4.01-4.4,4.01h-2.1c-0.86,0-1.17-0.33-1.25-1.05c-0.2-1.84-0.2-5.16,0-8.8
	c0.05-1.06,0.53-1.15,1.57-1.15c1.06,0,1.33,0.09,1.65,0.94c0.36,0.99,2.3,2.77,2.3,0v-3.67c0-2.75-1.71-0.8-2.17,0
	c-0.46,0.79-0.72,0.79-1.78,0.79c-1.04,0-1.39-0.21-1.44-1.25c-0.1-1.72-0.2-4.47,0-7.69c0.05-0.72,0.26-1.05,1.12-1.05h2.1
	c3.22,0,3.22,2.17,3.74,4.28c0.53,2.1,2.1,1.57,2.1,0.05v-4.85c0-1.58-1.51-0.85-2.3-0.8h-9.37c-0.97,0-1.34,0-2.31-0.07
	c-0.97-0.07-1.12,0.72-0.53,1.25c0.61,0.52,0.81,0.59,0.82,2.62v18.26C73.52,102.61,73.31,102.68,72.71,103.2"/>
<path d="M62.76,79.85c0.55-0.52,0.53-1.48-0.24-1.41c-0.77,0.07-1.06,0.07-1.82,0.07c-0.77,0-1.06,0-1.81-0.07
	c-0.75-0.07-1,0.72-0.61,1.25c0.38,0.52,1.06,0.59,0.74,2.62l-3.89,12.64c-0.45,1.59-1.46,2.13-1.89-0.01l-2.67-12.63
	c-0.42-2.03-0.22-2.1,0.27-2.62c0.49-0.53,0.18-1.32-0.79-1.25c-0.97,0.07-1.35,0.07-2.33,0.07c-0.99,0-1.37,0-2.37-0.07
	c-0.99-0.07-0.98,0.72-0.26,1.25c0.72,0.52,0.94,0.59,1.39,2.62l4.61,19.98c0.44,1.66,0.72,2.82,1.81,2.82
	c1.09,0,1.7-1.09,2.14-2.75l6.15-20.04C62.01,80.33,62.2,80.38,62.76,79.85"/>
<path d="M108.15,112.78h-5.36v11.18H73.26c0.1-0.45,0.15-0.91,0.15-1.39c0-0.38-0.05-0.74-0.11-1.11h25.83V70.32l-3.41-3.51h7.07
	v10.33h5.36c1.33,0,2.41,1.08,2.41,2.41c0,1.33-1.08,2.41-2.41,2.41h-5.36v26.01h5.36c1.33,0,2.41,1.08,2.41,2.41
	C110.56,111.7,109.48,112.78,108.15,112.78 M66.64,127.07c-2.47,0-4.49-2.01-4.49-4.49c0-2.48,2.02-4.49,4.49-4.49
	c2.48,0,4.49,2.01,4.49,4.49C71.13,125.06,69.12,127.07,66.64,127.07 M30.5,123.97v-11.18h-5.36c-1.33,0-2.41-1.08-2.41-2.4
	c0-1.33,1.08-2.41,2.41-2.41h5.36V81.96h-5.36c-1.33,0-2.41-1.08-2.41-2.41c0-1.33,1.08-2.41,2.41-2.41h5.36V66.82h7.08l-3.41,3.51
	v51.15h25.81c-0.06,0.36-0.11,0.73-0.11,1.11c0,0.48,0.05,0.94,0.15,1.39H30.5z M40.14,114.62l-3.86,3.44V71.18l3.86-3.97
	L40.14,114.62z M55.93,116.12c2.95,0,4.98,0.44,6.46,1.23c-0.68,0.55-1.26,1.23-1.67,2.01H38l3.61-3.21L55.93,116.12z M42.26,66.82
	h13.67c5.32,0,9.65,4.32,9.65,9.64v39.46c-0.37,0.06-0.72,0.15-1.07,0.27c-2.03-1.52-4.74-2.18-8.57-2.18l-13.67,0.02V66.82z
	 M77.35,66.82h13.68v47.22l-13.68-0.02c-3.83,0-6.54,0.66-8.57,2.18c-0.35-0.12-0.7-0.21-1.07-0.27V76.46
	C67.69,71.14,72.02,66.82,77.35,66.82 M95.29,119.36H72.55c-0.42-0.77-0.98-1.45-1.66-2c1.47-0.8,3.49-1.24,6.45-1.24l14.34,0.02
	L95.29,119.36z M92.07,115.09L92.07,115.09L92.07,115.09L92.07,115.09z M93.15,67.2l3.87,3.98v46.88l-3.87-3.44V67.2z
	 M108.15,105.86h-3.25V84.07h3.25c2.49,0,4.52-2.03,4.52-4.52c0-2.49-2.03-4.52-4.52-4.52h-3.25V64.7H77.35
	c-4.75,0-8.85,2.83-10.71,6.89c-1.86-4.06-5.95-6.89-10.7-6.89H28.38v10.33h-3.24c-2.5,0-4.52,2.03-4.52,4.52
	c0,2.49,2.03,4.52,4.52,4.52h3.24v21.79h-3.24c-2.5,0-4.52,2.03-4.52,4.52c0,2.49,2.03,4.52,4.52,4.52h3.24v11.18h32.5
	c1.19,1.95,3.32,3.26,5.76,3.26c2.44,0,4.58-1.32,5.76-3.26h32.5v-11.18h3.25c2.49,0,4.52-2.03,4.52-4.52
	C112.67,107.88,110.64,105.86,108.15,105.86"/>
<path d="M149.85,85.07l0.03,3.88c0,0.65,0.46,1.25,1.84,1.25c1.38,0,4.4-0.79,4.4-5.06c0-4.26-2.18-4.93-3.48-5.13
	c-1.32-0.19-2.79-0.13-2.79,2.04V85.07z M147.46,104.59c-0.86,0-1.86,0-2.7,0.07c-0.86,0.06-0.99-0.72-0.47-1.25
	c0.53-0.53,1.12-0.59,1.12-2.63V81.65c0-0.86-0.07-1.31-0.8-1.9c-0.71-0.6,0.21-1.32,1.26-1.32c1.04,0,4.08,0.07,5.78,0.07
	c6.84,0,9.08,2.29,9.08,6.29c0,3.04-1.87,4.93-4.08,5.86c-0.62,0.26-0.82,0.69-0.82,1.02c0,0.33,0.07,0.5,0.37,0.98
	c0.29,0.49,4.43,8.67,4.99,9.43c0.56,0.76,0.89,1.08,1.28,1.38c0.24,0.18,0.23,1.15-1.15,1.15h-3.61c0,0-0.24,0.07-0.67-0.66
	c-0.42-0.72-5.36-11.2-5.81-11.95l-1.42-0.16l-0.04,8.93c0,2.04,0.58,1.98,1.18,2.5c0.6,0.52,0.42,1.45-0.55,1.38
	C149.42,104.59,148.42,104.59,147.46,104.59"/>
<path d="M179.68,100.97c0.02,2.04,0.23,2.1,0.81,2.63c0.61,0.52,0.46,1.31-0.52,1.25c-0.97-0.07-1.34-0.07-2.3-0.07
	c-0.98,0-1.35,0-2.32,0.07c-0.97,0.07-1.11-0.73-0.53-1.25c0.61-0.53,0.81-0.59,0.83-2.63V82.71c-0.02-2.04-0.22-2.11-0.83-2.63
	c-0.58-0.52-0.44-1.32,0.53-1.25c0.96,0.06,1.34,0.06,2.32,0.06c0.96,0,1.33,0,2.3-0.06c0.97-0.07,1.13,0.72,0.52,1.25
	c-0.58,0.52-0.8,0.59-0.81,2.63V100.97z"/>
<path d="M204.52,112.78h-5.36v11.18h-26.11c0.1-0.45,0.15-0.91,0.15-1.39c0-0.38-0.05-0.74-0.11-1.11h22.41V70.32l-3.41-3.51h7.08
	v10.33h5.36c1.33,0,2.41,1.08,2.41,2.41c0,1.33-1.08,2.41-2.41,2.41h-5.36v26.01h5.36c1.33,0,2.41,1.08,2.41,2.41
	C206.92,111.7,205.84,112.78,204.52,112.78 M166.42,127.07c-2.48,0-4.49-2.01-4.49-4.49c0-2.48,2.02-4.49,4.49-4.49
	c2.48,0,4.5,2.01,4.5,4.49C170.92,125.06,168.9,127.07,166.42,127.07 M127.78,123.97v-11.18h-5.36c-1.33,0-2.41-1.08-2.41-2.4
	c0-1.33,1.08-2.41,2.41-2.41h5.36V81.96h-5.36c-1.33,0-2.41-1.08-2.41-2.41c0-1.33,1.08-2.41,2.41-2.41h5.36V66.82h7.08l-3.41,3.51
	v51.15h28.32c-0.06,0.36-0.11,0.73-0.11,1.11c0,0.48,0.05,0.94,0.15,1.39H127.78z M137.42,114.62l-3.86,3.44V71.18l3.86-3.97
	L137.42,114.62z M138.49,115.09L138.49,115.09L138.49,115.09L138.49,115.09z M155.72,116.12c2.96,0,4.97,0.44,6.45,1.24
	c-0.68,0.55-1.23,1.23-1.66,2h-25.23l3.61-3.21L155.72,116.12z M139.54,66.82h16.17c5.32,0,9.65,4.32,9.65,9.64v39.46
	c-0.38,0.06-0.73,0.15-1.09,0.27c-2.03-1.52-4.72-2.18-8.56-2.18l-16.17,0.02V66.82z M177.13,66.82h10.25v47.22l-10.25-0.02
	c-3.84,0-6.54,0.67-8.57,2.18c-0.35-0.12-0.71-0.22-1.09-0.27V76.46C167.48,71.14,171.81,66.82,177.13,66.82 M191.66,119.36h-19.32
	c-0.42-0.77-0.98-1.45-1.66-2c1.48-0.8,3.5-1.24,6.45-1.24l10.92,0.02L191.66,119.36z M189.5,67.2l3.87,3.97v46.88l-3.87-3.44V67.2z
	 M204.52,105.86h-3.24V84.07h3.24c2.49,0,4.52-2.03,4.52-4.52c0-2.49-2.03-4.52-4.52-4.52h-3.24V64.7h-24.14
	c-4.76,0-8.86,2.83-10.71,6.89c-1.86-4.06-5.96-6.89-10.71-6.89h-30.05v10.33h-3.24c-2.49,0-4.52,2.03-4.52,4.52
	c0,2.49,2.03,4.52,4.52,4.52h3.24v21.79h-3.24c-2.49,0-4.52,2.03-4.52,4.52c0,2.49,2.03,4.52,4.52,4.52h3.24v11.18h35
	c1.19,1.95,3.32,3.26,5.77,3.26c2.45,0,4.57-1.32,5.76-3.26h29.09v-11.18h3.24c2.49,0,4.52-2.03,4.52-4.52
	C209.04,107.88,207.01,105.86,204.52,105.86"/>
<path d="M261.19,87.77c0.9-3.1,1.47-3.21,2.16,0.22l1.28,5.26c0.45,1.3,0.31,1.58-2.15,1.58c-3.19,0-3.39-0.23-2.8-1.54
	L261.19,87.77z M265.57,97.18l0.83,3.43c0.42,2.03,0.22,2.1-0.27,2.62c-0.48,0.53-0.17,1.32,0.79,1.25c0.98-0.07,1.62-0.07,2.6-0.07
	c0.99,0,1.1,0,2.1,0.07c1,0.07,0.85-1.2,0.36-1.54c-0.72-0.52-0.75-0.97-1.23-2.33l-5.65-19.98c-0.44-1.65-1.07-2.76-1.46-2.67
	c-1.23,0.28-2.7,0.61-2.63,1.43l0.1,2.15l-5.72,19.07c-0.82,1.98-1.01,1.94-1.57,2.46c-0.55,0.52-0.53,1.48,0.24,1.41
	c0.77-0.07,1.06-0.07,1.83-0.07c0.77,0,1.04,0,1.8,0.07c0.75,0.07,1-0.72,0.62-1.25c-0.4-0.52-1.07-0.59-0.74-2.62l1.18-3.7
	c0.3-0.82,2.21-0.53,3.19-0.53C262.93,96.39,265.16,96.01,265.57,97.18"/>
<path d="M246.97,78.65c1.31,0,2.9-0.06,5.17-0.2c3.17-0.19,3.24,0,3.24,0.92c0,0.61,0.08,3.28,0.08,4.01c0,0.72-0.08,1.91-0.76,1.91
	c-0.69,0-0.97-0.8-1.38-1.91c-1.17-3.16-2.35-3.62-3.17-3.62c-0.83,0-1.06,0.65-1.06,2.37v18.26c0.01,2.04,0.23,2.1,0.86,2.62
	c0.62,0.53,0.47,1.45-0.55,1.39c-1.02-0.07-1.42-0.07-2.43-0.07c-1.02,0-1.41,0-2.43,0.07c-1.02,0.07-1.16-0.86-0.54-1.39
	c0.63-0.52,0.84-0.58,0.87-2.62V82.13c0-1.71-0.24-2.37-1.07-2.37c-0.83,0-2.01,0.46-3.18,3.62c-0.41,1.11-0.67,1.91-1.38,1.91
	c-0.67,0-0.75-1.18-0.75-1.91c0-0.73,0.08-3.41,0.08-4.01c0-0.92,0.07-1.11,3.23-0.92C244.07,78.59,245.66,78.65,246.97,78.65"/>
<path d="M273.35,98.17c0-2.4,1.52-2.07,2.37,0.32c0.79,2.23,1.91,5.06,4.93,5.06c3.03,0,3.69-3.49,3.69-5.19
	c0-2.7-1.11-3.61-5.26-6.71c-4.14-3.08-5.06-5.06-5.06-7.49c0-2.43,2.37-6.23,6.18-6.23c1.87,0,2.8,0.16,3.78,0.89
	c0.14,0.1,1.4,0.18,1.67-0.17c0.39-0.53,1.18,0.13,1.18,0.85c0,0.72,0,3.88,0.07,4.99c0.06,1.12-1.3,1.92-1.98-0.07
	c-0.78-2.3-1.3-5.39-4.2-5.39c-2.46,0-3.08,2.95-3.08,4.08c0,3.16,3.15,4.2,6.57,6.76c3.42,2.56,4.3,3.68,4.3,7.23
	c0,3.87-3.67,7.88-7.79,7.88c-1.77,0-3.22-1.01-4.66-1.01c-1.45,0-1.35,0.52-1.88,0.52c-0.52,0-1.08-0.42-0.95-1.34
	C273.35,102.24,273.35,99.57,273.35,98.17"/>
<path d="M307.42,112.78h-5.37v11.18h-31.76c0.1-0.45,0.15-0.91,0.15-1.39c0-0.38-0.05-0.74-0.11-1.1h28.77V70.32l-3.41-3.51h6.37
	v10.33h5.37c1.32,0,2.4,1.08,2.4,2.41c0,1.33-1.08,2.41-2.4,2.41h-5.37v26.01h5.37c1.32,0,2.4,1.08,2.4,2.41
	S308.74,112.78,307.42,112.78 M263.67,127.07c-2.48,0-4.49-2.01-4.49-4.49c0-2.47,2.01-4.49,4.49-4.49c2.48,0,4.49,2.02,4.49,4.49
	C268.16,125.05,266.14,127.07,263.67,127.07 M224.36,123.96v-11.18H219c-1.33,0-2.4-1.08-2.4-2.4s1.08-2.41,2.4-2.41h5.36V81.96H219
	c-1.33,0-2.4-1.08-2.4-2.41c0-1.33,1.08-2.41,2.4-2.41h5.36V66.81h7.08l-3.41,3.51v51.15h28.98c-0.06,0.36-0.11,0.72-0.11,1.1
	c0,0.48,0.05,0.94,0.15,1.39H224.36z M234.01,114.62l-3.86,3.44V71.18L234,67.2L234.01,114.62z M252.96,116.13
	c2.95,0,4.97,0.44,6.45,1.23c-0.68,0.56-1.24,1.23-1.66,2h-25.89l3.61-3.21L252.96,116.13z M236.12,66.81h16.85
	c4.39,0,8.22,2.9,9.32,7.05l0.21,0.78h1.83l0.21-0.78c1.1-4.15,4.94-7.05,9.33-7.05h17.13v47.22l-16.62-0.02
	c-3.84,0-6.53,0.67-8.57,2.18c-0.68-0.23-1.39-0.38-2.14-0.38c-0.75,0-1.47,0.15-2.14,0.38c-2.03-1.52-4.73-2.18-8.56-2.18
	l-16.84,0.02V66.81z M295.26,119.36h-25.68c-0.42-0.77-0.99-1.45-1.66-2c1.48-0.79,3.49-1.23,6.45-1.23l17.28,0.02L295.26,119.36z
	 M293.11,67.2l3.87,3.98v46.88l-3.87-3.44V67.2z M307.42,105.86h-3.25V84.07h3.25c2.49,0,4.51-2.03,4.51-4.52
	c0-2.49-2.02-4.52-4.51-4.52h-3.25V64.7h-30.3c-4.47,0-8.47,2.48-10.45,6.25c-1.98-3.77-5.98-6.25-10.45-6.25h-30.72v10.33H219
	c-2.49,0-4.52,2.03-4.52,4.52c0,2.49,2.03,4.52,4.52,4.52h3.25v21.79H219c-2.49,0-4.52,2.03-4.52,4.52c0,2.49,2.03,4.52,4.52,4.52
	h3.25v11.18h35.66c1.19,1.95,3.32,3.26,5.76,3.26c2.45,0,4.58-1.32,5.77-3.26h34.74v-11.18h3.25c2.49,0,4.51-2.03,4.51-4.52
	C311.93,107.88,309.91,105.86,307.42,105.86"/>
<polygon points="749.7,139.55 772.48,139.55 799.03,66.46 779.47,66.46 762.14,118.74 744.67,66.46 723.01,66.46 "/>
<path d="M926.93,419.81h20.13V313.56h-20.13V419.81z M875.62,421.35c21.95,0,38.58-14.68,38.58-37.74v-1.12
	c0-22.79-16.5-37.46-38.44-37.46s-38.58,14.96-38.58,37.88v1.12C837.18,406.81,853.82,421.35,875.62,421.35 M875.76,405.97
	c-11.46,0-17.89-8.39-17.89-22.37v-1.12c0-13.98,6.71-22.09,17.89-22.09c11.33,0,17.9,8.39,17.9,22.37v0.98
	C893.66,397.58,887.09,405.97,875.76,405.97 M790.91,421.35c21.95,0,38.58-14.68,38.58-37.74v-1.12c0-22.79-16.5-37.46-38.44-37.46
	s-38.58,14.96-38.58,37.88v1.12C752.47,406.81,769.1,421.35,790.91,421.35 M791.05,405.97c-11.46,0-17.89-8.39-17.89-22.37v-1.12
	c0-13.98,6.71-22.09,17.89-22.09c11.33,0,17.9,8.39,17.9,22.37v0.98C808.95,397.58,802.38,405.97,791.05,405.97 M672.37,419.81
	h20.27v-42.22c0-10.77,6.57-16.08,15.24-16.08c8.95,0,12.86,4.75,12.86,14.68v43.62h20.27v-46.55c0-19.57-10.21-28.24-24.61-28.24
	c-12.16,0-20.13,6.01-23.76,13.28v-44.74h-20.27V419.81z M626.1,421.35c21.25,0,33.83-12.02,34.95-29.36h-18.31
	c-0.98,9.37-7.55,14.12-15.66,14.12c-11.32,0-17.89-7.55-17.89-22.23v-1.12c0-13.98,6.99-21.81,17.47-21.81
	c8.25,0,13.42,3.92,14.82,12.44h19.15c-1.81-20.97-17.47-28.38-34.39-28.38c-20.83,0-37.75,14.4-37.75,38.02v1.12
	C588.49,408.06,604.71,421.35,626.1,421.35"/>
<path d="M535.14,421.35c26.67,0,43.08-14.12,43.08-31.87c0-20.69-14.04-27.26-41.34-30.34c-17.36-2.24-20.98-5.59-20.98-12.72
	c0-6.71,5.68-11.32,16.88-11.32c11.2,0,17.2,4.19,18.77,13.28h23.51c-2.05-19.85-16.88-29.92-42.29-29.92
	c-24.94,0-41.03,12.72-41.03,29.78c0,19.29,11.84,26.98,40.71,30.34c16.57,2.24,21.3,5.03,21.3,13c0,7.83-7.42,13.28-18.62,13.28
	c-16.73,0-20.98-7.41-22.09-16.35H488.6C490.01,408.48,504.21,421.35,535.14,421.35"/>
<path d="M515.57,220.8v-25.58l22.52,0.02c10.62,0,15.37,3.77,15.37,12.16v0.56c0,8.95-4.33,12.86-15.24,12.86L515.57,220.8z
	 M515.57,264v-28.65l23.5,0.02c12.3,0,17.33,4.75,17.33,13.98v0.56c0,9.08-5.02,14.12-16.21,14.12L515.57,264z M493.48,279.65
	l50.2,0.02c23.07,0,35.09-9.64,35.09-27.96v-0.56c0-13.42-7-20.83-19.99-23.48c11.18-3.21,16.22-10.9,16.22-21.39v-0.56
	c0-17.05-11.33-26-33.13-26l-48.38-0.02V279.65z"/>
<path d="M1051.45,281.19c19.29,0,30.76-8.25,30.76-24.04c0-15.66-10.07-20.27-28.38-22.93c-10.62-1.54-14.12-3.35-14.12-7.97
	c0-4.47,3.77-7.55,10.34-7.55c6.99,0,10.34,2.8,11.47,8.81h18.59c-1.81-16.78-13.98-22.65-30.19-22.65
	c-14.95,0-28.93,7.55-28.93,22.78c0,14.26,7.55,19.85,26.98,22.79c10.49,1.54,14.82,3.63,14.82,8.67c0,5.03-3.64,7.97-11.46,7.97
	c-8.81,0-12.02-3.77-12.87-10.35h-18.87C1020.29,272.53,1031.74,281.19,1051.45,281.19 M981.28,281.19
	c19.29,0,30.75-8.25,30.75-24.04c0-15.66-10.07-20.27-28.38-22.93c-10.63-1.54-14.12-3.35-14.12-7.97c0-4.47,3.78-7.55,10.35-7.55
	c6.98,0,10.34,2.8,11.46,8.81h18.6c-1.82-16.78-13.98-22.65-30.19-22.65c-14.96,0-28.94,7.55-28.94,22.78
	c0,14.26,7.55,19.85,26.98,22.79c10.48,1.54,14.81,3.63,14.81,8.67c0,5.03-3.63,7.97-11.46,7.97c-8.81,0-12.03-3.77-12.86-10.35
	h-18.87C950.11,272.53,961.57,281.19,981.28,281.19 M888.32,235.2c1.54-10.35,7.69-16.36,16.77-16.36c9.65,0,15.24,5.31,15.94,16.36
	H888.32z M905.66,281.19c19.99,0,32.57-8.81,34.95-24.6h-19.15c-1.26,6.15-5.87,10.2-15.24,10.2c-11.04,0-17.61-6.99-18.17-19.15
	h52.7v-5.59c0-26.14-16.77-37.18-35.65-37.18c-21.25,0-37.6,14.96-37.6,38.02v1.12C867.5,267.35,883.57,281.19,905.66,281.19
	 M785.99,279.65h20.27v-42.22c0-10.77,6.57-16.08,15.24-16.08c8.95,0,12.86,4.75,12.86,14.68v43.62h20.26V233.1
	c0-19.57-10.2-28.24-24.6-28.24c-12.17,0-20.13,6.01-23.77,13.28v-11.6h-20.27V279.65z M757.2,196.62c6.57,0,11.6-4.76,11.6-11.04
	c0-6.29-5.03-11.04-11.6-11.04c-6.43,0-11.47,4.75-11.47,11.04C745.74,191.86,750.77,196.62,757.2,196.62 M747.27,279.65h20.13
	v-73.11h-20.13V279.65z M703.1,281.19c19.3,0,30.75-8.25,30.75-24.04c0-15.66-10.06-20.27-28.37-22.93
	c-10.63-1.54-14.12-3.35-14.12-7.97c0-4.47,3.78-7.55,10.34-7.55c6.99,0,10.35,2.8,11.46,8.81h18.59
	c-1.81-16.78-13.98-22.65-30.19-22.65c-14.95,0-28.93,7.55-28.93,22.78c0,14.26,7.54,19.85,26.98,22.79
	c10.48,1.54,14.82,3.63,14.82,8.67c0,5.03-3.64,7.97-11.47,7.97c-8.81,0-12.02-3.77-12.86-10.35h-18.88
	C671.93,272.53,683.39,281.19,703.1,281.19 M615.31,281.19c12.02,0,19.43-5.59,23.21-13v11.46h20.13v-73.11h-20.13v42.92
	c0,10.76-6.71,16.07-15.24,16.07c-8.67,0-12.72-4.75-12.72-14.68v-44.31h-20.14v47.11C590.43,272.8,601.06,281.19,615.31,281.19"/>
<path d="M833.54,126.98c-7.41,0-10.62-3.5-10.62-8.81c0-7.83,6.85-10.34,18.59-10.34h7.83v6.15
	C849.34,122.09,842.49,126.98,833.54,126.98 M827.53,141.1c11.47,0,17.9-4.47,22.09-10.34v8.81h19.71V91.89
	c0-19.85-12.72-27.12-30.61-27.12c-17.9,0-31.6,7.69-32.85,25.02h19.15c0.84-6.29,4.47-10.34,12.44-10.34
	c9.22,0,11.88,4.76,11.88,13.42v2.93h-8.25c-22.37,0-38.02,6.43-38.02,23.49C803.07,134.67,814.26,141.1,827.53,141.1
	 M619.91,126.98c-7.41,0-10.63-3.5-10.63-8.81c0-7.83,6.85-10.34,18.6-10.34h7.83v6.15C635.71,122.09,628.86,126.98,619.91,126.98
	 M613.9,141.1c11.46,0,17.89-4.47,22.09-10.34v8.81h19.71V91.89c0-19.85-12.72-27.12-30.61-27.12c-17.9,0-31.59,7.69-32.85,25.02
	h19.16c0.84-6.29,4.47-10.34,12.44-10.34c9.23,0,11.88,4.76,11.88,13.42v2.93h-8.25c-22.36,0-38.02,6.43-38.02,23.49
	C589.44,134.67,600.62,141.1,613.9,141.1"/>
<polygon points="493.48,139.51 516.13,139.51 516.13,98.27 552.36,98.32 552.36,139.56 575,139.56 575,39.61 552.36,39.61 
	552.36,80.43 516.13,80.38 516.13,39.56 493.48,39.56 "/>
<path d="M715.59,65.42c-11.06,0.51-17.86,5.61-22.29,15.01V66.45h-20.27v73.11h20.27v-36.62c0-13.55,8.16-18.55,22.29-18.72V65.42z"
	/>
<path d="M929.16,65.43c-11.02,0.53-17.8,5.62-22.22,15V66.45h-20.27v73.11h20.27v-36.62c0-13.53,8.14-18.53,22.22-18.72V65.43z"/>
<path d="M973.14,125.3c-10.06,0-17.05-7.13-17.05-21.67v-1.12c0-14.54,6.29-22.22,17.61-22.22c11.04,0,17.47,7.41,17.47,21.95v1.12
	C991.17,118.17,983.76,125.3,973.14,125.3 M967.13,141.1c10.76,0,19.71-6.29,23.48-13.7v12.16h20.13V33.32h-20.13v44.03
	c-4.06-7.41-11.32-12.58-23.07-12.58c-18.31,0-32.15,14.12-32.15,38.16v1.12C935.4,128.38,949.37,141.1,967.13,141.1"/>
<rect x="410.17" width="9.06" height="602.59"/>
<path class="st1" d="M490.69,512.42v-1.12c0-28.4,19.86-50.78,49.24-50.78c29.38,0,48.82,22.38,48.82,50.5v1.12
	c0,28.26-19.44,50.92-48.54,50.92C510.69,563.06,490.69,540.4,490.69,512.42 M576.16,512v-1.12c0-22.38-13.15-40.57-36.23-40.57
	c-23.22,0-36.65,17.07-36.65,40.84v1.12c0,24.2,16.09,40.7,36.93,40.7C562.45,552.99,576.16,536.2,576.16,512"/>
<path class="st1" d="M608.21,488.64h11.61v11.61c3.35-6.86,11.47-12.87,23.5-12.87c15.1,0,25.73,8.25,25.73,29.52v44.91h-11.61
	v-45.74c0-12.87-5.46-18.61-17.21-18.61c-10.77,0-20.42,6.86-20.42,20v44.35h-11.61V488.64z"/>
<rect x="692.15" y="453.67" class="st1" width="11.75" height="108.13"/>
<path class="st1" d="M725.86,465.7c0-4.2,3.5-7.7,7.69-7.7c4.2,0,7.7,3.5,7.7,7.7s-3.5,7.69-7.7,7.69
	C729.36,473.39,725.86,469.9,725.86,465.7 M727.96,488.64h11.61v73.16h-11.61V488.64z"/>
<path class="st1" d="M763.36,488.64h11.61v11.61c3.35-6.86,11.47-12.87,23.5-12.87c15.1,0,25.73,8.25,25.73,29.52v44.91h-11.61
	v-45.74c0-12.87-5.46-18.61-17.21-18.61c-10.77,0-20.42,6.86-20.42,20v44.35h-11.61V488.64z"/>
<path class="st1" d="M841.56,525.99v-1.12c0-22.1,14.13-37.49,34.28-37.49c16.92,0,32.87,10.21,32.87,36.37v3.78h-55.12
	c0.56,16.64,8.53,25.88,23.5,25.88c11.33,0,17.91-4.2,19.45-12.73h11.61c-2.51,14.69-14.69,22.38-31.19,22.38
	C856.25,563.06,841.56,548.51,841.56,525.99 M896.82,518.16c-1.12-15.11-8.95-21.12-20.98-21.12c-11.89,0-19.86,8.11-21.83,21.12
	H896.82z"/>
</svg>
