<svg width="360" height="320" viewBox="0 0 360 320" fill="currentColor" xmlns="http://www.w3.org/2000/svg" role="image"><path d="M254.896 184.158a131.118 131.118 0 0 1-6.225-.843c2.102.259 4.178.54 6.225.843Z"></path><path d="M180 141.964c-16.301-31.702-60.692-90.782-101.965-119.92C38.497-5.868 23.414-1.032 13.526 3.436 2.081 8.608 0 26.178 0 36.516c0 10.338 5.667 84.756 9.364 97.178 12.215 41.044 55.696 54.913 95.74 50.462 2.047-.304 4.123-.584 6.225-.844-2.062.33-4.139.612-6.225.844-58.684 8.691-110.8 30.077-42.446 106.174 75.19 77.85 103.047-16.693 117.342-64.628 14.295 47.935 30.76 139.069 115.995 64.628 64.005-64.628 17.585-97.48-41.099-106.172a131.118 131.118 0 0 1-6.225-.843c2.102.259 4.178.54 6.225.843 40.044 4.452 83.525-9.418 95.74-50.461 3.697-12.422 9.364-86.84 9.364-97.178 0-10.338-2.081-27.909-13.526-33.08-9.888-4.468-24.971-9.305-64.509 18.608C240.692 51.184 196.301 110.262 180 141.964Z"></path></svg>