<svg xmlns="http://www.w3.org/2000/svg" viewBox="0 0 50 50" width="50px" height="50px">
    <path fill="currentColor" d="M 12.980469 4 C 9.1204688 4 5.9804688 7.14 5.9804688 11 L 6 26 L 9.9804688 26 L 9.9804688 11 C 9.9804688 9.35 11.320469 8 12.980469 8 L 40.019531 8 C 41.679531 8 43.019531 9.35 43.019531 11 L 43.019531 39 C 43.019531 40.65 41.679531 42 40.019531 42 L 29 42 C 29 43.54 28.420938 44.94 27.460938 46 L 40.019531 46 C 43.879531 46 47.019531 42.86 47.019531 39 L 47.019531 11 C 47.019531 7.14 43.879531 4 40.019531 4 L 12.980469 4 z M 7 28 C 4.794 28 3 29.794 3 32 L 3 42 C 3 44.206 4.794 46 7 46 L 23 46 C 25.206 46 27 44.206 27 42 L 27 32 C 27 29.794 25.206 28 23 28 L 7 28 z M 7 32 L 23 32 L 23.001953 42 L 7 42 L 7 32 z"/>
</svg>