<svg xmlns="http://www.w3.org/2000/svg" xml:space="preserve" viewBox="5.67 143.05 628.65 387.55"><path fill="currentColor" d="M115.912 143.075c-6.462 0-13.762.525-22.012 2.325-8.7 1.8-33.5 7.4-53.8 26.9C-4.9 212.4 6.6 276.2 8 285.8c1.7 11.7 6.9 44.2 31.7 72.5 45.8 56.1 144.4 54.8 144.4 54.8s12.1 28.9 30.6 55.5c25 33.1 50.7 58.9 75.7 62 63 0 188.9-.1 188.9-.1s12 .1 28.3-10.3c14-8.5 26.5-23.4 26.5-23.4S547 483 565 451.5c5.5-9.7 10.1-19.1 14.1-28 0 0 55.2-117.1 55.2-231.1-1.1-34.5-9.6-40.6-11.6-42.6-4.1-4.1-9.6-4-9.6-4s-117.2 6.6-177.9 8c-13.267.3-26.433.597-39.5.697l.1 117.002s57.4 24.202 83.1 40.102c3.7 2.3 10.2 6.798 12.9 14.398 2.1 6.1 2 13.101-1 19.301l-61 126.9c-6.2 12.7-21.4 18.1-33.9 12l-126.9-61c-12.5-6-17.9-21.2-11.8-33.8l61-126.9c6-12.5 21.2-17.9 33.8-11.8a5290.322 5290.322 0 0 0 27 12.954c0-36.449-.1-109.053-.1-109.053-29 .4-89.2-2.201-89.2-2.201s-141.4-7.1-156.8-8.5c-4.9-.3-10.525-.825-16.988-.825zm12.188 48.026s7.1 59.399 15.7 94.199c7.2 29.2 24.8 77.7 24.8 77.7s-26.1-3.1-43-9.1c-25.9-8.5-36.9-18.7-36.9-18.7S69.6 321.8 60 295.4c-16.5-44.2-1.4-71.2-1.4-71.2s8.4-22.5 38.5-30c13.8-3.7 31-3.1 31-3.1z"/><path fill="currentColor" d="M326.8 380.1c-8.2.1-15.4 5.8-17.3 13.8-1.9 8 2 16.3 9.1 20 7.7 4 17.5 1.8 22.7-5.4 5.1-7.1 4.3-16.9-1.8-23.1l24-49.1c1.5.1 3.7.2 6.2-.5 4.1-.9 7.1-3.6 7.1-3.6 4.2 1.8 8.6 3.8 13.2 6.1 4.8 2.4 9.3 4.9 13.4 7.3.9.5 1.8 1.1 2.8 1.9 1.6 1.3 3.4 3.1 4.7 5.5 1.9 5.5-1.9 14.9-1.9 14.9-2.3 7.6-18.4 40.6-18.4 40.6-8.1-.2-15.3 5-17.7 12.5-2.6 8.1 1.1 17.3 8.9 21.3 7.8 4 17.4 1.7 22.5-5.3 5-6.8 4.6-16.3-1.1-22.6 1.9-3.7 3.7-7.4 5.6-11.3 5-10.4 13.5-30.4 13.5-30.4.9-1.7 5.7-10.3 2.7-21.3-2.5-11.4-12.6-16.7-12.6-16.7-12.2-7.9-29.2-15.2-29.2-15.2s0-4.1-1.1-7.1c-1.1-3.1-2.8-5.1-3.9-6.3 4.7-9.7 9.4-19.3 14.1-29-4.1-2-8.1-4-12.2-6.1-4.8 9.8-9.7 19.7-14.5 29.5-6.7-.1-12.9 3.5-16.1 9.4-3.4 6.3-2.7 14.1 1.9 19.8l-24.6 50.4z"/></svg>