<svg xmlns="http://www.w3.org/2000/svg" viewBox="0 0 360 385"><g><path fill="currentColor" d="M 323.28223,42.662430 V 15.430205 L 343.04720,0 H 129.15709 L 0,112.2736 h 85.656075 c -0.15534,2.12494 -0.21914,4.04644 -0.21914,6.22563 0,20.84472 7.2192,38.08662 21.67203,51.86089 14.45284,13.79702 32.25124,20.64784 53.32651,20.64784 4.92319,0 9.75059,-0.36794 14.43842,-1.02419 -2.90722,6.50082 -4.37457,12.52302 -4.37457,18.14228 0,9.87526 4.49924,20.4304 13.46715,31.6418 -39.23377,2.6705 -68.06112,9.73264 -86.43702,21.16322 -10.53108,6.49907 -19.000207,14.70396 -25.390349,24.5311 -6.390569,9.89933 -9.577754,20.51525 -9.577754,31.9616 0,9.64822 2.062375,18.33611 6.21907,26.06233 4.156694,7.7263 9.577757,14.07047 16.312223,18.98408 6.71825,4.96781 14.46899,9.10088 23.219,12.46874 8.73429,3.34378 17.40643,5.71858 26.06106,7.06258 8.62707,1.34222 17.20471,1.9985 25.70579,1.9985 13.46887,0 26.95353,-1.73428 40.54711,-5.18707 13.56165,-3.48461 26.28022,-8.64143 38.17105,-15.4927 11.85935,-6.80488 21.51545,-16.0865 28.9219,-27.7183 7.39024,-11.67998 11.09457,-24.80499 11.09457,-39.33613 0,-11.01584 -2.24964,-21.03852 -6.7502,-30.14073 -4.46864,-9.07202 -9.93785,-16.54102 -16.45271,-22.34403 -6.5008,-5.81263 -12.99987,-11.15539 -19.51512,-15.9679 -6.50083,-4.84488 -12.00021,-9.75058 -16.46884,-14.8129 -4.4848,-5.04657 -6.73444,-10.05419 -6.73444,-14.98395 0,-4.92145 1.73422,-9.67183 5.21588,-14.26559 3.45451,-4.6095 7.67376,-9.04795 12.60967,-13.30571 4.93756,-4.24944 9.87523,-8.96788 14.79665,-14.13302 4.92147,-5.14719 9.14072,-11.82739 12.60971,-20.00822 3.48467,-8.17907 5.20318,-17.44489 5.20318,-27.75679 0,-13.4527 -2.54714,-24.46065 -7.54735,-33.31348 -0.59369,-1.02243 -1.21757,-1.80338 -1.87511,-3.02225 l 56.90745,-46.672136 v 17.118526 c -7.39373,0.92969 -6.62422,5.34582 -6.62422,10.6352 v 128.66719 c 0,5.95832 4.8751,10.83382 10.83386,10.83382 h 3.98869 c 5.95835,0 10.83386,-4.87506 10.83386,-10.83382 V 53.29282 c 0,-5.27669 0.77741,-9.68801 -6.56167,-10.63039 z M 215.92220,265.14114 c 1.14099,0.7503 3.7039,2.78075 7.7184,6.03838 4.0495,3.24319 6.797,5.69582 8.26567,7.41432 1.43851,1.66381 3.5792,4.16501 6.37617,7.54734 2.81268,3.3744 4.7184,6.30394 5.71853,8.73425 1.00016,2.4767 2.01603,5.46089 3.04636,8.94556 0.98567,3.44488 1.48486,6.97595 1.48486,10.56169 0,17.04813 -6.56338,29.68007 -19.65604,37.85915 -13.125,8.18083 -28.76651,12.27368 -46.93767,12.27368 -9.18709,0 -18.2031,-1.09289 -27.06247,-3.1951 -8.84322,-2.11665 -17.31192,-5.3362 -25.39035,-9.60185 -8.07846,-4.25771 -14.57754,-10.20337 -19.50072,-17.79659 -4.93764,-7.64012 -7.40645,-16.41464 -7.40645,-26.24962 0,-10.32022 2.79692,-19.28987 8.42233,-26.90588 5.59343,-7.62564 12.93774,-13.3919 22.03208,-17.3154 9.0624,-3.94582 18.24946,-6.74232 27.56166,-8.39827 9.31221,-1.7023 18.79679,-2.555 28.43842,-2.555 4.46862,0 7.93582,0.25115 10.40465,0.69607 0.45456,0.21918 3.03188,2.07025 7.73456,5.56326 4.70401,3.46237 7.62565,5.59519 8.75047,6.38401 z m -3.35823,-100.5779 c -7.40648,8.85938 -17.73454,13.2882 -30.95363,13.2882 -11.85933,0 -22.29766,-4.76482 -31.26554,-14.31195 -8.99984,-9.52309 -15.42235,-20.32803 -19.34408,-32.43061 -3.93752,-12.10871 -5.90585,-23.98423 -5.90585,-35.648 0,-13.6942 3.59542,-25.35184 10.7809,-34.97598 7.18727,-9.64952 17.49915,-14.48477 30.93786,-14.48477 11.87507,0 22.37423,5.03825 31.43704,15.15677 9.09434,10.08482 15.60961,21.41303 19.5169,33.96799 3.92176,12.5392 5.87345,24.52979 5.87345,35.98399 0,13.44658 -3.70256,24.60984 -11.07663,33.45436 z"/></g></svg>